<svg width="115" height="115" viewBox="0 0 115 115" fill="none" xmlns="http://www.w3.org/2000/svg">
<circle cx="58" cy="57" r="50" fill="#A31E23"/>
<circle cx="57.5" cy="57.5" r="56.5" stroke="#A31E23" stroke-width="2"/>
<path d="M42.9609 16.4609C42.6875 16.7344 42.6875 16.9121 42.6875 25.3477V33.9473L43.0703 34.1523C43.7539 34.5078 44.4375 35.3965 44.6699 36.2441C45.2305 38.2812 45.8594 39.7988 46.707 41.1387L47.0488 41.6855L47.0625 29.2031C47.0625 16.9121 47.0625 16.7344 46.7891 16.4609C46.543 16.2148 46.3379 16.1875 44.875 16.1875C43.4121 16.1875 43.207 16.2148 42.9609 16.4609Z" fill="white"/>
<path d="M69.2109 16.4609C68.9375 16.7344 68.9375 16.9121 68.9375 29.2031L68.9512 41.6855L69.293 41.1387C70.1406 39.7988 70.7695 38.2812 71.3301 36.2441C71.5625 35.3965 72.2461 34.5078 72.9297 34.1523L73.3125 33.9473V25.3477C73.3125 16.9121 73.3125 16.7344 73.0391 16.4609C72.793 16.2148 72.5879 16.1875 71.125 16.1875C69.6621 16.1875 69.457 16.2148 69.2109 16.4609Z" fill="white"/>
<path d="M49.5234 20.8359C49.25 21.1094 49.25 21.2871 49.25 32.6348V44.1465L50.1113 44.7207C51.123 45.3906 51.916 45.8008 52.9004 46.1426L53.625 46.3887V33.7422C53.625 21.2871 53.625 21.1094 53.3516 20.8359C53.1055 20.5898 52.9004 20.5625 51.4375 20.5625C49.9746 20.5625 49.7695 20.5898 49.5234 20.8359Z" fill="white"/>
<path d="M62.6484 20.8359C62.375 21.1094 62.375 21.2871 62.375 33.7422V46.3887L63.127 46.1289C64.125 45.7871 65.6152 44.9941 66.2441 44.4746L66.75 44.0645V32.5801C66.75 21.2871 66.75 21.1094 66.4766 20.8359C66.2305 20.5898 66.0254 20.5625 64.5625 20.5625C63.0996 20.5625 62.8945 20.5898 62.6484 20.8359Z" fill="white"/>
<path d="M36.3984 25.2109C36.1387 25.4707 36.125 25.6621 36.125 29.5859V33.6875H38.3125H40.5V29.5859C40.5 24.541 40.6914 24.9375 38.3125 24.9375C36.8496 24.9375 36.6445 24.9648 36.3984 25.2109Z" fill="white"/>
<path d="M56.0859 25.2109C55.8125 25.4844 55.8125 25.6621 55.8125 36.1484V46.8125H58H60.1875V36.1484C60.1875 25.6621 60.1875 25.4844 59.9141 25.2109C59.668 24.9648 59.4629 24.9375 58 24.9375C56.5371 24.9375 56.332 24.9648 56.0859 25.2109Z" fill="white"/>
<path d="M75.7734 25.2109C75.5137 25.4707 75.5 25.6621 75.5 29.5859V33.6875H77.6875H79.875V29.5859C79.875 24.541 80.0664 24.9375 77.6875 24.9375C76.2246 24.9375 76.0195 24.9648 75.7734 25.2109Z" fill="white"/>
<path d="M30.9297 36.1484C30.7383 36.3398 30.6562 36.5996 30.6562 36.9961C30.6562 37.3105 31.8867 46.9629 33.4043 58.4336C35.3457 73.1992 36.2207 79.4473 36.3848 79.8301C36.7402 80.6094 37.2734 81.1973 37.9434 81.5254C38.5312 81.8125 38.5723 81.8125 57.9727 81.8125C74.4336 81.8125 77.4961 81.7852 77.8926 81.6211C78.5215 81.3477 79.4102 80.4043 79.6699 79.7207C79.8887 79.1191 85.3438 38.1172 85.3438 37.0234C85.3438 36.5996 85.2617 36.3398 85.0703 36.1484C84.8105 35.8887 84.6191 35.875 79.3555 35.875C75.1992 35.875 73.8594 35.916 73.6816 36.0527C73.5449 36.1484 73.2578 36.832 73.0391 37.6113C72.2324 40.4004 70.8105 42.875 68.9512 44.7344C67.1055 46.5801 65.1641 47.6738 62.416 48.4121C61.1582 48.7539 60.8984 48.7812 58 48.7812C55.1152 48.7812 54.8418 48.7539 53.6113 48.4258C50.4805 47.5781 48.252 46.2246 46.3652 44.0098C44.793 42.1777 43.6035 39.9219 42.9062 37.4199C42.7148 36.7637 42.4551 36.1484 42.332 36.0527C42.1406 35.916 40.8555 35.875 36.6445 35.875C31.3809 35.875 31.1895 35.8887 30.9297 36.1484ZM60.1055 57.0117C62.7168 57.6406 65.0684 59.7461 66.0938 62.3301C66.4629 63.2734 66.5312 63.6426 66.5859 64.9961C66.627 66.1855 66.5859 66.7871 66.4082 67.457C65.6016 70.5742 63.1816 73.0078 60.0371 73.8145C58.793 74.1426 56.4824 74.0469 55.2656 73.623C50.6172 71.9961 48.1699 66.8418 49.9199 62.3301C51.5059 58.2285 55.8398 55.9727 60.1055 57.0117Z" fill="white"/>
</svg>
