<svg width="36" height="35" viewBox="0 0 36 35" fill="none" xmlns="http://www.w3.org/2000/svg">
<path d="M0.565305 0.122543C0.206974 0.304043 0.031322 0.616222 0.00321767 1.12442C-0.0248867 1.66892 0.129687 2.00288 0.523148 2.22794C0.670696 2.31506 1.85811 2.81599 3.15091 3.33871C4.44371 3.86143 5.52572 4.31155 5.55383 4.34059C5.58193 4.36963 6.90284 8.26097 8.49074 12.9945C10.0786 17.728 11.4136 21.6992 11.4557 21.8226C11.526 22.0331 11.512 22.0622 11.2801 22.2945C11.0482 22.5196 10.9358 22.7954 10.1067 25.1767C9.60788 26.6287 9.19334 27.9137 9.19334 28.0299C9.19334 28.3711 9.369 28.7123 9.63599 28.8793C9.82569 29.01 9.98729 29.039 10.4159 29.039C10.711 29.039 10.9499 29.0535 10.9499 29.068C10.9499 29.0826 10.8374 29.2641 10.704 29.4746C10.0505 30.4765 10.0013 31.9503 10.5775 33.1409C10.8093 33.6055 11.519 34.3388 11.9686 34.5784C12.8188 35.0212 13.8376 35.1229 14.6948 34.847C16.901 34.1428 17.8284 31.3912 16.5356 29.402L16.2967 29.039H19.9924H23.6811L23.5687 29.206C23.098 29.8812 22.8731 30.6144 22.8731 31.4711C22.8872 33.4385 24.3978 34.9849 26.323 34.9922C27.3347 34.9922 28.1497 34.6437 28.8453 33.9104C30.0187 32.6835 30.1592 30.6289 29.1615 29.2713L28.9929 29.039H29.6463C30.1803 29.039 30.3489 29.01 30.5316 28.8938C31.1569 28.5018 31.1147 27.4491 30.4613 27.1296C30.2365 27.0135 29.4566 27.0062 20.9339 27.0062C15.826 27.0062 11.6525 26.9772 11.6525 26.9409C11.6525 26.8973 11.9616 25.9971 12.5729 24.2474L12.6361 24.0659L21.2642 24.0877C26.0068 24.1022 30.0187 24.0877 30.1873 24.0659C30.4894 24.0224 30.904 23.7174 31.0445 23.4488C31.0796 23.3762 32.2038 19.7971 33.5387 15.4919C35.759 8.34809 35.9698 7.6221 35.9487 7.25184C35.9136 6.77268 35.7309 6.46776 35.3515 6.27174C35.0915 6.14106 34.6489 6.1338 21.9035 6.1338H8.7226L8.52587 5.553C7.6476 2.94667 7.55626 2.71436 7.38061 2.51833C7.24009 2.37313 6.42506 2.01014 4.32426 1.16072C1.26791 -0.0807343 1.06416 -0.131554 0.565305 0.122543ZM16.5005 9.87268V11.1795H13.4512H10.4089L10.0154 9.99611C9.79759 9.34271 9.60086 8.75465 9.57275 8.68931C9.5306 8.57315 9.76246 8.56589 13.0155 8.56589H16.5005V9.87268ZM24.1589 9.87268V11.1795H21.5241H18.8893V9.87268V8.56589H21.5241H24.1589V9.87268ZM33.1523 8.60945C33.1523 8.63123 32.9767 9.21929 32.7589 9.91624L32.3724 11.1795H29.4566H26.5478V9.87268V8.56589H29.85C31.6698 8.56589 33.1523 8.58767 33.1523 8.60945ZM16.5005 15.1725V16.6971H14.3927H12.2848L12.2075 16.4938C12.1654 16.3849 11.9335 15.7024 11.6876 14.9692L11.245 13.6479H13.8727H16.5005V15.1725ZM24.1589 15.1725V16.6971H21.5241H18.8893V15.1725V13.6479H21.5241H24.1589V15.1725ZM31.5082 13.9528C31.459 14.127 31.2482 14.8095 31.0375 15.4774L30.6581 16.6971H28.6064H26.5478V15.1725V13.6479H29.0772H31.5995L31.5082 13.9528ZM16.5005 20.3633V21.6338H15.2077H13.9149L13.7533 21.1402C13.669 20.8715 13.4793 20.3053 13.3317 19.8697L13.0647 19.0928H14.7791H16.5005V20.3633ZM24.1589 20.3633V21.6338H21.5241H18.8893V20.3633V19.0928H21.5241H24.1589V20.3633ZM29.7517 19.6156C29.6603 19.906 29.4847 20.4795 29.3582 20.8861L29.1264 21.6338H27.8406H26.5478V20.3633V19.0928H28.227H29.9063L29.7517 19.6156ZM14.3224 30.0554C14.6877 30.2442 14.9969 30.658 15.0953 31.0791C15.3201 32.0446 14.4699 33.0538 13.5214 32.9449C12.5659 32.8287 11.9124 31.7905 12.2427 30.9048C12.5659 30.0264 13.5214 29.6343 14.3224 30.0554ZM27.0747 30.0844C27.5033 30.324 27.7633 30.7669 27.7984 31.3186C27.8195 31.6744 27.7984 31.8341 27.686 32.0591C27.2082 33.0175 26.1473 33.2425 25.3744 32.5601C24.4681 31.7615 24.8404 30.2006 26.0138 29.9029C26.323 29.8303 26.7445 29.8957 27.0747 30.0844Z" fill="white"/>
</svg>
