<svg width="115" height="115" viewBox="0 0 115 115" fill="none" xmlns="http://www.w3.org/2000/svg">
<circle cx="58" cy="57" r="50" fill="#A31E23"/>
<circle cx="57.5" cy="57.5" r="56.5" stroke="#A31E23" stroke-width="2"/>
<g clip-path="url(#clip0_39:7)">
<path d="M61.8281 36.2852C61.978 39.7754 62.7965 43.3532 63.295 46.8125C64.1681 52.8716 64.9757 58.94 65.8721 64.9961C66.2562 67.5912 66.5817 70.1939 66.9659 72.7891C67.1006 73.6993 67.0297 75.1413 67.5509 75.9187C68.2095 76.901 70.3699 76.4805 71.3985 76.4805H81.1055C82.0735 76.4805 83.9871 76.8418 84.754 76.1368C85.3773 75.5636 85.3064 74.1228 85.4229 73.3359C85.7934 70.8322 86.1136 68.3211 86.4746 65.8164C87.8832 56.0405 89.899 46.1286 90.6758 36.2852C91.2358 36.2852 92.3505 36.4962 92.7809 36.066C93.2893 35.5575 93.2026 32.9723 92.5696 32.5976C92.0461 32.2876 91.1253 32.457 90.5391 32.457H85.8906C86.5168 29.4231 88.1069 26.1168 88.1998 23.0234C88.2343 21.8826 86.1825 21.0262 85.4433 21.961C84.9906 22.5334 84.9193 23.5603 84.7459 24.2539C84.2906 26.0746 83.8676 27.902 83.4123 29.7227C83.2461 30.3879 83.1544 31.9077 82.5506 32.3165C82.1242 32.6052 81.3216 32.457 80.832 32.457H76.5938H65.6563C63.9415 32.457 62.0176 32.2102 60.3248 32.4773C59.1379 32.6646 58.9843 35.1662 59.6212 35.9682C60.0526 36.5113 61.2126 36.2852 61.8281 36.2852ZM33.9375 47.8275C29.9605 48.3562 27.0786 50.3334 25.9503 54.332C25.7021 55.2117 24.8554 57.7931 25.8914 58.3901C26.5663 58.7791 27.7176 58.5703 28.4688 58.5703H34.6211H52.2578C54.6788 58.5703 57.9967 59.1678 60.3222 58.511C61.5607 58.1613 61.0431 56.3437 60.8815 55.4258C60.3871 52.615 58.8373 50.0332 56.2227 48.762C53.5534 47.4642 50.4894 47.7695 47.6094 47.7695C43.1623 47.7695 38.3433 47.2419 33.9375 47.8275Z" fill="white"/>
<path d="M25.1875 61.2319C22.5656 61.7275 22.1681 65.5714 24.6406 66.6055C25.4812 66.957 26.6181 66.7734 27.5117 66.7734H33.2539H53.3516H59.5039C60.5255 66.7734 61.6307 66.9071 62.5097 66.2745C64.6059 64.7657 63.4945 61.3848 61.0078 61.1807C53.6882 60.5802 46.0698 61.168 38.7227 61.168H29.836C28.3411 61.168 26.6585 60.9539 25.1875 61.2319ZM26.1506 69.5861C25.0497 69.9229 25.5938 71.3545 25.8801 72.1055C26.6503 74.126 28.52 75.3021 30.5195 75.8752C33.0397 76.5974 35.7159 76.4805 38.3125 76.4805H48.8399C51.9543 76.4805 55.3485 76.6084 58.1367 74.9935C59.4882 74.2109 60.4095 73.0533 60.8658 71.5586C61.0445 70.9727 61.2821 70.1862 60.7031 69.746C60.1111 69.296 58.9736 69.5078 58.2735 69.5078H52.2578H34.211H28.7422C27.9362 69.5078 26.9278 69.3483 26.1506 69.5861Z" fill="white"/>
</g>
<defs>
<clipPath id="clip0_39:7">
<rect width="70" height="70" fill="white" transform="translate(23 14)"/>
</clipPath>
</defs>
</svg>
