<svg width="36" height="35" viewBox="0 0 36 35" fill="none" xmlns="http://www.w3.org/2000/svg">
<path d="M6.916 1.18263C6.57895 1.292 6.00114 1.87989 5.89796 2.22853C5.84981 2.40626 5.81542 2.96681 5.81542 3.71876V4.92189H4.87304C3.73806 4.92189 3.49043 4.98341 3.09147 5.34571C2.3073 6.06349 2.3073 7.60841 3.09147 8.32618C3.49043 8.68849 3.73806 8.75001 4.87304 8.75001H5.81542V10.3906V12.0313H4.87304C3.73806 12.0313 3.49043 12.0928 3.09147 12.4551C2.3073 13.1729 2.3073 14.7178 3.09147 15.4356C3.49043 15.7979 3.73806 15.8594 4.87304 15.8594H5.81542V17.5V19.1406H4.87304C3.73806 19.1406 3.49043 19.2022 3.09147 19.5645C2.3073 20.2822 2.3073 21.8272 3.09147 22.5449C3.49043 22.9072 3.73806 22.9688 4.87304 22.9688H5.81542V24.6094V26.25H4.87304C3.73806 26.25 3.49043 26.3115 3.09147 26.6738C2.3073 27.3916 2.3073 28.9365 3.09147 29.6543C3.49043 30.0166 3.73806 30.0781 4.87304 30.0781H5.81542V31.2813C5.81542 32.0332 5.84981 32.5938 5.89796 32.7715C6.00802 33.1475 6.57895 33.7149 6.95728 33.8242C7.3356 33.9336 28.4806 33.9404 28.8864 33.8311C29.5124 33.6602 30.0283 32.874 30.0283 32.0947V31.7188H30.9776C32.1676 31.7188 32.4496 31.6367 32.8692 31.1719C33.0343 30.9942 33.2062 30.7207 33.2475 30.5703C33.3645 30.1875 33.3645 24.5 33.2475 24.1035C33.1375 23.7276 32.5665 23.1602 32.1882 23.0508C32.0231 23.0029 31.5003 22.9688 30.9638 22.9688H30.0283V22.4219V21.875H30.9638C31.5003 21.875 32.0231 21.8408 32.1882 21.793C32.5665 21.6836 33.1375 21.1162 33.2475 20.7402C33.3645 20.3438 33.3645 14.6563 33.2475 14.2598C33.1375 13.8838 32.5665 13.3164 32.1882 13.207C32.0231 13.1592 31.5003 13.125 30.9638 13.125H30.0283V12.5781V12.0313H30.9638C31.5003 12.0313 32.0231 11.9971 32.1882 11.9492C32.5665 11.8399 33.1375 11.2725 33.2475 10.8965C33.3645 10.5 33.3645 4.81251 33.2475 4.4297C33.2062 4.27931 33.0343 4.00587 32.8692 3.82814C32.4496 3.36329 32.1676 3.28126 30.9776 3.28126H30.0283V2.90528C30.0283 2.12599 29.5124 1.33986 28.8864 1.16896C28.5081 1.06642 7.25306 1.08009 6.916 1.18263ZM28.7558 2.35841L28.9277 2.52247V17.5V32.4776L28.7558 32.6416L28.5907 32.8125H17.9219H7.25306L7.08797 32.6416C6.916 32.4776 6.916 32.457 6.916 31.2744V30.0781H8.41555C9.26163 30.0781 10.0252 30.044 10.1765 30.0029C10.8437 29.8184 11.3183 29.0527 11.3183 28.1641C11.3183 27.2754 10.8437 26.5098 10.1765 26.3252C10.0252 26.2842 9.26163 26.25 8.41555 26.25H6.916V24.6094V22.9688H8.41555C9.26163 22.9688 10.0252 22.9346 10.1765 22.8936C10.8437 22.709 11.3183 21.9434 11.3183 21.0547C11.3183 20.166 10.8437 19.4004 10.1765 19.2158C10.0252 19.1748 9.26163 19.1406 8.41555 19.1406H6.916V17.5V15.8594H8.41555C9.26163 15.8594 10.0252 15.8252 10.1765 15.7842C10.8437 15.5996 11.3183 14.834 11.3183 13.9453C11.3183 13.0567 10.8437 12.291 10.1765 12.1065C10.0252 12.0654 9.26163 12.0313 8.41555 12.0313H6.916V10.3906V8.75001H8.41555C9.26163 8.75001 10.0252 8.71583 10.1765 8.67482C10.8437 8.49025 11.3183 7.72462 11.3183 6.83595C11.3183 5.94728 10.8437 5.18165 10.1765 4.99708C10.0252 4.95607 9.26163 4.92189 8.41555 4.92189H6.916V3.7256C6.916 2.54298 6.916 2.52247 7.08797 2.35841L7.25306 2.18751H17.9219H28.5907L28.7558 2.35841ZM32.0575 4.54591L32.2295 4.70997V7.65626V10.6026L32.0575 10.7666C31.8993 10.9307 31.858 10.9375 30.9569 10.9375H30.0283V7.65626V4.37501H30.9569C31.858 4.37501 31.8993 4.38185 32.0575 4.54591ZM9.94949 6.1045C10.1352 6.24806 10.2178 6.47364 10.2178 6.83595C10.2178 7.19825 10.1352 7.42384 9.94949 7.56739C9.86695 7.62892 9.10342 7.64943 6.90912 7.65626H3.97881L3.82748 7.4922C3.73806 7.40333 3.64864 7.21876 3.61425 7.08204C3.54546 6.76075 3.628 6.38478 3.82748 6.1797L3.97881 6.01564H6.90912C9.10342 6.02247 9.86695 6.04298 9.94949 6.1045ZM9.94949 13.2139C10.1352 13.3574 10.2178 13.583 10.2178 13.9453C10.2178 14.3076 10.1352 14.5332 9.94949 14.6768C9.86695 14.7383 9.10342 14.7588 6.90912 14.7656H3.97881L3.82748 14.6016C3.73806 14.5127 3.64864 14.3281 3.61425 14.1914C3.54546 13.8701 3.628 13.4942 3.82748 13.2891L3.97881 13.125H6.90912C9.10342 13.1318 9.86695 13.1524 9.94949 13.2139ZM32.0575 14.3897L32.2295 14.5537V17.5V20.4463L32.0575 20.6104C31.8993 20.7744 31.858 20.7813 30.9569 20.7813H30.0283V17.5V14.2188H30.9569C31.858 14.2188 31.8993 14.2256 32.0575 14.3897ZM9.94949 20.3233C10.1352 20.4668 10.2178 20.6924 10.2178 21.0547C10.2178 21.417 10.1352 21.6426 9.94949 21.7861C9.86695 21.8477 9.10342 21.8682 6.90912 21.875H3.97881L3.82748 21.7109C3.628 21.5059 3.54546 21.1299 3.61425 20.8086C3.64864 20.6719 3.73806 20.4873 3.82748 20.3984L3.97881 20.2344H6.90912C9.10342 20.2412 9.86695 20.2617 9.94949 20.3233ZM32.0575 24.2334L32.2295 24.3975V27.3438V30.2901L32.0575 30.4541C31.8993 30.6182 31.858 30.625 30.9569 30.625H30.0283V27.3438V24.0625H30.9569C31.858 24.0625 31.8993 24.0693 32.0575 24.2334ZM9.94949 27.4326C10.1352 27.5762 10.2178 27.8018 10.2178 28.1641C10.2178 28.5264 10.1352 28.752 9.94949 28.8955C9.86695 28.957 9.10342 28.9776 6.90912 28.9844H3.97881L3.82748 28.8203C3.73806 28.7315 3.64864 28.5469 3.61425 28.4102C3.54546 28.0889 3.628 27.7129 3.82748 27.5078L3.97881 27.3438H6.90912C9.10342 27.3506 9.86695 27.3711 9.94949 27.4326Z" fill="white"/>
<path d="M18.0595 10.5C17.3922 10.6436 16.8007 10.9648 16.2985 11.4502C15.0604 12.6533 14.8196 14.7588 15.7482 16.29C15.9064 16.543 15.9615 16.6934 15.9064 16.707C15.8583 16.7207 15.6588 16.7686 15.4524 16.8096C14.5513 16.9941 13.664 17.6094 13.1206 18.4229C12.6322 19.1406 12.4809 19.6602 12.4327 20.6992C12.3983 21.6973 12.4877 22.2031 12.7904 22.7158C13.1137 23.249 13.4851 23.4609 14.5307 23.7139C17.6811 24.459 20.3638 24.459 23.5142 23.7139C24.8074 23.4062 25.2683 23.0303 25.5228 22.0732C25.7498 21.2256 25.5985 19.6191 25.227 18.8877C24.6905 17.8486 23.6381 17.0283 22.5719 16.8027C22.3793 16.7686 22.1867 16.7207 22.1385 16.707C22.0835 16.6934 22.1385 16.543 22.2967 16.29C23.2253 14.7588 22.9777 12.6602 21.7327 11.4365C20.8316 10.5547 19.4421 10.1992 18.0595 10.5ZM20.1368 11.6826C21.2374 12.0996 21.9253 13.4189 21.7052 14.6768C21.5951 15.3262 21.3612 15.8047 20.9347 16.2285C20.4051 16.7549 19.958 16.9121 19.0225 16.9121C18.4378 16.9121 18.2245 16.8848 17.9081 16.7549C16.8007 16.3242 16.1197 15.0186 16.3398 13.7539C16.5324 12.6191 17.1721 11.874 18.197 11.5869C18.7129 11.4434 19.6209 11.4912 20.1368 11.6826ZM17.6949 17.8213C18.1558 17.9785 18.3415 18.0059 19.0225 18.0059C19.7035 18.0059 19.8892 17.9785 20.3501 17.8213C20.9691 17.6094 21.0517 17.6025 21.7602 17.7393C22.902 17.9648 23.9338 18.6689 24.3053 19.4756C24.4635 19.8037 24.491 19.9746 24.5117 20.7129C24.5598 22.1826 24.436 22.3672 23.2185 22.6611C21.7189 23.0166 20.7077 23.126 19.0225 23.126C17.3372 23.126 16.326 23.0166 14.8265 22.6611C13.609 22.3672 13.4851 22.1826 13.5333 20.7129C13.5539 19.9336 13.5746 19.8174 13.7603 19.4482C13.8704 19.2227 14.1042 18.8945 14.2762 18.7236C14.8196 18.1836 16.099 17.6641 16.9382 17.6436C17.0621 17.6367 17.406 17.7187 17.6949 17.8213Z" fill="white"/>
</svg>
