<svg width="115" height="115" viewBox="0 0 115 115" fill="none" xmlns="http://www.w3.org/2000/svg">
<circle cx="58" cy="57" r="50" fill="#A31E23"/>
<circle cx="57.5" cy="57.5" r="56.5" stroke="#A31E23" stroke-width="2"/>
<path d="M44.0547 18.1445V20.7422C48.8889 20.7454 51.7063 23.6499 54.3086 27.3047C49.0057 29.5131 49.0228 37.4552 54.7188 39.1939C55.8588 39.5418 56.9788 39.5115 58.1367 39.2744C65.1537 37.8374 63.879 27.1947 56.9062 26.8945C55.9191 21.3396 49.0889 18.1445 44.0547 18.1445ZM65.3828 31.8164C67.937 30.0188 69.378 28.8086 72.6289 28.8086L72.9023 25.6641C69.1297 25.6641 65.4711 27.5363 65.3828 31.8164Z" fill="white"/>
<path d="M75.0898 29.4922C76.1217 31.101 79.4315 32.1907 79.7565 34.2773C79.9231 35.3463 78.0766 36.6258 77.4141 37.285C74.966 39.7213 71.4954 40.9766 68.2539 39.2129C66.8778 38.4641 65.9544 37.2124 64.6992 36.3281C62.3209 40.3991 58.1194 43.1728 53.3516 41.1306C52.3921 40.7198 51.5236 40.1573 50.756 39.4493C50.3927 39.1143 50.0297 38.4772 49.5181 38.3692C48.521 38.1589 46.626 39.2949 45.6953 39.6639C42.7538 40.8301 39.7736 41.9151 36.8086 43.0205C35.8627 43.3731 34.0004 43.7185 33.3906 44.5312C36.4924 44.5419 37.4542 49.4445 40.5 49.31C42.6245 49.2161 44.2197 46.0327 45.832 44.883C46.4459 44.4451 47.1667 44.5312 47.8828 44.5312C49.4782 44.5312 51.3794 44.2462 52.9414 44.5694C55.4384 45.0861 56.3636 49.3036 59.0938 49.3123C61.5444 49.3202 62.9678 45.9299 64.8359 44.7504C65.4069 44.39 66.2407 44.5312 66.8867 44.5312C68.3992 44.5312 70.0356 44.353 71.5352 44.5494C74.1358 44.8903 75.0484 49.3031 77.8242 49.3123C80.1609 49.32 81.7167 46.1084 83.4297 44.864C84.4752 44.1046 86.6951 44.5312 87.9414 44.5312C87.9406 36.8526 82.4684 30.9231 75.0898 29.4922ZM70.5781 31.2032C69.2036 31.485 68.1332 32.3523 67.1603 33.3209C66.8848 33.595 66.3681 33.9822 66.3681 34.4141C66.3681 34.9667 67.2053 35.5663 67.5703 35.9057C68.9495 37.1882 70.7128 38.0178 72.6289 37.6249C74.0035 37.3431 75.0739 36.4758 76.0467 35.5073C76.3222 35.2331 76.8389 34.846 76.8389 34.4141C76.8389 33.8964 76.1069 33.3742 75.7734 33.0489C74.3631 31.673 72.593 30.7901 70.5781 31.2032ZM27.7852 46.8555V55.0586C30.2222 55.2512 31.6532 57.5031 33.9375 57.6434C36.3689 57.7927 37.8183 55.0694 40.3633 55.0694C42.8171 55.0694 44.1083 57.4867 46.3789 57.643C48.6977 57.8025 50.1995 55.3571 52.5313 55.0982C55.1933 54.8028 56.5347 57.4946 58.957 57.6434C61.1515 57.7782 62.6528 55.456 64.8359 55.1186C67.5725 54.6956 68.8432 57.381 71.2617 57.6325C72.9773 57.8106 73.8784 56.5583 75.2266 55.7914C76.9617 54.8043 79.0015 54.9226 80.6953 55.9269C81.6261 56.4788 82.3307 57.3317 83.4297 57.5839C84.7739 57.8924 87.2566 56.8413 87.859 55.5521C88.1521 54.9249 87.9414 53.8291 87.9414 53.1445H85.4805V50.6836H87.9414V46.8555C86.9484 46.8555 85.2496 46.5301 84.3867 47.0746C82.1239 48.5032 80.9332 51.6609 77.8822 51.6611C75.6827 51.6613 74.3315 49.9252 72.9023 48.4961C72.2904 47.8841 71.6393 46.9439 70.7148 46.8635C69.4885 46.7568 66.7071 46.4113 65.6563 47.0746C63.3773 48.5133 62.1336 51.7434 59.0358 51.6591C56.8795 51.6003 55.5804 49.9046 54.1719 48.4961C53.6365 47.9607 53.0245 47.0912 52.2578 46.8989C51.1304 46.6162 47.7718 46.4543 46.7891 47.0746C44.7146 48.3843 43.5156 51.5009 40.7734 51.6352C37.2743 51.8063 36.4874 48.3393 33.8008 46.996C32.3649 46.2781 29.3879 46.8555 27.7852 46.8555Z" fill="white"/>
<path d="M27.7852 57.3828V61.2109C28.8609 61.2965 29.8962 61.5806 30.793 62.1982C31.739 62.8495 32.4372 63.832 33.6641 63.9326C36.3072 64.1493 37.6461 61.2217 40.3633 61.2217C42.8367 61.2217 44.0175 63.7509 46.2422 63.9326C48.7143 64.1344 50.0676 61.5419 52.5312 61.251C55.2149 60.9342 56.342 63.7413 58.6836 63.9326C61.1291 64.1322 62.4502 61.635 64.8359 61.2711C67.5349 60.8593 68.5752 63.46 70.8516 63.8988C72.9103 64.2957 73.7603 62.8183 75.3633 61.9373C76.9923 61.0421 78.9634 61.0184 80.5586 62.0265C81.5717 62.6667 82.302 63.7621 83.5664 63.92C84.841 64.0792 87.682 63.0643 87.9212 61.6152C88.0785 60.6611 87.9414 59.5804 87.9414 58.6133C86.1831 59.1953 85.0282 60.3383 83.0195 59.8576C81.1282 59.4049 79.8204 57.3586 77.8242 57.4184C75.1679 57.4978 73.8028 60.4184 70.8516 59.936C68.7347 59.59 67.4158 57.3526 65.2461 57.4184C63.0623 57.4845 61.7707 59.8027 59.5039 59.9682C56.7853 60.1665 55.429 57.4937 52.9414 57.4184C50.6836 57.35 49.3469 59.7848 47.0625 59.9678C44.3462 60.1851 43.0803 57.725 40.6367 57.4482C38.2953 57.1829 36.8346 59.7966 34.4844 59.9682C31.8122 60.1631 30.2516 57.8475 27.7852 57.3828ZM27.7852 63.5352V74.4727H87.9414V64.9023C86.016 65.6428 84.6772 66.8149 82.4726 66.0372C80.7927 65.4446 79.7298 63.5131 77.8242 63.5707C76.4185 63.6132 75.6192 64.6366 74.543 65.3679C73.4153 66.134 72.0678 66.4794 70.7148 66.2269C68.6744 65.8461 67.4468 63.5663 65.3828 63.5598C63.0446 63.5522 61.824 66.1995 59.3672 66.2848C56.6209 66.3801 55.4371 63.7009 52.9414 63.5639C50.6191 63.4363 49.2654 66.1906 46.8123 66.2848C44.1511 66.387 43.0287 63.8327 40.6367 63.5767C38.2087 63.317 36.8607 66.1885 34.3709 66.2848C31.6044 66.392 30.3359 63.8648 27.7852 63.5352Z" fill="white"/>
<path d="M90.2656 73.6523C90.2656 74.5103 90.5191 75.8076 89.8084 76.4451C89.0172 77.1549 87.1583 76.7969 86.164 76.7969H76.5937H37.3554H29.0156C28.1253 76.7969 26.6321 77.0856 25.9181 76.4451C25.2074 75.8076 25.4609 74.5103 25.4609 73.6523C25.0745 73.7636 24.7209 73.9106 24.3672 74.1053C21.4288 75.7231 24.2871 77.3336 26.1445 78.0532C30.503 79.7417 35.338 80.4277 39.9531 80.9962C52.7403 82.5716 66.1722 82.5437 78.9179 80.567C82.707 79.9793 86.7366 79.3329 90.2656 77.7728C91.0787 77.4133 92.4725 76.9035 92.7781 75.976C93.1703 74.7856 91.1261 73.9002 90.2656 73.6523Z" fill="white"/>
</svg>
