<svg width="115" height="115" viewBox="0 0 115 115" fill="none" xmlns="http://www.w3.org/2000/svg">
<circle cx="58" cy="57" r="50" fill="#A31E23"/>
<circle cx="57.5" cy="57.5" r="56.5" stroke="#A31E23" stroke-width="2"/>
<path d="M40.9375 24.0371C39.9668 24.4199 38.9688 25.418 38.5996 26.416C38.3399 27.1133 38.3125 27.4688 38.3125 30.5723V33.9629L35.3868 39.8965C33.7735 43.1641 32.3243 46.2539 32.1465 46.7871L31.8184 47.7441L31.7774 60.377C31.75 71.6426 31.7637 73.0918 31.9688 73.7754C32.543 75.8125 34.252 77.5488 36.2754 78.1777C37.0547 78.4238 37.6289 78.4375 44.8614 78.4375C51.5332 78.4375 52.7227 78.4102 53.3653 78.2188C55.3887 77.6309 57.1114 75.9219 57.7403 73.9121C57.9864 73.1191 58 72.4629 58 60.6777C58 48.7969 57.9864 48.2227 57.7266 47.1836C57.5352 46.377 56.7149 44.5996 54.4454 40.0469L51.4375 34.0039V30.5859C51.4375 26.5664 51.3418 26.1289 50.2071 24.9805C49.0723 23.8594 48.5938 23.75 44.834 23.7637C41.9903 23.7637 41.5938 23.791 40.9375 24.0371ZM47.0625 30.3125V32.5H44.875H42.6875V30.3125V28.125H44.875H47.0625V30.3125ZM50.5079 42.3027C51.9981 45.2969 53.2422 47.8945 53.2969 48.0859C53.3516 48.2637 53.4336 48.7695 53.4883 49.207L53.5704 50H44.875H36.1797L36.2618 49.207C36.3164 48.7695 36.3985 48.2637 36.4532 48.0859C36.5078 47.8945 37.752 45.2969 39.2422 42.3027L41.9356 36.875H44.875H47.8145L50.5079 42.3027ZM53.625 58.75V63.125H44.875H36.125V58.75V54.375H44.875H53.625V58.75ZM53.5977 69.9199C53.5567 72.0527 53.5293 72.4082 53.2832 72.8184C52.9278 73.4199 52.4356 73.7754 51.7657 73.9258C51.0684 74.0898 38.6817 74.0898 37.9844 73.9258C37.3145 73.7754 36.8223 73.4199 36.4668 72.8184C36.2207 72.4082 36.1934 72.0527 36.1524 69.9199L36.0977 67.5H44.875H53.6524L53.5977 69.9199Z" fill="white"/>
<path d="M81.1602 32.4863C80.8458 32.623 80.4766 32.9238 80.3263 33.1289C80.1759 33.3477 78.7403 37.2305 77.1407 41.7559L74.2149 50H69.0059C64.0977 50 63.7833 50.0137 63.3731 50.2734C62.8809 50.5742 62.5528 51.0117 62.3888 51.6133C62.3067 51.8867 62.6212 55.9883 63.4005 64.4785C64.6446 78.0957 64.5489 77.4805 65.5196 78.123L65.9708 78.4375H73.3126H80.6544L81.1055 78.123C82.0763 77.4805 81.9942 78.0957 83.2247 64.5332C83.9356 56.7129 84.3048 51.9687 84.2501 51.6816C84.0997 51.0527 83.7716 50.5879 83.252 50.2734C82.8692 50.041 82.5548 50 80.9415 50C79.9024 50 79.0548 49.9727 79.0548 49.9453C79.0548 49.918 80.2579 46.5273 81.7208 42.4121C83.1837 38.2832 84.3868 34.7285 84.3868 34.4824C84.3868 33.7441 83.8399 32.8828 83.1563 32.5273C82.418 32.1582 81.8985 32.1445 81.1602 32.4863ZM79.5333 55.0176C79.4649 55.5918 77.8243 73.7891 77.8243 73.9941C77.8243 74.0352 75.8009 74.0625 73.3126 74.0625C70.838 74.0625 68.8009 74.0352 68.8009 73.9941C68.8009 73.7891 67.1602 55.5918 67.0919 55.0176L67.0098 54.375H73.3126H79.6153L79.5333 55.0176Z" fill="white"/>
</svg>
