<svg width="115" height="115" viewBox="0 0 115 115" fill="none" xmlns="http://www.w3.org/2000/svg">
<circle cx="58" cy="57" r="50" fill="#A31E23"/>
<circle cx="57.5" cy="57.5" r="56" stroke="#A31E23" stroke-width="3"/>
<path d="M54.5137 22.8066C47.1992 23.4902 40.541 26.0605 35.373 30.2168C33.8418 31.4473 31.4492 33.9766 30.3418 35.5078C28.0176 38.7754 26.5547 42.8633 26.3223 46.7324C26.2402 48.1543 26.2539 48.209 26.5684 48.5234L26.9102 48.8652L26.6367 49.4668C26.4316 49.9043 26.3496 50.3555 26.3496 51.1621C26.3496 52.0918 26.418 52.3652 26.7324 52.9805C27.0879 53.6504 28.0859 54.7852 28.332 54.7852C28.3867 54.7852 28.5098 55.1953 28.6055 55.6875C28.6875 56.1934 28.8516 56.8496 28.9473 57.1641C29.2207 57.916 29.2207 57.8887 28.6055 58.2031C27.8398 58.5859 27.0879 59.3789 26.6914 60.1855C26.2539 61.1016 26.2266 62.7695 26.6231 63.6582L26.9102 64.2598L26.5684 64.6016C26.2539 64.916 26.2539 64.9844 26.3359 66.0781C26.5137 68.457 27.4434 70.4395 29.2207 72.2168C30.4648 73.4609 31.5996 74.1719 33.1855 74.7188L34.2793 75.0879H58H81.7207L82.8144 74.7188C84.4004 74.1719 85.5351 73.4609 86.7793 72.2168C88.5566 70.4395 89.4863 68.457 89.6641 66.0781C89.7461 64.9844 89.7461 64.916 89.4316 64.6016L89.0898 64.2598L89.3496 63.6719C90.2519 61.6211 89.3769 59.2422 87.3535 58.2168L86.4375 57.752V56.5488V55.3457L87.1621 55.0176C88.1055 54.5938 88.8437 53.8418 89.2949 52.8848C89.7598 51.9004 89.7871 50.3828 89.3633 49.4668L89.0898 48.8652L89.4316 48.5234C89.7461 48.209 89.7598 48.1543 89.6777 46.7324C89.5137 43.834 88.8437 41.3867 87.4492 38.584C86.3008 36.2598 85.0976 34.6055 83.0879 32.5273C78.084 27.3594 71.4668 24.1875 63.1953 22.998C61.4316 22.7383 56.373 22.6289 54.5137 22.8066ZM60.8027 25.0488C65.8887 25.2949 71.9453 27.1816 76.293 29.875C80.3125 32.377 83.5527 35.7676 85.3711 39.4043C86.4512 41.5371 87.3945 44.7363 87.3945 46.2266V46.7188H85.2754H83.1699L83.0195 46.1309C82.2676 43.2461 80.1758 41.0723 77.4824 40.3613C76.4434 40.1016 74.5566 40.1016 73.5176 40.3613C70.8242 41.0723 68.7324 43.2461 67.9805 46.1445L67.8301 46.7188L59.0664 46.6914L50.2891 46.6504L50.1387 46.0352C49.6738 44.2715 48.3203 42.6719 46.5566 41.8242C45.5039 41.3184 45.4766 41.3184 43.7812 41.3184C42.0859 41.3184 42.0586 41.3184 41.0059 41.8242C39.2422 42.6719 37.8887 44.2715 37.4238 46.0352L37.2734 46.6504L32.9395 46.6914L28.6055 46.7188V46.2402C28.6055 45.9805 28.7285 45.1738 28.8652 44.4355C30.7246 34.8516 40.1445 27.2227 52.4629 25.3086C54.0625 25.0625 57.3027 24.8711 58.5469 24.9395C58.957 24.9531 59.9824 25.0078 60.8027 25.0488ZM76.7715 42.5488C77.8926 42.8359 78.5898 43.2324 79.3555 43.998C79.957 44.5996 80.5039 45.5293 80.7637 46.4043L80.8457 46.7188H75.5H70.1543L70.2363 46.4043C70.6465 45.0098 71.7402 43.6152 72.8887 43.041C74.1875 42.3711 75.4726 42.207 76.7715 42.5488ZM45.6133 43.9023C46.4199 44.2715 47.2402 45.0508 47.6367 45.8164C47.7871 46.1172 47.9922 46.8281 48.0879 47.3887C48.3477 48.8242 48.4707 48.9062 50.3301 48.9062C51.5742 48.9062 51.875 48.9473 52.3945 49.207C53.0508 49.5488 53.625 50.4238 53.625 51.0938C53.625 51.7637 53.0508 52.6387 52.3945 52.9668L51.793 53.2812H43.7812H35.7695L35.168 52.9668C34.7168 52.748 34.4707 52.502 34.252 52.0508C33.8555 51.2852 33.8555 50.9023 34.252 50.1367C34.7305 49.1797 35.4004 48.9062 37.2324 48.9062C39.0918 48.9062 39.2148 48.8242 39.4746 47.3887C39.6797 46.1582 40.0078 45.4746 40.7324 44.7637C42.0176 43.4648 43.9453 43.123 45.6133 43.9023ZM32.2285 49.1387C31.5859 50.6426 31.5859 51.5449 32.2285 53.0352C32.3106 53.2539 32.2285 53.2812 31.3125 53.2812C29.959 53.2812 29.207 52.9121 28.7832 52.0508C28.3867 51.2852 28.3867 50.7656 28.7832 50.0684C29.2481 49.2344 29.9453 48.9062 31.2578 48.9062C32.2285 48.9062 32.3106 48.9336 32.2285 49.1387ZM86.6016 49.3438C87.9004 50.3418 87.709 52.3516 86.2598 53.0078C85.6992 53.2676 85.1797 53.2812 70.4551 53.2812C56.0176 53.2812 55.2383 53.2676 55.334 53.0352C55.9766 51.5449 55.9766 50.6426 55.334 49.1387C55.2383 48.9062 55.9629 48.9062 70.6738 48.9336L86.123 48.9746L86.6016 49.3438ZM43.4258 56.1797C42.9883 57.6699 41.8672 59.1328 40.5547 59.9395C38.6816 61.0742 35.8516 61.0742 33.9102 59.9395C33.1719 59.5156 31.8731 58.1621 31.5039 57.4512C31.3535 57.1504 31.1348 56.5762 31.0254 56.1797L30.8066 55.4688H37.2188H43.6309L43.4258 56.1797ZM65.2871 56.1797C65.1777 56.5762 64.959 57.1504 64.8086 57.4512C64.4394 58.1621 63.1406 59.5156 62.4023 59.9395C60.5566 61.0332 57.959 61.1016 56.0859 60.1035C55.2109 59.6387 55.2109 59.6797 55.7305 58.8184C56.1953 58.0664 56.6465 56.8496 56.8379 55.9062L56.9336 55.4688H61.2129H65.5059L65.2871 56.1797ZM84.25 58.4219C84.25 60.3906 84.1953 61.457 84.0859 61.6621C83.7168 62.3594 83.1152 62.4824 82.541 61.9902C82.2676 61.7578 82.1582 61.498 82.0762 60.8555C81.748 58.5176 79.9023 57.2188 77.7559 57.8066C77.0176 58.0117 75.8555 59.1738 75.6504 59.9121C75.5547 60.2539 75.5 61.8809 75.5 64.123V67.8008L75.1035 68.1973C74.8848 68.416 74.6113 68.5938 74.4883 68.5938C74.1055 68.5938 73.6133 68.293 73.4629 67.9512C73.3535 67.7324 73.3125 65.709 73.3125 61.5527V55.4688H78.7812H84.25V58.4219ZM71.125 67.3633C71.125 68.457 71.3164 69.0176 71.9316 69.7148C72.6016 70.4805 73.4629 70.8223 74.5566 70.7539C75.7324 70.6855 76.6074 70.1797 77.209 69.2227C77.5508 68.6484 77.6328 68.375 77.6738 67.4727L77.7148 66.4062H82.5683H87.4219L87.3262 66.8438C86.7383 69.5508 84.7285 71.7246 81.9941 72.5996L81.0371 72.9004H58H34.9629L34.0059 72.5996C31.2715 71.7246 29.2617 69.5508 28.6738 66.8438L28.5781 66.4062H49.8516H71.125V67.3633Z" fill="white"/>
<path d="M46.2695 29.5332C45.5859 30.2578 46.0918 31.4062 47.0762 31.4062C47.7188 31.4062 48.1563 30.9414 48.1563 30.2988C48.1563 29.3281 46.9258 28.8359 46.2695 29.5332Z" fill="white"/>
<path d="M57.207 29.5332C56.5234 30.2578 57.0293 31.4062 58.0137 31.4062C58.6563 31.4062 59.0938 30.9414 59.0938 30.2988C59.0938 29.3281 57.8633 28.8359 57.207 29.5332Z" fill="white"/>
<path d="M68.1445 29.5332C67.4609 30.2578 67.9668 31.4062 68.9512 31.4062C69.5938 31.4062 70.0312 30.9414 70.0312 30.2988C70.0312 29.3281 68.8008 28.8359 68.1445 29.5332Z" fill="white"/>
<path d="M40.8008 36.0957C40.1172 36.8203 40.623 37.9688 41.6074 37.9688C42.25 37.9688 42.6875 37.5039 42.6875 36.8613C42.6875 35.8906 41.457 35.3984 40.8008 36.0957Z" fill="white"/>
<path d="M51.7383 36.0957C51.0547 36.8203 51.5606 37.9688 52.5449 37.9688C53.1875 37.9688 53.625 37.5039 53.625 36.8613C53.625 35.8906 52.3945 35.3984 51.7383 36.0957Z" fill="white"/>
<path d="M62.6758 36.0957C61.9922 36.8203 62.498 37.9688 63.4824 37.9688C64.125 37.9688 64.5625 37.5039 64.5625 36.8613C64.5625 35.8906 63.332 35.3984 62.6758 36.0957Z" fill="white"/>
<path d="M73.6133 36.0957C72.9297 36.8203 73.4355 37.9688 74.4199 37.9688C75.0625 37.9688 75.5 37.5039 75.5 36.8613C75.5 35.8906 74.2695 35.3984 73.6133 36.0957Z" fill="white"/>
</svg>
