<svg width="38" height="34" viewBox="0 0 38 34" fill="none" xmlns="http://www.w3.org/2000/svg">
<path d="M9.64726 7.18648C4.69647 11.1426 0.570802 14.4299 0.477527 14.4939L0.3125 14.6149L2.29999 17.0697C3.38343 18.4216 4.30184 19.553 4.33054 19.5814C4.35924 19.6099 4.86867 19.2541 5.45702 18.7845L6.52611 17.9378L6.54763 25.7576L6.56199 33.5773H18.6879H30.8137L30.8281 25.7576L30.8496 17.9378L31.9187 18.7845C32.507 19.2541 33.0165 19.6099 33.0452 19.5814C33.4254 19.1759 37.0417 14.6078 37.0058 14.5793C36.7762 14.3801 18.6879 -0.00714111 18.6735 -2.67029e-05C18.6592 -2.67029e-05 14.5981 3.23746 9.64726 7.18648ZM26.4226 8.88705L34.0281 14.9564L33.3465 15.8032L32.6649 16.6428L32.3635 16.408C30.8855 15.2055 18.7237 5.54283 18.6879 5.54283C18.652 5.54283 6.49023 15.2055 5.01217 16.408L4.71082 16.6428L4.02919 15.8032L3.34755 14.9564L10.9962 8.85859C15.2008 5.50726 18.6807 2.77496 18.7237 2.79631C18.774 2.81054 22.2323 5.55706 26.4226 8.88705ZM23.696 12.2313L28.6612 16.1803V23.8079V31.4427H26.4011H24.1481L24.1194 27.0881C24.0979 22.392 24.1122 22.5912 23.7032 21.588C23.1938 20.3499 22.0386 19.2114 20.7686 18.7062C20.0152 18.4003 19.5704 18.3149 18.6879 18.3149C17.8053 18.3149 17.3605 18.4003 16.6071 18.7062C15.3371 19.2114 14.1819 20.3499 13.6725 21.588C13.2635 22.5912 13.2778 22.392 13.2563 27.081L13.2276 31.4427H10.9747H8.71451V23.8079V16.1803L13.6868 12.217C16.4134 10.0397 18.6735 8.2609 18.695 8.26801C18.7237 8.27513 20.9695 10.0611 23.696 12.2313ZM19.269 20.4851C20.5677 20.727 21.6655 21.8156 21.9166 23.1106C21.9597 23.3383 21.9884 25.0603 21.9884 27.4652V31.4427H18.6879H15.3873V27.4652C15.3873 25.1243 15.416 23.3383 15.4591 23.1106C15.7819 21.3674 17.5327 20.1649 19.269 20.4851Z" fill="white"/>
</svg>
