<svg width="79" height="79" viewBox="0 0 79 79" fill="none" xmlns="http://www.w3.org/2000/svg">
<path d="M18.5928 0.0925751C18.4231 0.138863 17.7287 0.277725 17.0498 0.401169C9.79786 1.77441 3.53341 7.29824 1.11094 14.4268C0.0154369 17.6516 0.0771557 16.1086 0.0771557 39.5C0.0771557 59.25 0.0925854 60.6387 0.35489 61.873C2.17559 70.4057 8.59434 76.8244 17.127 78.6451C18.3613 78.9074 19.75 78.9229 39.5 78.9229C59.25 78.9229 60.6387 78.9074 61.8731 78.6451C70.4057 76.8244 76.8244 70.4057 78.6451 61.873C78.9074 60.6387 78.9229 59.25 78.9229 39.5C78.9229 19.75 78.9074 18.3613 78.6451 17.1269C77.0404 9.58183 71.7326 3.53339 64.5732 1.11093C61.3484 0.0154266 63.1537 0.0925751 39.8857 0.0617142C28.3443 0.0462799 18.7625 0.0617142 18.5928 0.0925751ZM61.6416 5.1998C66.0082 6.51132 69.3873 8.93378 71.5166 12.2666C73.1676 14.8434 73.9545 17.1887 74.2168 20.3209C74.4174 22.7279 74.4174 56.2721 74.2168 58.6791C73.9854 61.441 73.5225 63.0457 72.2418 65.4682C70.0816 69.5879 66.1471 72.6275 61.4565 73.8156C59.5895 74.2939 56.8121 74.3711 39.5 74.3711C22.1879 74.3711 19.4106 74.2939 17.5436 73.8156C11.3717 72.2572 6.91251 67.798 5.13809 61.4102C4.87579 60.4689 4.86036 59.1883 4.86036 39.5C4.86036 19.8117 4.87579 18.5311 5.13809 17.5898C6.74278 11.85 10.4922 7.65312 15.7691 5.70898C16.6486 5.40038 18.1607 4.99921 18.9014 4.8912C19.1637 4.86034 28.6375 4.82948 39.9629 4.84492C60.4381 4.87578 60.5615 4.87578 61.6416 5.1998Z" fill="white"/>
<path d="M59.6512 10.4923C56.951 11.3564 55.2229 13.7171 55.2229 16.5562C55.2074 20.2747 57.9539 23.0212 61.6725 23.0058C64.5424 23.0058 66.8877 21.2622 67.7518 18.5312C69.2947 13.5474 64.6195 8.90306 59.6512 10.4923ZM62.7371 15.4915C63.3389 16.0933 63.4315 16.8031 62.9994 17.4357C62.5828 18.0374 62.3051 18.1917 61.6107 18.2072C61.1016 18.2072 60.8701 18.1146 60.4998 17.7288C59.4506 16.6796 60.1912 14.9669 61.6879 14.9669C62.0736 14.9669 62.3514 15.1058 62.7371 15.4915Z" fill="white"/>
<path d="M35.9512 18.1145C26.9557 19.7346 20.1512 26.2922 18.2533 35.1797C17.8522 37.0467 17.8522 41.9534 18.2533 43.8204C20.0895 52.3993 26.6008 58.9106 35.1797 60.7467C37.0467 61.1479 41.9533 61.1479 43.8203 60.7467C52.3992 58.9106 58.9106 52.3993 60.7467 43.8204C60.9627 42.802 61.0244 41.8145 61.0244 39.5001C61.0244 36.1827 60.8547 35.01 59.9906 32.4795C57.5527 25.3202 51.4889 19.9352 43.9746 18.2842C42.4008 17.9294 37.5404 17.8368 35.9512 18.1145ZM42.5397 22.9131C49.4059 24.2092 54.7908 29.5942 56.0869 36.4604C56.3801 38.0342 56.3801 40.9659 56.0869 42.5397C54.7908 49.4059 49.4059 54.7909 42.5397 56.087C40.9658 56.3801 38.0342 56.3801 36.4604 56.087C29.5941 54.7909 24.2092 49.4059 22.9131 42.5397C22.6199 40.9659 22.6199 38.0342 22.9131 36.4604C24.2092 29.6405 29.5479 24.271 36.3524 22.9286C37.8182 22.6354 41.0275 22.6354 42.5397 22.9131Z" fill="white"/>
</svg>
