<svg width="56" height="78" viewBox="0 0 56 78" fill="none" xmlns="http://www.w3.org/2000/svg">
<path d="M25.1203 0.130226C19.4074 0.678665 13.7707 3.1314 9.45937 6.93999C-1.81407 16.888 -3.2004 33.8287 6.32109 45.5134C6.82382 46.138 11.8816 51.2873 17.5336 56.9392L27.832 67.2224L38.1305 56.9392C43.7824 51.2873 48.8402 46.138 49.343 45.5134C57.1125 35.9767 57.7828 22.5705 51.0035 12.4244C45.2754 3.84742 35.3578 -0.860008 25.1203 0.130226ZM32.7527 3.29898C37.7648 4.38062 41.7867 6.5896 45.443 10.2306C49.1297 13.9173 51.3234 17.9697 52.3898 23.0884C52.6945 24.49 52.7402 25.1755 52.725 27.9177C52.725 30.6294 52.6793 31.3455 52.3898 32.6404C51.491 36.7384 49.9523 40.0748 47.5453 43.1521C47.0273 43.8224 42.3656 48.5908 37.2164 53.74L27.832 63.1091L18.4476 53.74C13.2984 48.5908 8.63671 43.8224 8.10351 43.1521C5.74218 40.1509 4.17304 36.7384 3.27421 32.6404C2.98476 31.3455 2.93905 30.6294 2.93905 27.9177C2.92382 25.1603 2.96952 24.49 3.27421 23.0732C4.35585 17.9544 6.53437 13.9326 10.2211 10.2306C14.182 6.26968 18.6609 3.96929 24.1148 3.08569C26.1105 2.76578 30.7723 2.88765 32.7527 3.29898Z" fill="white"/>
<path d="M31.1683 7.10758C30.696 7.57985 30.5894 8.25016 30.8941 8.82907C31.1074 9.22516 31.93 9.56031 32.6765 9.56031C34.4132 9.56031 37.78 10.9619 39.9585 12.592C43.7062 15.3798 46.1132 19.7216 46.1132 23.6826C46.1132 24.6576 46.4027 25.2822 46.9511 25.5259C47.4691 25.7697 47.7128 25.7545 48.2308 25.4802C48.962 25.1146 49.0839 24.5509 48.8706 22.6466C48.3374 17.6955 45.839 13.4146 41.7105 10.3525C39.3796 8.61578 36.6679 7.36656 34.2456 6.90953C32.3109 6.54391 31.7015 6.57438 31.1683 7.10758Z" fill="white"/>
<path d="M25.2421 13.9021C20.2757 14.9228 16.5433 18.3353 14.9589 23.2712C14.3953 25.0232 14.2581 27.9177 14.639 29.822C15.1722 32.488 16.3605 34.6513 18.3867 36.6775C21.0984 39.3892 24.1148 40.6384 27.9081 40.6384C31.7015 40.6384 34.7179 39.3892 37.4296 36.6775C39.4558 34.6513 40.6441 32.488 41.1773 29.822C41.5124 28.131 41.4058 25.0537 40.9488 23.4998C39.4406 18.4115 35.3578 14.74 30.2085 13.8412C28.9898 13.6126 26.4609 13.6583 25.2421 13.9021ZM30.498 16.7966C33.4382 17.5431 36.1042 19.7064 37.4449 22.4333C38.2828 24.1548 38.557 25.3279 38.557 27.2322C38.557 31.2998 36.3023 34.8646 32.5394 36.7537C31.0464 37.5154 29.8277 37.7896 27.9843 37.8048C26.1105 37.8201 25.1507 37.6068 23.4902 36.8298C21.1136 35.7177 19.5292 34.1943 18.3867 31.8787C16.2996 27.6587 17.0613 22.9818 20.3976 19.6302C23.0788 16.949 26.8874 15.8826 30.498 16.7966Z" fill="white"/>
<path d="M12.552 58.0056C8.07305 59.6052 5.23945 61.6009 4.05117 64.0232C3.57891 64.9982 3.5332 65.1963 3.5332 66.5369C3.5332 67.8623 3.57891 68.0755 4.03594 69.0048C7.05234 75.19 21.8145 78.7701 35.8301 76.7439C43.9043 75.5556 49.8457 72.6459 51.6434 68.9896C52.0852 68.0755 52.1309 67.8623 52.1309 66.5369C52.1309 65.1963 52.0852 64.9982 51.6129 64.0232C50.3941 61.5552 47.4387 59.4986 42.8684 57.9142L41.2078 57.3505L40.0805 58.4779C39.4559 59.0873 38.9531 59.6357 38.9531 59.6814C38.9531 59.7271 39.7301 59.9709 40.6746 60.2298C45.443 61.5705 48.8555 63.8709 49.3734 66.0951C49.6172 67.1767 48.6117 68.7916 46.9816 69.9494C42.6703 73.0115 35.2207 74.6263 26.4609 74.413C22.698 74.3216 20.6109 74.0931 17.5641 73.4533C10.5258 71.9603 5.72695 68.7916 6.35156 66.0341C6.83906 63.8556 10.1754 61.6009 14.9438 60.2451C15.873 59.9861 16.6652 59.7423 16.6957 59.7271C16.8023 59.6509 14.5324 57.3963 14.3496 57.4115C14.2734 57.4115 13.4508 57.6705 12.552 58.0056Z" fill="white"/>
</svg>
