<svg width="210" height="199" viewBox="0 0 210 199" fill="none" xmlns="http://www.w3.org/2000/svg">
<g clip-path="url(#clip0_22:342)">
<path d="M170.07 8.7417H47.324V114.669H170.07V8.7417Z" fill="white"/>
<path d="M52.2067 0.135485C47.4642 0.662768 44.3639 2.85303 42.9907 6.63865C42.1696 8.91003 42.1129 9.70773 42.2121 16.0757C42.2686 19.2394 42.3678 24.1066 42.4386 26.8918C42.5094 29.6769 42.665 35.9097 42.7925 40.7499C42.9057 45.5766 43.0331 50.4168 43.0756 51.4983C43.1181 52.5802 43.2455 57.1361 43.3587 61.6385C43.472 66.1405 43.6277 71.9408 43.7127 74.5504C43.7976 77.1461 43.9533 82.3782 44.0666 86.1778C44.7461 108.594 44.8169 110.014 45.2557 111.676C46.3317 115.705 49.1346 118.464 53.1975 119.518C54.2451 119.802 54.7267 119.829 56.8784 119.829C58.2375 119.829 61.1677 119.748 63.3904 119.667C65.6132 119.572 72.1961 119.505 78.1279 119.505C88.2212 119.505 88.9434 119.518 90.5287 119.775C96.2485 120.708 101.033 123.655 104.19 128.225C105.252 129.739 105.719 130.618 106.597 132.727C107.899 135.891 108.012 135.918 110.759 133.593C119.14 126.495 126.869 122.398 136.368 120.045C142.328 118.558 147.057 118.166 158.665 118.152C164.739 118.152 165.9 118.058 167.796 117.45C171.18 116.368 173.643 114.016 174.776 110.784C174.931 110.338 175.158 109.459 175.285 108.824C175.54 107.512 175.979 99.6974 176.291 91.1121C176.418 87.8808 176.63 81.8512 176.786 77.7272C176.942 73.6037 177.197 66.8439 177.352 62.7199C177.947 46.9692 178.216 39.6819 178.485 32.1646C178.626 27.8923 178.839 23.2684 178.923 21.8894C179.15 18.4958 179.037 13.2365 178.697 11.8845C177.749 7.99067 174.662 4.98921 170.628 4.05632C168.802 3.63719 162.587 3.32623 149.888 3.02879C135.788 2.70431 125.595 2.4339 123.698 2.35279C122.721 2.31223 118.333 2.14998 113.93 2.01478C109.527 1.86606 102.562 1.6227 98.4284 1.47398C94.3087 1.32526 88.2498 1.12245 84.9795 1.00077C81.7092 0.89261 77.3209 0.74389 75.2115 0.662768C69.8743 0.459968 54.0469 -0.0132364 53.6224 0.000283732C53.4243 0.0138038 52.7869 0.0678843 52.2067 0.135485ZM99.575 15.8188C100.085 15.9675 100.679 16.5354 100.892 17.0627C101.486 18.5634 100.169 20.4021 98.4851 20.4021C96.6587 20.4021 95.583 18.2389 96.6163 16.6436C97.2817 15.589 98.0744 15.3726 99.575 15.8188ZM74.2345 16.2244C75.5512 16.6976 77.0798 17.8874 78.0002 19.1583C78.68 20.1047 79.5151 21.9299 79.9114 23.3495C80.251 24.5258 80.2934 24.9179 80.2934 27.0946C80.3077 29.2578 80.2653 29.6499 79.9824 30.6098C78.7224 34.7605 74.8433 38.4515 70.1858 39.9387C68.9258 40.3443 67.0994 40.5877 66.2501 40.466C63.5886 40.0874 62.9093 36.2477 64.2541 29.055C65.2592 23.7011 66.9579 18.8068 68.3313 17.4007C68.9825 16.7111 70.0444 16.1162 70.9218 15.9405C71.7712 15.7783 73.3427 15.9134 74.2345 16.2244ZM112.769 21.5108C113.392 21.8758 113.704 22.4842 113.704 23.3766C113.704 24.3094 113.335 25.1071 111.821 27.3785C111.184 28.3249 110.716 29.1497 110.773 29.2308C110.83 29.3254 111.255 29.8797 111.707 30.4746C112.925 32.0295 113.647 33.5167 113.647 34.4225C113.647 35.2337 113.435 35.7069 112.84 36.2477C112.075 36.9372 110.929 37.0995 109.995 36.6398C109.4 36.3559 108.366 35.3554 107.772 34.4901C107.559 34.1792 107.347 33.9223 107.29 33.9223C107.248 33.9223 106.951 34.3414 106.639 34.8416C105.861 36.0855 104.813 37.0995 104.063 37.3023C102.407 37.7755 100.906 36.5587 101.09 34.8957C101.189 34.0439 102.01 32.408 103.397 30.353C103.893 29.6094 104.303 28.9333 104.303 28.8522C104.303 28.7576 103.964 28.0005 103.539 27.1487C102.59 25.2423 102.038 23.7686 102.038 23.1873C102.038 22.6194 102.477 22.0786 103.015 21.957C103.723 21.8082 104.388 22.2138 105.846 23.6605L107.205 25.0125L107.899 24.0526C109.839 21.3486 111.226 20.632 112.769 21.5108ZM90.9113 22.1733C92.1994 22.6465 92.9782 23.5118 93.346 24.8773C93.6294 25.9048 93.5441 27.0811 93.1478 27.9734C92.7801 28.7981 91.7039 29.7851 90.5997 30.2989C89.4812 30.8261 87.7967 30.9884 87.0608 30.6233L86.6077 30.3935V31.3129C86.6215 32.8407 87.287 33.7871 88.3489 33.7871C88.547 33.7871 89.2125 33.422 89.9342 32.9082C91.5201 31.7726 92.1289 31.759 92.1289 32.8407C92.1289 33.9764 90.7131 35.8016 89.3397 36.4235C88.476 36.8156 86.834 36.8561 85.6307 36.5046C83.8329 35.9773 82.3747 34.3279 81.8507 32.2187C81.5677 31.083 81.6525 28.7441 82.0065 27.5002C82.601 25.4722 84.0453 23.5118 85.645 22.5924C87.1313 21.7542 89.283 21.5784 90.9113 22.1733ZM99.0796 22.0651C100.368 22.8899 100.552 23.7822 100.538 28.717C100.523 32.4351 100.51 32.5162 100.141 33.6248C99.2777 36.1666 97.2108 36.9643 95.5968 35.3554C95.2715 35.0444 94.9032 34.4766 94.7475 34.0575C93.9691 32.0295 94.8751 24.999 96.1775 22.8628C96.843 21.7677 98.0887 21.4296 99.0796 22.0651ZM122.877 22.2003C124.222 22.7952 125.086 23.8768 125.623 25.6074C126.091 27.1757 125.694 31.3534 124.915 33.03C123.103 36.9102 117.936 38.8842 115.247 36.7074C114.227 35.8827 113.944 34.3819 114.496 32.6649C115.232 30.38 117.215 28.7035 119.55 28.379C120.074 28.3114 120.57 28.2438 120.641 28.2438C120.711 28.2438 120.725 27.7165 120.697 27.0676C120.641 25.9994 120.598 25.8778 120.244 25.5804C119.522 24.9855 118.333 25.3235 117.724 26.2834C117.384 26.8377 117.087 27.027 116.507 27.027C115.87 27.027 115.714 26.7566 115.799 25.7426C115.997 23.3901 118.333 21.6595 121.107 21.8082C121.801 21.8488 122.382 21.9705 122.877 22.2003ZM74.7585 41.0473C75.2396 41.2772 75.9618 42.2236 76.3296 43.0889C77.632 46.2391 77.278 51.7014 75.4664 56.3658C74.3479 59.2726 72.8897 60.9896 70.7522 61.963C69.9453 62.3281 69.6761 62.3821 68.6286 62.3821C67.6377 62.3821 67.3119 62.3147 66.7455 62.0443C65.868 61.6252 64.7352 60.4759 64.2965 59.5565C63.872 58.6777 63.5319 57.0415 63.5319 55.9467C63.5319 52.9586 65.7265 49.2405 68.147 48.1048C69.407 47.51 70.7522 47.483 71.8703 48.0102L72.6348 48.3617L72.5358 46.9962C72.4791 46.2391 72.3376 44.9817 72.2385 44.2111C71.9556 42.3453 71.9694 42.156 72.3519 41.6152C72.9464 40.7499 73.7534 40.5606 74.7585 41.0473ZM129.29 41.0879C129.871 41.4259 130.338 42.2506 130.352 42.9132C130.352 43.508 129.743 44.6572 129.233 44.9953C128.158 45.7253 127.039 45.6442 126.204 44.7519C125.298 43.7919 125.199 42.832 125.907 41.6693C126.43 40.7905 126.728 40.6553 127.832 40.7229C128.483 40.7634 128.922 40.8716 129.29 41.0879ZM140.191 46.8069C141.451 47.1584 142.427 48.6322 141.946 49.4569C141.734 49.8084 141.649 49.8625 140.219 50.4844C139.582 50.7683 139.327 50.9711 139.044 51.4443C138.478 52.3637 138.605 52.81 139.851 54.419C140.431 55.1487 141.097 56.1493 141.323 56.6363C141.706 57.4338 141.748 57.6503 141.748 58.9343C141.748 60.2594 141.72 60.4219 141.295 61.2734C140.46 62.9637 138.888 64.2209 137.076 64.6806C134.571 65.3023 131.966 64.5454 131.017 62.923C130.663 62.3147 130.635 62.1522 130.678 61.1655C130.777 59.0428 132.122 57.5418 134.089 57.3526C135.335 57.2307 135.576 57.7989 135.024 59.5025C134.868 59.9622 134.741 60.462 134.741 60.5839C134.741 60.949 135.207 60.8816 135.618 60.4487C136.199 59.8676 136.439 59.2727 136.439 58.4746C136.439 57.6771 136.411 57.6231 135.024 56.2167C133.226 54.3918 132.476 53.0126 132.476 51.5255C132.476 50.3357 132.886 49.511 133.976 48.4834C135.746 46.8204 138.039 46.212 140.191 46.8069ZM107.305 47.199C108.183 47.6587 108.735 48.4834 108.805 49.4433C108.862 50.1869 108.834 50.2546 108.48 50.525C108.253 50.7007 107.885 50.8224 107.588 50.8224C106.314 50.8224 105.139 51.5523 104.474 52.7694C104.12 53.405 104.091 53.5942 104.091 54.9733C104.091 56.2979 104.133 56.5278 104.388 56.8661C104.756 57.3392 105.294 57.4066 106.299 57.1227C107.248 56.8523 107.361 56.8523 107.701 57.1767C108.593 58.0288 107.177 60.3407 105.408 60.9084C104.403 61.2195 102.661 61.1115 101.557 60.6379C100.637 60.2461 99.3911 59.1235 98.9381 58.2854C97.7915 56.1493 98.0744 52.918 99.6317 50.4033C101.175 47.9156 103.227 46.6853 105.606 46.8204C106.399 46.861 106.866 46.9556 107.305 47.199ZM117.767 47.0097C119.664 47.1855 120.683 47.8886 121.56 49.6732C122.155 50.863 122.353 51.8094 122.325 53.3237C122.283 55.9735 121.037 58.7044 119.083 60.408C117.059 62.1795 114.553 62.6392 112.444 61.6519C109.725 60.3674 108.777 57.0009 109.909 52.7288C110.66 49.9166 112.387 47.6317 114.312 46.9556C114.85 46.7664 114.977 46.7663 117.767 47.0097ZM128.497 47.172C129.715 47.9967 130.097 50.4438 129.814 55.5544C129.658 58.4206 129.389 59.3673 128.469 60.3674C127.025 61.9224 124.859 61.2868 124.024 59.0428C123.684 58.1368 123.627 55.9868 123.897 53.932C124.449 49.7408 125.284 47.4559 126.43 46.9556C127.025 46.6988 127.96 46.7934 128.497 47.172ZM151.092 47.2396C151.488 47.4018 152.04 47.7263 152.309 47.9561C153.357 48.8214 154.135 50.8089 154.135 52.5802C154.135 53.9593 153.739 56.6903 153.413 57.5418C151.757 61.8278 146.052 64.1669 143.404 61.6519C142.767 61.0302 142.498 60.3674 142.498 59.4079C142.498 56.4198 145.089 53.6209 148.048 53.4184L149.039 53.3505V52.5936C149.025 51.1063 148.742 50.525 147.92 50.3222C147.396 50.2005 146.42 50.7278 145.967 51.3767C145.4 52.1878 144.792 52.3771 144.239 51.8906C143.942 51.6335 143.928 51.5122 143.999 50.9035C144.353 48.3753 146.759 46.6312 149.605 46.861C150.03 46.9016 150.709 47.0638 151.092 47.2396ZM87.3861 47.2937C88.7452 47.875 89.4531 48.7809 89.736 50.3357C90.0333 52.012 89.4955 53.567 88.2641 54.527C86.7068 55.7436 84.6113 56.2033 83.1817 55.6223C82.9549 55.541 82.9268 55.6223 82.9268 56.3118C82.9268 57.4066 83.1393 58.0421 83.649 58.4479C84.385 59.0428 84.9938 58.9209 86.1828 57.9748C87.0889 57.2713 87.8248 56.9469 88.1364 57.1361C88.4622 57.3253 88.4479 58.4345 88.094 59.1102C87.6834 59.935 86.5224 61.0436 85.6731 61.4493C84.9652 61.7738 84.8094 61.8005 83.4646 61.7465C82.2189 61.6925 81.8936 61.6385 81.2424 61.3141C79.1468 60.2728 77.9721 58.1234 77.9721 55.2839C77.9721 51.4309 80.152 48.0778 83.2808 47.0773C84.1868 46.7934 86.5087 46.9151 87.3861 47.2937ZM160.35 58.0828C160.548 58.2314 160.86 58.6098 161.043 58.9343C162.204 61.1115 159.784 65.6946 157.448 65.6946C156.626 65.6946 156.4 65.5861 156.188 65.1131C155.975 64.6266 156.145 64.1263 156.556 64.0044C156.811 63.9232 157.816 62.9364 157.816 62.7472C157.816 62.6932 157.632 62.5307 157.391 62.4093C156.061 61.6519 155.791 59.34 156.924 58.3666C157.717 57.6771 159.543 57.5284 160.35 58.0828ZM95.059 64.3428C96.2342 65.0184 96.3614 66.7087 95.6111 71.5757C95.3425 73.3605 95.0733 75.0368 95.0166 75.2939C94.9175 75.7537 94.9318 75.7537 96.2056 74.6044C96.9278 73.9555 97.7348 73.3333 97.9896 73.2119C99.122 72.6982 100.198 73.1307 100.198 74.1041C100.198 74.9289 99.8722 75.4292 98.4851 76.7404C97.7772 77.3894 96.9559 78.2142 96.6448 78.5659L96.0784 79.2009L97.4375 81.1616C99.1929 83.7034 100.34 85.7988 100.34 86.4883C100.34 87.1373 99.9008 87.5702 99.0653 87.7461C97.862 88.0027 96.6872 87.3538 94.5493 85.2445L93.3603 84.0818L92.7515 85.2583C92.0012 86.7454 91.3219 87.5024 90.5006 87.8135C88.7028 88.4624 87.2022 87.3671 86.7349 85.0419C86.3105 82.8652 87.1032 78.6199 89.0991 72.5085C91.3219 65.6268 93.1054 63.1935 95.059 64.3428ZM150.822 64.3289C151.743 64.8698 152.097 66.4248 151.955 69.4124C151.828 72.1573 151.375 76.362 150.61 81.7026C150.327 83.69 149.265 84.6768 147.524 84.5822C146.434 84.5282 145.641 84.0551 145.018 83.0951C144.452 82.2163 144.466 81.608 145.202 77.5925C146.703 69.2772 147.128 67.4522 147.935 65.8026C148.699 64.2075 149.718 63.6933 150.822 64.3289ZM83.9034 66.0325C85.6731 66.8979 85.5173 69.3718 83.6204 70.2912C82.3037 70.9401 80.9022 70.2644 80.3925 68.7635C80.0672 67.8307 80.5907 66.4649 81.4967 65.9106C81.936 65.6406 83.2522 65.708 83.9034 66.0325ZM83.2808 72.1979C83.8186 72.4951 84.2573 73.2386 84.4841 74.2121C84.9371 76.1861 84.767 82.4055 84.2149 83.8653C83.6204 85.4882 82.7286 86.2451 81.412 86.2451C80.4068 86.2451 79.6989 85.7314 79.0763 84.5282L78.609 83.6087L78.6233 81.3781C78.6514 77.376 79.6141 73.4418 80.8456 72.3465C81.4967 71.7649 82.4314 71.6976 83.2808 72.1979ZM137.954 72.0354C138.945 72.1166 139.412 72.2385 139.879 72.4951C141.62 73.4685 142.668 75.6184 142.668 78.2008C142.668 81.3102 140.927 84.6361 138.478 86.1778C137.289 86.9347 136.185 87.2319 134.797 87.1645C132.858 87.0699 131.385 86.1371 130.508 84.4603C129.899 83.311 129.743 82.3782 129.828 80.5667C129.97 77.7951 130.791 75.5238 132.305 73.7256C133.452 72.3732 134.797 71.7109 136.085 71.8462C136.397 71.8868 137.232 71.968 137.954 72.0354ZM74.4894 72.3599C76.613 73.2926 77.8301 75.4698 77.6463 77.9977C77.42 81.0938 75.4235 83.5681 72.5639 84.2983C71.4882 84.5688 69.9167 84.5415 69.0816 84.2304L68.388 83.9872L68.2322 85.2177C68.0908 86.3531 67.7792 89.6389 67.5667 92.4912C67.482 93.5053 67.4253 93.7084 67.1137 94.0056C66.0095 95.0602 64.0278 94.5599 63.2208 93.0188C62.8383 92.302 62.824 92.2208 62.824 89.9634C62.824 85.3797 63.2208 82.5001 64.2541 79.4447C65.5284 75.6858 67.0289 73.3605 68.671 72.6031C70.2139 71.8868 73.1446 71.7788 74.4894 72.3599ZM109.711 72.184C110.858 72.5224 111.665 73.1713 112.189 74.1853C112.528 74.8342 112.585 75.1181 112.585 76.1049C112.585 77.6326 112.373 78.2275 111.495 79.1469C110.008 80.7019 107.701 81.3236 105.974 80.634C105.747 80.5533 105.719 80.634 105.719 81.3375C105.719 82.7027 106.271 83.7034 107.106 83.852C107.616 83.9466 107.984 83.7846 109.074 82.9866C110.193 82.1623 110.589 81.9998 110.971 82.189C111.354 82.3921 111.325 83.2977 110.886 84.1898C110.476 85.0285 109.343 86.1099 108.423 86.5423C107.531 86.9619 105.592 86.9619 104.445 86.5423C100.864 85.2177 99.6741 80.107 101.925 75.6997C102.435 74.6718 104.19 72.9281 105.082 72.5223C106.54 71.8595 108.225 71.7382 109.711 72.184ZM126.402 72.2246C128.866 73.4685 129.658 78.7957 128.072 83.5815C127.195 86.2179 125.963 87.381 124.378 87.0293C123.599 86.8668 123.189 86.5022 122.934 85.718C122.424 84.2171 122.509 82.8112 123.373 78.8765C124.009 75.9156 124.095 75.1587 123.783 75.1587C123.202 75.1587 121.716 77.8763 119.607 82.8246C118.899 84.4875 118.205 86.0693 118.05 86.3397C117.016 88.2732 114.624 88.0161 113.562 85.8667C113.236 85.2311 113.165 84.866 113.123 83.744C113.066 82.5814 113.123 82.0677 113.562 80.0664C114.114 77.5519 114.878 74.861 115.36 73.8202C115.983 72.4411 117.257 71.8189 118.262 72.4277C118.885 72.8062 119.126 73.4279 119.239 74.9828L119.338 76.362L119.834 75.4019C120.499 74.1581 121.773 72.8468 122.877 72.3192C124.024 71.7788 125.44 71.7382 126.402 72.2246ZM147.963 86.1371C149.124 86.475 150.171 87.8541 150.171 89.0301C150.171 89.6117 149.562 90.7609 149.081 91.0854C147.482 92.1668 145.075 91.4232 144.452 89.6657C144.14 88.8002 144.169 88.3272 144.565 87.5163C145.174 86.2585 146.49 85.718 147.963 86.1371ZM121.787 96.1149C122.127 96.3854 121.886 96.5206 121.193 96.426C120.654 96.3581 120.513 96.3854 120.357 96.588C120.017 97.0204 120.131 97.4128 120.669 97.8318C120.952 98.0344 121.433 98.4402 121.745 98.724C122.297 99.211 122.311 99.2516 122.254 99.9273C122.197 100.468 122.098 100.698 121.801 100.941C121.377 101.293 120.555 101.36 119.946 101.09C119.493 100.901 119.451 100.509 119.918 100.631C120.782 100.874 120.952 100.861 121.334 100.576C121.603 100.374 121.716 100.171 121.716 99.8465C121.716 99.2783 121.433 98.9271 120.654 98.4942C119.55 97.8725 119.281 96.9258 120.017 96.2229C120.399 95.8578 120.527 95.8172 121.023 95.885C121.334 95.9257 121.674 96.0337 121.787 96.1149ZM74.6027 97.0883L74.6451 98.2103H75.4235H76.2024L76.2448 97.0883C76.2872 96.0876 76.3158 95.9797 76.5706 95.9797C76.8393 95.9797 76.8393 96.0609 76.8112 98.5754C76.7688 100.793 76.7402 101.185 76.5563 101.185C76.3863 101.185 76.3296 100.928 76.2734 99.9679L76.2024 98.7513H75.4235H74.6451L74.5741 99.9679C74.5174 100.928 74.4613 101.185 74.2912 101.185C74.1073 101.185 74.0787 100.793 74.0363 98.5754C74.0082 96.0609 74.0082 95.9797 74.2769 95.9797C74.5317 95.9797 74.5603 96.0876 74.6027 97.0883ZM86.7492 96.8451V97.7239L87.5138 97.6426C88.2779 97.5614 88.2922 97.5747 88.5751 98.0211C89.0001 98.6973 88.9858 100.103 88.547 100.725C88.1931 101.226 87.4852 101.415 87.0889 101.104C86.9331 100.982 86.8483 100.982 86.6782 101.117C86.551 101.212 86.4377 101.266 86.3953 101.226C86.3529 101.185 86.2819 96.7098 86.3243 96.0743C86.3243 96.0203 86.4234 95.9797 86.5367 95.9797C86.7068 95.9797 86.7492 96.1689 86.7492 96.8451ZM126.869 96.2769C126.912 96.4527 126.954 96.8312 126.954 97.1423V97.6966L127.634 97.6292C128.186 97.5886 128.342 97.6293 128.582 97.8725C128.823 98.1291 128.866 98.3589 128.866 99.3596C128.866 100.441 128.837 100.59 128.525 100.901C128.158 101.28 127.69 101.347 127.209 101.104C127.011 100.996 126.883 100.996 126.77 101.104C126.685 101.185 126.558 101.252 126.501 101.252C126.445 101.252 126.388 100.063 126.388 98.616C126.388 96.4661 126.43 95.9797 126.586 95.9797C126.685 95.9797 126.813 96.1149 126.869 96.2769ZM91.421 96.5607C91.421 96.7906 90.8827 97.2775 90.7698 97.1557C90.6564 97.0477 91.0951 96.3854 91.2795 96.3854C91.3643 96.3854 91.421 96.4661 91.421 96.5607ZM79.7699 97.9671C79.9538 98.2376 80.0248 98.67 80.0672 99.7113C80.1096 101.104 79.9962 101.428 79.6284 101.131C79.5151 101.05 79.3736 101.05 79.2459 101.117C78.8496 101.36 78.1417 101.266 77.9154 100.955C77.2923 100.117 77.9435 98.9539 79.0339 98.9539C79.4727 98.9539 79.5718 98.7919 79.3874 98.3456C79.2459 97.9943 79.2035 97.9805 78.609 98.0483C78.1136 98.1157 77.9721 98.089 77.9721 97.9537C77.9721 97.6966 78.1841 97.6293 78.9205 97.6154C79.4303 97.602 79.5575 97.656 79.7699 97.9671ZM81.5396 97.7506C81.582 97.8725 81.6668 97.8725 81.8936 97.7506C82.2899 97.548 82.9692 97.5614 83.1817 97.7645C83.3232 97.8992 83.4222 97.8992 83.6347 97.7645C84.0734 97.5074 84.8804 97.5614 85.0505 97.8591C85.2201 98.1836 85.2486 101.252 85.0643 101.252C84.7532 101.252 84.6399 100.793 84.5975 99.4814L84.5551 98.0751L84.1725 98.0344C83.5356 97.9671 83.3375 98.4402 83.3655 99.8872C83.3798 100.576 83.3513 101.171 83.2951 101.212C83.0683 101.428 82.9549 100.955 82.8987 99.6707C82.842 98.1157 82.7287 97.8858 82.1198 98.089C81.7235 98.2103 81.7235 98.2242 81.6525 99.6573C81.6101 100.441 81.5396 101.131 81.4829 101.185C81.1857 101.469 81.0866 100.982 81.0866 99.3462C81.0866 97.9265 81.129 97.602 81.2848 97.602C81.3977 97.602 81.511 97.6699 81.5396 97.7506ZM90.2882 99.1431C90.3448 100.36 90.4015 100.644 90.614 100.766C90.7979 100.874 90.9537 100.861 91.2509 100.711C91.6329 100.509 91.6329 100.468 91.6758 99.0351C91.7039 97.7506 91.7463 97.5886 91.9588 97.6292C92.1713 97.6699 92.1994 97.8858 92.2417 99.3462C92.2841 101.05 92.1851 101.442 91.803 101.144C91.6615 101.023 91.5058 101.023 91.1799 101.144C90.5997 101.347 90.0195 101.185 89.8637 100.766C89.7784 100.576 89.7222 99.7787 89.7222 99.0084C89.7222 97.7239 89.7503 97.5886 89.9766 97.6292C90.1891 97.6699 90.2315 97.8858 90.2882 99.1431ZM93.7285 97.7645C93.7852 97.8992 93.8276 97.8992 93.9834 97.7645C94.252 97.5208 95.1014 97.548 95.1014 97.8046C95.1014 97.9398 94.9599 98.0077 94.7051 98.0077C93.9405 98.0077 93.8414 98.2103 93.799 99.7653C93.7709 100.915 93.7142 101.185 93.5441 101.185C93.3746 101.185 93.3322 100.874 93.2893 99.3868C93.2612 97.8992 93.2893 97.602 93.4594 97.602C93.5727 97.602 93.6861 97.6832 93.7285 97.7645ZM97.4375 97.7372C97.508 97.8452 97.5933 97.8319 97.7205 97.7372C98.1311 97.4128 98.2159 97.7506 98.2159 99.8733C98.2159 102.374 98.0601 102.848 97.1827 103.064C96.6163 103.199 95.8093 102.969 95.8093 102.659C95.8093 102.429 96.0075 102.415 96.3757 102.604C97.0412 102.943 97.65 102.402 97.65 101.442C97.65 101.023 97.6214 100.982 97.3808 101.117C96.8854 101.36 96.3047 101.28 95.937 100.901C95.6397 100.59 95.5968 100.441 95.5968 99.4274C95.5968 98.4268 95.6397 98.2643 95.937 97.9537C96.1918 97.6966 96.4324 97.602 96.8144 97.602C97.1117 97.602 97.3951 97.6699 97.4375 97.7372ZM99.6317 98.8731C99.6317 99.5761 99.6884 100.306 99.7732 100.495C99.9289 100.901 100.325 100.955 100.75 100.603C101.005 100.401 101.047 100.198 101.076 99.0217C101.118 97.9265 101.161 97.6699 101.33 97.6699C101.5 97.6699 101.543 97.9671 101.585 99.3462C101.628 101.036 101.529 101.442 101.161 101.144C101.033 101.05 100.892 101.05 100.764 101.117C100.439 101.32 99.6741 101.28 99.4335 101.036C99.3063 100.928 99.2072 100.698 99.2072 100.536C99.1929 99.2243 99.1787 97.7912 99.193 97.6966C99.2072 97.6426 99.3063 97.602 99.4192 97.602C99.5893 97.602 99.6317 97.8319 99.6317 98.8731ZM104.474 97.8318C105.082 98.3589 104.516 99.6434 103.581 99.8326C103.072 99.9411 102.944 100.171 103.171 100.563C103.341 100.887 103.695 100.928 104.232 100.685C104.714 100.482 104.87 100.671 104.459 100.996C104.063 101.306 103.355 101.334 102.93 101.05C102.222 100.576 102.152 98.562 102.817 97.9265C103.227 97.5346 104.077 97.494 104.474 97.8318ZM106.073 97.7372C106.13 97.8319 106.243 97.8319 106.427 97.7372C106.838 97.5346 107.418 97.5747 107.418 97.8046C107.418 97.9265 107.29 98.0077 107.078 98.0077C106.894 98.0077 106.611 98.1157 106.441 98.2376C106.186 98.4535 106.144 98.6566 106.116 99.8326C106.073 100.928 106.031 101.185 105.861 101.185C105.691 101.185 105.648 100.874 105.606 99.3868C105.578 97.8858 105.606 97.602 105.776 97.602C105.889 97.602 106.031 97.6699 106.073 97.7372ZM110.023 97.8992C110.547 98.616 110.037 99.5761 108.99 99.8872L108.409 100.049L108.621 100.441C108.862 100.901 109.301 100.969 109.782 100.644C110.221 100.347 110.391 100.671 109.966 101.009C109.612 101.28 108.961 101.334 108.522 101.104C107.687 100.671 107.616 98.3589 108.451 97.8046C108.919 97.494 109.768 97.5346 110.023 97.8992ZM112.911 97.8992C112.953 98.089 112.854 98.1291 112.345 98.1023C111.792 98.0751 111.736 98.1023 111.693 98.4134C111.665 98.6973 111.764 98.8186 112.217 99.0624C113.222 99.6028 113.519 100.428 112.939 100.982C112.571 101.334 111.679 101.347 111.226 100.996C110.759 100.644 110.985 100.495 111.665 100.711C112.118 100.847 112.259 100.861 112.444 100.711C112.811 100.414 112.699 99.9139 112.203 99.6573C111.155 99.1297 110.787 98.3322 111.325 97.8046C111.651 97.5074 112.84 97.5747 112.911 97.8992ZM117.215 97.8318C117.823 98.3589 117.314 99.5221 116.323 99.8326C115.771 100.009 115.657 100.306 115.997 100.644C116.224 100.861 116.408 100.861 117.158 100.644C117.611 100.509 117.568 100.887 117.115 101.09C116.181 101.496 115.487 101.158 115.204 100.157C114.964 99.3056 115.303 97.8858 115.799 97.6966C116.195 97.548 116.96 97.6154 117.215 97.8318ZM125.128 97.9537C125.397 98.2376 125.468 98.4674 125.51 99.265C125.553 100.117 125.524 100.306 125.227 100.711C124.944 101.104 124.788 101.198 124.307 101.226C123.811 101.266 123.684 101.212 123.358 100.847C123.033 100.482 122.99 100.292 122.99 99.4814C122.99 98.5348 123.231 97.8318 123.585 97.6966C124.095 97.494 124.788 97.6154 125.128 97.9537ZM130.281 97.7372C130.338 97.8319 130.451 97.8319 130.635 97.7372C131.045 97.5346 131.626 97.5747 131.626 97.8046C131.626 97.9398 131.484 98.0077 131.23 98.0077C130.536 98.0077 130.366 98.3322 130.324 99.8326C130.295 100.928 130.238 101.185 130.069 101.185C129.899 101.185 129.856 100.874 129.814 99.3868C129.785 97.8858 129.814 97.602 129.984 97.602C130.097 97.602 130.238 97.6699 130.281 97.7372ZM134.174 97.8725C134.528 98.2103 134.528 98.6294 134.189 99.1703C133.947 99.5354 133.679 99.6974 132.872 99.9545C132.674 100.009 132.645 100.09 132.744 100.333C132.929 100.82 133.24 100.928 133.82 100.725C134.457 100.509 134.642 100.644 134.189 100.996C133.82 101.28 133.169 101.334 132.73 101.104C131.937 100.698 131.824 98.6433 132.56 97.8591C132.9 97.5074 133.806 97.5208 134.174 97.8725ZM135.802 97.7372C135.859 97.8319 135.972 97.8319 136.156 97.7372C136.524 97.548 137.19 97.5614 137.402 97.7645C137.544 97.8992 137.643 97.8992 137.855 97.7645C138.209 97.5614 139.016 97.548 139.242 97.7645C139.455 97.9671 139.483 101.252 139.27 101.252C139.002 101.252 138.874 100.657 138.86 99.4408C138.846 98.7919 138.817 98.1969 138.761 98.1291C138.648 97.9398 138.053 97.9805 137.883 98.1836C137.798 98.2782 137.699 98.9945 137.685 99.7787C137.656 100.915 137.6 101.185 137.43 101.185C137.26 101.185 137.218 100.941 137.19 99.9005C137.133 98.2242 137.076 98.0077 136.68 98.0077C136 98.0077 135.887 98.2376 135.845 99.7653C135.816 100.915 135.76 101.185 135.59 101.185C135.42 101.185 135.378 100.874 135.335 99.3868C135.307 97.8858 135.335 97.602 135.505 97.602C135.618 97.602 135.76 97.6699 135.802 97.7372ZM142.314 97.8725C142.895 98.4808 142.328 99.6301 141.323 99.8733C140.828 100.009 140.715 100.32 141.054 100.644C141.281 100.861 141.465 100.861 142.215 100.644C142.442 100.563 142.526 100.603 142.526 100.752C142.526 101.036 142.088 101.252 141.507 101.252C140.63 101.239 140.205 100.644 140.219 99.4136C140.219 98.6027 140.516 97.8318 140.856 97.6966C141.309 97.5208 142.073 97.6154 142.314 97.8725ZM145.132 97.6832C145.259 97.7239 145.358 97.8591 145.358 97.9671C145.358 98.1157 145.231 98.143 144.721 98.0617C144.197 97.9943 144.07 98.0211 143.999 98.2103C143.857 98.5487 144.084 98.8325 144.763 99.1976C146.335 100.036 145.372 101.807 143.73 101.09C143.277 100.887 143.234 100.509 143.702 100.644C144.523 100.887 144.763 100.874 144.933 100.59C145.16 100.171 144.99 99.8193 144.424 99.5627C143.419 99.103 143.135 98.5348 143.603 97.8992C143.758 97.6832 143.956 97.602 144.367 97.602C144.664 97.602 145.004 97.6426 145.132 97.6832ZM148.26 97.8725C148.472 98.1023 148.529 98.4268 148.572 99.6301C148.628 101.104 148.529 101.442 148.147 101.131C148.034 101.05 147.892 101.05 147.765 101.117C147.368 101.36 146.66 101.266 146.434 100.955C145.811 100.117 146.462 98.9539 147.552 98.9539C147.991 98.9539 148.09 98.7919 147.906 98.3456C147.765 97.9943 147.722 97.9805 147.128 98.0483C146.632 98.1157 146.49 98.089 146.49 97.9537C146.49 97.5208 147.878 97.4668 148.26 97.8725ZM151.275 97.7645C151.587 98.0617 151.459 98.143 150.78 98.1023C150.185 98.0751 150.101 98.1157 150.058 98.3728C150.03 98.562 150.143 98.7513 150.384 98.9132C151.431 99.6028 151.587 99.7787 151.587 100.252C151.587 100.955 151.148 101.306 150.369 101.212C149.676 101.144 149.223 100.887 149.449 100.671C149.549 100.576 149.732 100.59 150.015 100.698C151.134 101.144 151.53 100.09 150.44 99.5488C149.492 99.0891 149.195 98.3862 149.704 97.8452C149.973 97.5614 151.006 97.5074 151.275 97.7645Z" fill="#E69232"/>
<path d="M72.0206 20.0236C71.5538 20.4968 71.4404 20.9024 71.1288 23.1468C70.4209 28.2573 70.0813 32.9759 70.4071 32.9759C71.1574 32.9759 73.04 30.0825 74.0876 27.3109C75.4043 23.8633 74.725 20.2805 72.6718 19.7937C72.4174 19.7397 72.2474 19.7937 72.0206 20.0236Z" fill="#E69232"/>
<path d="M90.269 25.6344C89.8302 25.7155 88.9242 26.6078 88.5559 27.3244C88.3011 27.8246 88.2868 27.9327 88.4568 28.1761C88.7117 28.5411 89.6035 28.6088 90.1842 28.3113C90.8211 27.9868 91.3732 27.0945 91.3732 26.3915C91.3732 25.8912 91.3165 25.7831 91.0049 25.6749C90.8068 25.5938 90.6372 25.5532 90.6229 25.5532C90.6086 25.5667 90.4528 25.6073 90.269 25.6344Z" fill="#E69232"/>
<path d="M119.955 31.4887C119.205 31.8673 118.384 32.8137 118.44 33.2463C118.497 33.733 119.29 33.8006 119.786 33.3545C120.168 33.0165 120.649 32.2053 120.833 31.5969C120.96 31.1372 120.72 31.0966 119.955 31.4887Z" fill="#E69232"/>
<path d="M71.0579 52.188C70.4353 52.7156 69.8408 53.9188 69.4445 55.4059C68.9914 57.1229 69.0619 57.9883 69.6426 57.9883C70.5625 57.9883 72.2474 54.7164 72.2612 52.9048C72.2612 51.6877 71.9078 51.4717 71.0579 52.188Z" fill="#E69232"/>
<path d="M117.124 52.5123C116.36 54.0401 116.147 55.2978 116.374 56.663C116.558 57.6637 117.181 57.366 118.002 55.9195C118.427 55.1626 118.483 54.9734 118.483 53.9321C118.483 52.9587 118.427 52.7016 118.143 52.2012C117.945 51.8906 117.733 51.6335 117.676 51.6335C117.605 51.6335 117.351 52.0259 117.124 52.5123Z" fill="#E69232"/>
<path d="M148.127 56.6092C146.825 57.4067 146.273 58.5426 147.094 58.7452C147.745 58.9077 148.609 58.0695 149.048 56.839C149.246 56.2713 149.246 56.2307 149.005 56.2307C148.878 56.2307 148.481 56.4061 148.127 56.6092Z" fill="#E69232"/>
<path d="M85.8377 51.1875C85.5262 51.4578 85.1018 51.9854 84.9174 52.3505C84.5777 52.9722 84.5777 53.0262 84.7902 53.256C85.4271 53.9322 86.6166 53.6077 87.2816 52.5937C87.7208 51.9448 87.8199 51.1335 87.5222 50.8496C87.1687 50.5116 86.4465 50.6603 85.8377 51.1875Z" fill="#E69232"/>
<path d="M137.41 77.6193C136.731 79.2149 136.618 79.634 136.632 80.6342C136.646 81.6754 136.845 82.3244 137.156 82.3244C137.453 82.3244 138.076 81.5536 138.487 80.7154C138.996 79.6608 138.996 78.2955 138.515 77.3895C138.317 77.0244 138.09 76.7133 137.991 76.6866C137.906 76.6593 137.652 77.0784 137.41 77.6193Z" fill="#E69232"/>
<path d="M71.398 75.7402C70.9169 76.0508 70.0956 77.3759 69.9118 78.1601C69.8408 78.4979 69.8689 78.5385 70.1661 78.5385C71.6953 78.5385 73.394 77.2679 73.394 76.1454C73.394 75.3885 72.2898 75.1586 71.398 75.7402Z" fill="#E69232"/>
<path d="M108.956 75.9697C108.559 76.1996 107.37 77.7273 107.37 77.9978C107.37 78.0384 107.526 78.2276 107.724 78.4035C108.687 79.2555 110.626 77.8625 110.513 76.3893C110.457 75.6725 109.791 75.4833 108.956 75.9697Z" fill="#E69232"/>
<path d="M87.6499 98.251C87.2816 98.6294 87.3102 100.212 87.6923 100.577C88.0605 100.928 88.4712 100.915 88.7398 100.55C88.9947 100.198 89.0514 98.6834 88.8251 98.2644C88.6269 97.9265 87.9614 97.9265 87.6499 98.251Z" fill="#E69232"/>
<path d="M127.77 98.1969C127.657 98.3183 127.614 98.8052 127.643 99.5082C127.685 100.617 127.699 100.644 128.096 100.779C128.435 100.887 128.534 100.861 128.761 100.59C129.058 100.238 129.143 98.7379 128.888 98.2643C128.704 97.9537 128.011 97.9131 127.77 98.1969Z" fill="#E69232"/>
<path d="M79.1414 99.5628C78.8161 99.8873 78.8442 100.671 79.1981 100.779C79.7788 100.955 80.3023 100.36 80.1609 99.6708C80.1042 99.3464 79.4392 99.2785 79.1414 99.5628Z" fill="#E69232"/>
<path d="M96.9934 98.2509C96.6675 98.5887 96.6676 100.117 96.9791 100.549C97.234 100.914 97.7575 100.941 98.069 100.603C98.4229 100.238 98.4091 98.5347 98.0552 98.2375C97.7151 97.9398 97.2763 97.9537 96.9934 98.2509Z" fill="#E69232"/>
<path d="M103.859 98.1836C103.647 98.4268 103.491 99.157 103.59 99.4275C103.675 99.6028 103.732 99.6028 104.185 99.4002C104.681 99.1704 104.893 98.8053 104.793 98.3188C104.737 98.0211 104.086 97.9131 103.859 98.1836Z" fill="#E69232"/>
<path d="M109.38 98.1836C109.168 98.4268 109.012 99.157 109.111 99.4275C109.197 99.6028 109.253 99.6028 109.706 99.4002C110.202 99.1704 110.414 98.8053 110.315 98.3188C110.258 98.0211 109.607 97.9131 109.38 98.1836Z" fill="#E69232"/>
<path d="M116.6 98.1696C116.388 98.4267 116.232 99.4408 116.388 99.5354C116.459 99.576 116.714 99.522 116.969 99.4001C117.422 99.1836 117.634 98.7918 117.535 98.3187C117.478 98.021 116.827 97.913 116.6 98.1696Z" fill="#E69232"/>
<path d="M124.344 98.3049C124.075 98.7784 124.146 100.279 124.443 100.59C125.052 101.239 125.632 100.671 125.632 99.4274C125.632 98.8998 125.547 98.4941 125.406 98.3049C125.123 97.913 124.557 97.913 124.344 98.3049Z" fill="#E69232"/>
<path d="M133.56 98.2105C133.348 98.4676 133.206 99.441 133.376 99.5356C133.447 99.5762 133.716 99.495 133.956 99.3598C134.409 99.0893 134.65 98.589 134.494 98.2105C134.395 97.9539 133.786 97.9539 133.56 98.2105Z" fill="#E69232"/>
<path d="M141.658 98.2376C141.46 98.6027 141.318 99.3328 141.403 99.4815C141.559 99.7113 142.337 99.3462 142.564 98.9405C142.72 98.6433 142.733 98.4808 142.62 98.2782C142.436 97.9398 141.827 97.9265 141.658 98.2376Z" fill="#E69232"/>
<path d="M147.66 99.5761C147.533 99.6841 147.434 99.9952 147.434 100.238C147.434 100.793 147.844 100.982 148.354 100.657C148.637 100.482 148.708 100.32 148.708 99.9006C148.708 99.3869 148.679 99.3596 148.297 99.3596C148.071 99.3596 147.773 99.4542 147.66 99.5761Z" fill="#E69232"/>
</g>
<defs>
<clipPath id="clip0_22:342">
<rect width="210" height="199" fill="white"/>
</clipPath>
</defs>
</svg>
