<svg width="478" height="455" viewBox="0 0 478 455" fill="none" xmlns="http://www.w3.org/2000/svg">
<g clip-path="url(#clip0_9:33)">
<path d="M387.113 19.9871H107.718V262.184H387.113V19.9871Z" fill="white"/>
<path d="M118.832 0.309778C108.038 1.51537 100.981 6.52325 97.855 15.1788C95.986 20.3722 95.8571 22.1961 96.0827 36.7561C96.2115 43.9896 96.4372 55.1182 96.5983 61.4863C96.7594 67.8543 97.1138 82.1051 97.4038 93.1719C97.6617 104.208 97.9516 115.275 98.0483 117.747C98.1449 120.221 98.435 130.638 98.6927 140.932C98.9506 151.226 99.305 164.488 99.4984 170.454C99.6917 176.389 100.046 188.352 100.304 197.04C101.851 248.292 102.012 251.538 103.011 255.341C105.46 264.552 111.84 270.859 121.088 273.27C123.472 273.919 124.568 273.982 129.466 273.982C132.56 273.982 139.229 273.796 144.289 273.61C149.348 273.394 164.332 273.24 177.834 273.24C200.808 273.24 202.452 273.27 206.061 273.857C219.08 275.991 229.971 282.729 237.156 293.177C239.573 296.64 240.637 298.649 242.634 303.472C245.599 310.706 245.857 310.767 252.108 305.451C271.184 289.221 288.778 279.854 310.4 274.475C323.966 271.075 334.729 270.179 361.153 270.148C374.976 270.148 377.619 269.931 381.937 268.54C389.638 266.068 395.244 260.689 397.823 253.301C398.177 252.28 398.692 250.271 398.983 248.818C399.563 245.82 400.562 227.951 401.271 208.322C401.56 200.934 402.044 187.147 402.399 177.718C402.753 168.29 403.333 152.834 403.688 143.405C405.041 107.392 405.653 90.7299 406.265 73.5423C406.587 63.7739 407.071 53.2017 407.264 50.0485C407.78 42.2894 407.522 30.2644 406.749 27.1731C404.59 18.2701 397.565 11.4075 388.382 9.2745C384.224 8.3162 370.079 7.6052 341.174 6.92512C309.08 6.18321 285.879 5.56495 281.561 5.37949C279.337 5.28675 269.347 4.91579 259.326 4.60666C249.305 4.26662 233.451 3.71019 224.042 3.37015C214.665 3.03011 200.873 2.56641 193.43 2.2882C185.986 2.04089 175.997 1.70085 171.196 1.51537C159.047 1.05168 123.021 -0.0302642 122.055 0.000648735C121.604 0.0315615 120.153 0.155213 118.832 0.309778ZM226.652 36.1687C227.812 36.5087 229.165 37.807 229.649 39.0126C231.002 42.444 228.005 46.6481 224.171 46.6481C220.014 46.6481 217.565 41.702 219.917 38.0544C221.432 35.6431 223.236 35.1485 226.652 36.1687ZM168.972 37.0961C171.969 38.178 175.448 40.8983 177.543 43.8041C179.091 45.968 180.991 50.1413 181.894 53.3871C182.667 56.0765 182.763 56.973 182.763 61.95C182.796 66.896 182.699 67.7925 182.055 69.9873C179.187 79.4775 170.358 87.9167 159.756 91.3171C156.888 92.2445 152.731 92.801 150.798 92.5228C144.74 91.6571 143.194 82.878 146.255 66.4323C148.542 54.1909 152.409 43.0004 155.535 39.7855C157.017 38.2089 159.434 36.8487 161.432 36.4468C163.365 36.0759 166.942 36.385 168.972 37.0961ZM256.684 49.183C258.102 50.0176 258.811 51.4087 258.811 53.4489C258.811 55.5819 257.973 57.4058 254.525 62.5991C253.075 64.763 252.011 66.6487 252.141 66.8343C252.27 67.0506 253.237 68.318 254.267 69.6782C257.038 73.2332 258.682 76.6336 258.682 78.7047C258.682 80.5595 258.199 81.6414 256.845 82.878C255.105 84.4545 252.495 84.8254 250.369 83.7745C249.014 83.1253 246.663 80.8377 245.309 78.8593C244.826 78.1484 244.342 77.561 244.213 77.561C244.117 77.561 243.44 78.5193 242.731 79.663C240.959 82.5071 238.575 84.8254 236.867 85.2891C233.097 86.3712 229.681 83.589 230.1 79.7867C230.325 77.8391 232.195 74.0987 235.352 69.4C236.48 67.6998 237.415 66.1541 237.415 65.9686C237.415 65.7523 236.641 64.0211 235.674 62.0736C233.515 57.7149 232.259 54.3454 232.259 53.0161C232.259 51.7178 233.257 50.4813 234.483 50.2031C236.094 49.863 237.608 50.7904 240.927 54.0981L244.02 57.1894L245.599 54.9946C250.014 48.812 253.172 47.1737 256.684 49.183ZM206.931 50.6978C209.863 51.7796 211.636 53.7581 212.473 56.8802C213.118 59.2296 212.924 61.9191 212.022 63.9593C211.185 65.845 208.736 68.1017 206.222 69.2763C203.676 70.4819 199.842 70.8528 198.167 70.0182L197.136 69.4927V71.5948C197.167 75.088 198.682 77.2519 201.099 77.2519C201.55 77.2519 203.065 76.4171 204.707 75.2425C208.317 72.6458 209.703 72.6149 209.703 75.088C209.703 77.6847 206.48 81.8578 203.354 83.2799C201.388 84.1763 197.651 84.269 194.912 83.4653C190.82 82.2597 187.501 78.4884 186.308 73.666C185.664 71.0693 185.857 65.7213 186.662 62.8774C188.016 58.2404 191.303 53.7581 194.944 51.656C198.327 49.7394 203.225 49.3376 206.931 50.6978ZM225.524 50.4504C228.456 52.3361 228.876 54.3763 228.843 65.6595C228.811 74.1606 228.779 74.346 227.941 76.8808C225.975 82.6925 221.27 84.5163 217.597 80.8377C216.856 80.1267 216.018 78.8284 215.663 77.8701C213.892 73.2332 215.954 57.1585 218.918 52.2743C220.433 49.7704 223.269 48.9974 225.524 50.4504ZM279.692 50.7595C282.753 52.1197 284.719 54.5928 285.943 58.5496C287.006 62.1354 286.104 71.6875 284.331 75.5208C280.207 84.3927 268.445 88.906 262.323 83.929C260.003 82.0434 259.359 78.6119 260.615 74.686C262.291 69.4617 266.803 65.6286 272.119 64.8867C273.312 64.7321 274.439 64.5776 274.601 64.5776C274.761 64.5776 274.794 63.3719 274.729 61.8882C274.601 59.446 274.503 59.1678 273.698 58.4878C272.055 57.1276 269.347 57.9004 267.963 60.0952C267.189 61.3626 266.512 61.7954 265.191 61.7954C263.742 61.7954 263.387 61.1772 263.58 58.8587C264.031 53.4798 269.347 49.523 275.664 49.863C277.242 49.9558 278.564 50.2341 279.692 50.7595ZM170.165 93.852C171.26 94.3775 172.904 96.5414 173.741 98.5199C176.705 105.723 175.899 118.212 171.776 128.877C169.23 135.523 165.911 139.449 161.046 141.674C159.209 142.509 158.596 142.632 156.212 142.632C153.956 142.632 153.215 142.478 151.925 141.86C149.928 140.902 147.35 138.274 146.351 136.172C145.385 134.163 144.611 130.421 144.611 127.918C144.611 121.086 149.606 112.585 155.115 109.988C157.983 108.628 161.046 108.567 163.59 109.772L165.331 110.576L165.105 107.454C164.976 105.723 164.654 102.848 164.429 101.086C163.785 96.8197 163.816 96.3869 164.687 95.1503C166.04 93.1719 167.877 92.7392 170.165 93.852ZM294.289 93.9447C295.61 94.7175 296.673 96.6032 296.706 98.118C296.706 99.4782 295.32 102.106 294.16 102.879C291.711 104.548 289.165 104.362 287.265 102.322C285.202 100.127 284.977 97.9325 286.588 95.274C287.78 93.2647 288.456 92.9556 290.97 93.1101C292.452 93.2029 293.451 93.4501 294.289 93.9447ZM319.101 107.021C321.969 107.825 324.192 111.194 323.097 113.08C322.613 113.883 322.42 114.007 319.165 115.429C317.715 116.078 317.135 116.542 316.491 117.624C315.202 119.726 315.492 120.747 318.328 124.425C319.648 126.094 321.163 128.382 321.678 129.495C322.549 131.319 322.646 131.814 322.646 134.749C322.646 137.779 322.582 138.151 321.614 140.098C319.714 143.962 316.136 146.837 312.012 147.888C306.308 149.309 300.379 147.579 298.22 143.869C297.415 142.478 297.35 142.107 297.447 139.851C297.673 134.997 300.734 131.565 305.213 131.133C308.049 130.854 308.596 132.153 307.339 136.048C306.985 137.1 306.695 138.242 306.695 138.521C306.695 139.356 307.758 139.202 308.693 138.212C310.014 136.883 310.562 135.523 310.562 133.698C310.562 131.875 310.497 131.751 307.339 128.536C303.247 124.363 301.539 121.21 301.539 117.81C301.539 115.089 302.474 113.203 304.955 110.854C308.983 107.052 314.203 105.661 319.101 107.021ZM244.246 107.917C246.244 108.968 247.501 110.854 247.661 113.049C247.79 114.749 247.726 114.904 246.921 115.522C246.405 115.924 245.567 116.202 244.891 116.202C241.99 116.202 239.315 117.871 237.802 120.654C236.996 122.107 236.931 122.54 236.931 125.693C236.931 128.721 237.027 129.247 237.608 130.021C238.446 131.102 239.67 131.256 241.958 130.607C244.117 129.989 244.375 129.989 245.148 130.731C247.179 132.679 243.956 137.965 239.928 139.263C237.64 139.974 233.677 139.727 231.163 138.644C229.069 137.749 226.233 135.182 225.202 133.266C222.592 128.382 223.236 120.993 226.781 115.244C230.293 109.556 234.965 106.743 240.379 107.052C242.183 107.145 243.247 107.361 244.246 107.917ZM268.059 107.485C272.377 107.886 274.697 109.494 276.695 113.574C278.048 116.295 278.499 118.459 278.435 121.921C278.339 127.98 275.503 134.224 271.056 138.119C266.448 142.169 260.745 143.22 255.943 140.963C249.756 138.026 247.597 130.329 250.175 120.561C251.882 114.131 255.814 108.907 260.197 107.361C261.421 106.928 261.711 106.928 268.059 107.485ZM292.484 107.855C295.256 109.741 296.126 115.336 295.481 127.021C295.127 133.575 294.514 135.739 292.42 138.026C289.133 141.581 284.202 140.128 282.302 134.997C281.529 132.926 281.4 128.01 282.012 123.312C283.269 113.729 285.17 108.505 287.78 107.361C289.133 106.774 291.26 106.99 292.484 107.855ZM343.913 108.01C344.815 108.381 346.072 109.123 346.685 109.648C349.069 111.627 350.841 116.171 350.841 120.221C350.841 123.374 349.939 129.618 349.198 131.565C345.428 141.365 332.441 146.713 326.416 140.963C324.966 139.541 324.353 138.026 324.353 135.832C324.353 129 330.25 122.601 336.984 122.137L339.241 121.982V120.252C339.208 116.851 338.564 115.522 336.695 115.058C335.502 114.78 333.279 115.986 332.248 117.469C330.959 119.324 329.573 119.757 328.316 118.644C327.64 118.057 327.608 117.779 327.769 116.388C328.575 110.607 334.052 106.619 340.529 107.145C341.496 107.237 343.042 107.608 343.913 108.01ZM198.907 108.134C202.001 109.463 203.612 111.534 204.256 115.089C204.933 118.922 203.709 122.477 200.906 124.672C197.361 127.454 192.591 128.505 189.337 127.177C188.821 126.991 188.757 127.177 188.757 128.753C188.757 131.256 189.241 132.709 190.401 133.637C192.076 134.997 193.462 134.719 196.169 132.555C198.231 130.947 199.906 130.205 200.615 130.638C201.357 131.07 201.324 133.607 200.519 135.151C199.584 137.037 196.942 139.572 195.008 140.5C193.397 141.242 193.042 141.303 189.981 141.179C187.146 141.056 186.405 140.932 184.923 140.19C180.153 137.81 177.479 132.895 177.479 126.403C177.479 117.593 182.441 109.927 189.563 107.639C191.625 106.99 196.91 107.268 198.907 108.134ZM364.987 132.802C365.438 133.142 366.147 134.007 366.565 134.749C369.208 139.727 363.699 150.206 358.381 150.206C356.512 150.206 355.997 149.958 355.513 148.877C355.029 147.764 355.417 146.62 356.351 146.342C356.931 146.156 359.219 143.9 359.219 143.467C359.219 143.344 358.8 142.972 358.252 142.695C355.224 140.963 354.611 135.677 357.189 133.451C358.994 131.875 363.15 131.535 364.987 132.802ZM216.372 147.115C219.047 148.66 219.337 152.525 217.629 163.653C217.018 167.734 216.405 171.567 216.276 172.155C216.05 173.206 216.083 173.206 218.982 170.578C220.626 169.094 222.463 167.672 223.043 167.394C225.62 166.22 228.07 167.208 228.07 169.434C228.07 171.32 227.328 172.464 224.171 175.462C222.559 176.946 220.69 178.831 219.982 179.636L218.693 181.088L221.786 185.571C225.782 191.382 228.392 196.173 228.392 197.75C228.392 199.233 227.393 200.223 225.491 200.626C222.752 201.212 220.079 199.728 215.212 194.906L212.506 192.247L211.12 194.937C209.412 198.338 207.866 200.068 205.997 200.78C201.905 202.263 198.489 199.759 197.425 194.442C196.459 189.466 198.263 179.759 202.807 165.786C207.866 150.051 211.926 144.488 216.372 147.115ZM343.301 147.084C345.395 148.321 346.201 151.876 345.879 158.707C345.588 164.983 344.557 174.596 342.817 186.807C342.173 191.352 339.756 193.608 335.793 193.391C333.312 193.268 331.507 192.186 330.089 189.991C328.8 187.982 328.833 186.591 330.508 177.41C333.923 158.398 334.891 154.225 336.727 150.453C338.467 146.806 340.787 145.63 343.301 147.084ZM190.98 150.979C195.008 152.958 194.654 158.614 190.336 160.716C187.339 162.2 184.149 160.655 182.989 157.223C182.248 155.09 183.44 151.968 185.502 150.7C186.502 150.083 189.498 150.237 190.98 150.979ZM189.563 165.076C190.787 165.755 191.786 167.455 192.302 169.681C193.333 174.194 192.946 188.415 191.689 191.752C190.336 195.463 188.306 197.194 185.309 197.194C183.021 197.194 181.41 196.019 179.993 193.268L178.929 191.166L178.962 186.066C179.026 176.915 181.217 167.92 184.02 165.415C185.502 164.086 187.63 163.932 189.563 165.076ZM314.01 164.704C316.265 164.89 317.328 165.168 318.392 165.755C322.355 167.981 324.74 172.896 324.74 178.801C324.74 185.91 320.776 193.515 315.202 197.04C312.495 198.77 309.982 199.45 306.823 199.296C302.409 199.079 299.057 196.947 297.06 193.113C295.674 190.485 295.32 188.352 295.513 184.21C295.836 177.873 297.704 172.68 301.152 168.569C303.762 165.477 306.823 163.962 309.756 164.271C310.466 164.364 312.366 164.55 314.01 164.704ZM169.552 165.446C174.386 167.579 177.156 172.557 176.738 178.336C176.223 185.415 171.678 191.073 165.169 192.742C162.721 193.361 159.144 193.298 157.243 192.587L155.664 192.031L155.31 194.845C154.988 197.441 154.278 204.953 153.795 211.475C153.602 213.793 153.473 214.258 152.764 214.937C150.25 217.349 145.74 216.205 143.903 212.681C143.032 211.042 142.999 210.857 142.999 205.695C142.999 195.215 143.903 188.631 146.255 181.645C149.155 173.05 152.571 167.734 156.308 166.002C159.82 164.364 166.491 164.117 169.552 165.446ZM249.724 165.044C252.334 165.817 254.17 167.301 255.363 169.62C256.136 171.103 256.265 171.752 256.265 174.009C256.265 177.502 255.782 178.862 253.784 180.964C250.4 184.519 245.148 185.941 241.217 184.364C240.701 184.18 240.637 184.364 240.637 185.973C240.637 189.094 241.894 191.382 243.795 191.722C244.955 191.938 245.793 191.568 248.274 189.743C250.82 187.858 251.722 187.487 252.592 187.92C253.462 188.384 253.397 190.454 252.399 192.494C251.464 194.412 248.887 196.884 246.792 197.873C244.762 198.833 240.346 198.833 237.737 197.873C229.585 194.845 226.877 183.159 232.001 173.082C233.161 170.732 237.156 166.745 239.187 165.817C242.505 164.302 246.341 164.024 249.724 165.044ZM287.716 165.137C293.323 167.981 295.127 180.161 291.517 191.103C289.52 197.131 286.716 199.791 283.107 198.987C281.336 198.615 280.401 197.781 279.821 195.989C278.661 192.557 278.854 189.342 280.819 180.346C282.269 173.576 282.463 171.845 281.754 171.845C280.432 171.845 277.049 178.059 272.248 189.373C270.637 193.175 269.058 196.792 268.703 197.41C266.352 201.831 260.905 201.243 258.489 196.328C257.747 194.875 257.586 194.04 257.489 191.475C257.36 188.817 257.489 187.642 258.489 183.066C259.746 177.317 261.485 171.165 262.581 168.785C263.999 165.632 266.899 164.209 269.187 165.601C270.604 166.466 271.153 167.888 271.41 171.443L271.635 174.596L272.764 172.401C274.278 169.557 277.178 166.559 279.692 165.353C282.302 164.117 285.524 164.024 287.716 165.137ZM336.791 196.947C339.434 197.719 341.818 200.872 341.818 203.561C341.818 204.891 340.433 207.519 339.337 208.261C335.696 210.733 330.218 209.033 328.8 205.014C328.091 203.036 328.156 201.954 329.058 200.1C330.444 197.224 333.44 195.989 336.791 196.947ZM277.211 219.76C277.984 220.379 277.436 220.688 275.858 220.472C274.632 220.316 274.31 220.379 273.956 220.842C273.183 221.831 273.441 222.728 274.665 223.686C275.309 224.149 276.405 225.077 277.114 225.726C278.371 226.839 278.402 226.932 278.273 228.477C278.144 229.714 277.919 230.239 277.242 230.795C276.276 231.6 274.407 231.754 273.021 231.136C271.99 230.704 271.893 229.807 272.957 230.085C274.923 230.641 275.309 230.611 276.18 229.961C276.791 229.497 277.049 229.034 277.049 228.292C277.049 226.993 276.405 226.19 274.632 225.2C272.119 223.779 271.507 221.614 273.183 220.007C274.052 219.172 274.343 219.079 275.471 219.235C276.18 219.328 276.953 219.574 277.211 219.76ZM169.81 221.986L169.907 224.551H171.678H173.451L173.548 221.986C173.644 219.698 173.709 219.451 174.289 219.451C174.901 219.451 174.901 219.637 174.837 225.386C174.74 230.456 174.675 231.353 174.257 231.353C173.87 231.353 173.741 230.765 173.613 228.57L173.451 225.788H171.678H169.907L169.745 228.57C169.616 230.765 169.488 231.353 169.101 231.353C168.682 231.353 168.617 230.456 168.521 225.386C168.457 219.637 168.457 219.451 169.068 219.451C169.648 219.451 169.714 219.698 169.81 221.986ZM197.458 221.43V223.439L199.198 223.253C200.937 223.067 200.97 223.098 201.614 224.119C202.581 225.665 202.549 228.879 201.55 230.302C200.744 231.446 199.133 231.878 198.231 231.167C197.876 230.888 197.683 230.888 197.296 231.198C197.007 231.414 196.749 231.537 196.652 231.446C196.556 231.353 196.394 221.121 196.491 219.667C196.491 219.544 196.716 219.451 196.974 219.451C197.361 219.451 197.458 219.884 197.458 221.43ZM288.778 220.131C288.876 220.533 288.972 221.398 288.972 222.109V223.377L290.519 223.223C291.775 223.13 292.13 223.223 292.677 223.779C293.225 224.365 293.323 224.891 293.323 227.179C293.323 229.653 293.258 229.992 292.548 230.704C291.711 231.569 290.648 231.723 289.552 231.167C289.101 230.92 288.811 230.92 288.553 231.167C288.36 231.353 288.07 231.507 287.941 231.507C287.812 231.507 287.683 228.786 287.683 225.479C287.683 220.563 287.78 219.451 288.134 219.451C288.36 219.451 288.65 219.76 288.778 220.131ZM208.092 220.78C208.092 221.305 206.866 222.418 206.609 222.14C206.351 221.893 207.35 220.379 207.77 220.379C207.963 220.379 208.092 220.563 208.092 220.78ZM181.572 223.995C181.99 224.614 182.152 225.602 182.248 227.983C182.345 231.167 182.087 231.909 181.25 231.228C180.991 231.044 180.669 231.044 180.379 231.198C179.477 231.754 177.865 231.537 177.35 230.827C175.932 228.911 177.414 226.251 179.896 226.251C180.895 226.251 181.12 225.881 180.701 224.86C180.379 224.057 180.282 224.026 178.929 224.181C177.801 224.335 177.479 224.274 177.479 223.965C177.479 223.377 177.962 223.223 179.638 223.191C180.798 223.16 181.088 223.284 181.572 223.995ZM185.6 223.5C185.696 223.779 185.889 223.779 186.405 223.5C187.308 223.037 188.854 223.067 189.337 223.532C189.659 223.84 189.885 223.84 190.369 223.532C191.367 222.944 193.204 223.067 193.591 223.748C193.977 224.49 194.042 231.507 193.623 231.507C192.915 231.507 192.656 230.456 192.56 227.458L192.463 224.242L191.593 224.149C190.143 223.995 189.692 225.077 189.756 228.385C189.788 229.961 189.723 231.321 189.595 231.414C189.079 231.909 188.821 230.827 188.693 227.89C188.564 224.335 188.306 223.809 186.92 224.274C186.018 224.551 186.018 224.583 185.857 227.86C185.76 229.653 185.6 231.228 185.471 231.353C184.794 232.002 184.569 230.888 184.569 227.148C184.569 223.902 184.665 223.16 185.02 223.16C185.277 223.16 185.535 223.316 185.6 223.5ZM205.513 226.684C205.642 229.467 205.771 230.116 206.255 230.395C206.673 230.641 207.028 230.611 207.704 230.27C208.574 229.807 208.574 229.714 208.672 226.437C208.736 223.5 208.832 223.13 209.316 223.223C209.799 223.316 209.863 223.809 209.96 227.148C210.056 231.044 209.831 231.939 208.961 231.26C208.639 230.981 208.285 230.981 207.543 231.26C206.222 231.723 204.902 231.353 204.547 230.395C204.353 229.961 204.225 228.137 204.225 226.376C204.225 223.439 204.289 223.13 204.804 223.223C205.288 223.316 205.384 223.809 205.513 226.684ZM213.344 223.532C213.473 223.84 213.57 223.84 213.924 223.532C214.536 222.975 216.469 223.037 216.469 223.624C216.469 223.933 216.147 224.088 215.567 224.088C213.826 224.088 213.601 224.551 213.504 228.107C213.44 230.734 213.311 231.353 212.924 231.353C212.538 231.353 212.442 230.641 212.344 227.241C212.28 223.84 212.344 223.16 212.731 223.16C212.989 223.16 213.247 223.346 213.344 223.532ZM221.786 223.47C221.947 223.716 222.141 223.686 222.43 223.47C223.365 222.728 223.558 223.5 223.558 228.353C223.558 234.072 223.204 235.155 221.206 235.649C219.917 235.958 218.08 235.432 218.08 234.722C218.08 234.197 218.531 234.165 219.369 234.598C220.884 235.371 222.27 234.134 222.27 231.939C222.27 230.981 222.205 230.888 221.657 231.198C220.53 231.754 219.208 231.569 218.371 230.704C217.694 229.992 217.597 229.653 217.597 227.334C217.597 225.046 217.694 224.675 218.371 223.965C218.951 223.377 219.498 223.16 220.368 223.16C221.045 223.16 221.69 223.316 221.786 223.47ZM226.781 226.067C226.781 227.674 226.91 229.343 227.103 229.776C227.457 230.704 228.359 230.827 229.327 230.023C229.907 229.56 230.003 229.095 230.067 226.407C230.164 223.902 230.261 223.316 230.647 223.316C231.034 223.316 231.131 223.995 231.227 227.148C231.324 231.012 231.098 231.939 230.261 231.26C229.971 231.044 229.649 231.044 229.359 231.198C228.618 231.662 226.877 231.569 226.33 231.012C226.04 230.765 225.815 230.239 225.815 229.869C225.782 226.87 225.75 223.593 225.782 223.377C225.815 223.253 226.04 223.16 226.297 223.16C226.684 223.16 226.781 223.686 226.781 226.067ZM237.802 223.686C239.187 224.891 237.898 227.828 235.771 228.261C234.612 228.509 234.321 229.034 234.837 229.93C235.223 230.672 236.029 230.765 237.253 230.209C238.349 229.744 238.704 230.178 237.769 230.92C236.867 231.63 235.256 231.693 234.288 231.044C232.677 229.961 232.517 225.355 234.031 223.902C234.965 223.006 236.899 222.913 237.802 223.686ZM241.443 223.47C241.572 223.686 241.829 223.686 242.248 223.47C243.183 223.006 244.504 223.098 244.504 223.624C244.504 223.902 244.213 224.088 243.731 224.088C243.311 224.088 242.667 224.335 242.28 224.614C241.7 225.107 241.603 225.572 241.539 228.261C241.443 230.765 241.346 231.353 240.959 231.353C240.572 231.353 240.476 230.641 240.379 227.241C240.315 223.809 240.379 223.16 240.766 223.16C241.023 223.16 241.346 223.316 241.443 223.47ZM250.433 223.84C251.626 225.479 250.465 227.674 248.081 228.385L246.759 228.756L247.243 229.653C247.79 230.704 248.789 230.858 249.885 230.116C250.884 229.436 251.271 230.178 250.304 230.951C249.498 231.569 248.016 231.693 247.017 231.167C245.116 230.178 244.955 224.891 246.856 223.624C247.919 222.913 249.853 223.006 250.433 223.84ZM257.007 223.84C257.103 224.274 256.878 224.365 255.718 224.304C254.461 224.242 254.332 224.304 254.235 225.016C254.17 225.665 254.396 225.942 255.427 226.499C257.715 227.735 258.392 229.621 257.071 230.888C256.233 231.693 254.203 231.723 253.172 230.92C252.108 230.116 252.624 229.776 254.17 230.27C255.202 230.579 255.524 230.611 255.943 230.27C256.78 229.59 256.523 228.446 255.396 227.86C253.01 226.653 252.173 224.83 253.397 223.624C254.139 222.944 256.845 223.098 257.007 223.84ZM266.803 223.686C268.188 224.891 267.028 227.55 264.773 228.261C263.516 228.663 263.258 229.343 264.031 230.116C264.547 230.611 264.966 230.611 266.674 230.116C267.705 229.807 267.608 230.672 266.577 231.136C264.45 232.063 262.871 231.29 262.227 229.002C261.679 227.055 262.452 223.809 263.58 223.377C264.482 223.037 266.222 223.191 266.803 223.686ZM284.815 223.965C285.428 224.614 285.588 225.139 285.685 226.963C285.782 228.911 285.717 229.343 285.041 230.27C284.397 231.167 284.042 231.383 282.946 231.446C281.818 231.537 281.529 231.414 280.787 230.579C280.046 229.744 279.95 229.312 279.95 227.458C279.95 225.293 280.497 223.686 281.303 223.377C282.463 222.913 284.042 223.191 284.815 223.965ZM296.544 223.47C296.673 223.686 296.931 223.686 297.35 223.47C298.284 223.006 299.606 223.098 299.606 223.624C299.606 223.933 299.283 224.088 298.704 224.088C297.124 224.088 296.738 224.83 296.642 228.261C296.577 230.765 296.448 231.353 296.062 231.353C295.674 231.353 295.578 230.641 295.481 227.241C295.416 223.809 295.481 223.16 295.867 223.16C296.126 223.16 296.448 223.316 296.544 223.47ZM305.406 223.779C306.212 224.551 306.212 225.509 305.439 226.746C304.89 227.581 304.278 227.951 302.442 228.539C301.991 228.663 301.925 228.848 302.151 229.405C302.571 230.518 303.279 230.765 304.6 230.302C306.05 229.807 306.47 230.116 305.439 230.92C304.6 231.569 303.118 231.693 302.12 231.167C300.314 230.239 300.057 225.541 301.732 223.748C302.506 222.944 304.568 222.975 305.406 223.779ZM309.111 223.47C309.24 223.686 309.498 223.686 309.917 223.47C310.755 223.037 312.27 223.067 312.753 223.532C313.075 223.84 313.301 223.84 313.785 223.532C314.589 223.067 316.426 223.037 316.942 223.532C317.426 223.995 317.49 231.507 317.006 231.507C316.395 231.507 316.104 230.146 316.071 227.365C316.04 225.881 315.975 224.521 315.846 224.365C315.589 223.933 314.236 224.026 313.849 224.49C313.656 224.706 313.43 226.344 313.397 228.137C313.332 230.734 313.204 231.353 312.817 231.353C312.43 231.353 312.334 230.795 312.27 228.416C312.141 224.583 312.012 224.088 311.11 224.088C309.562 224.088 309.305 224.614 309.209 228.107C309.144 230.734 309.015 231.353 308.629 231.353C308.242 231.353 308.145 230.641 308.049 227.241C307.984 223.809 308.049 223.16 308.435 223.16C308.693 223.16 309.015 223.316 309.111 223.47ZM323.935 223.779C325.255 225.17 323.966 227.797 321.678 228.353C320.551 228.663 320.294 229.374 321.067 230.116C321.582 230.611 322.001 230.611 323.709 230.116C324.224 229.93 324.417 230.023 324.417 230.363C324.417 231.012 323.419 231.507 322.098 231.507C320.1 231.476 319.133 230.116 319.165 227.302C319.165 225.448 319.841 223.686 320.616 223.377C321.647 222.975 323.386 223.191 323.935 223.779ZM330.347 223.346C330.637 223.439 330.862 223.748 330.862 223.995C330.862 224.335 330.573 224.397 329.413 224.211C328.22 224.057 327.93 224.119 327.769 224.551C327.447 225.325 327.962 225.974 329.509 226.809C333.086 228.725 330.895 232.774 327.156 231.136C326.125 230.672 326.029 229.807 327.092 230.116C328.962 230.672 329.509 230.641 329.895 229.992C330.411 229.034 330.024 228.23 328.736 227.643C326.448 226.592 325.803 225.293 326.867 223.84C327.221 223.346 327.672 223.16 328.607 223.16C329.284 223.16 330.057 223.253 330.347 223.346ZM337.468 223.779C337.952 224.304 338.081 225.046 338.177 227.797C338.306 231.167 338.081 231.939 337.21 231.228C336.953 231.044 336.631 231.044 336.34 231.198C335.438 231.754 333.827 231.537 333.312 230.827C331.894 228.911 333.376 226.251 335.857 226.251C336.857 226.251 337.082 225.881 336.662 224.86C336.34 224.057 336.244 224.026 334.891 224.181C333.763 224.335 333.44 224.274 333.44 223.965C333.44 222.975 336.598 222.851 337.468 223.779ZM344.332 223.532C345.041 224.211 344.75 224.397 343.204 224.304C341.851 224.242 341.658 224.335 341.56 224.923C341.496 225.355 341.754 225.788 342.302 226.158C344.686 227.735 345.041 228.137 345.041 229.219C345.041 230.827 344.042 231.63 342.269 231.414C340.691 231.26 339.659 230.672 340.174 230.178C340.401 229.961 340.82 229.992 341.464 230.239C344.01 231.26 344.912 228.848 342.431 227.612C340.272 226.561 339.595 224.953 340.755 223.716C341.367 223.067 343.719 222.944 344.332 223.532Z" fill="#A31E23"/>
<path d="M163.933 45.7828C162.87 46.8648 162.612 47.7921 161.903 52.9237C160.292 64.6087 159.518 75.3973 160.26 75.3973C161.968 75.3973 166.253 68.7819 168.638 62.4448C171.635 54.562 170.088 46.3702 165.415 45.2572C164.836 45.1337 164.449 45.2572 163.933 45.7828Z" fill="#A31E23"/>
<path d="M205.469 58.6115C204.471 58.7969 202.408 60.8371 201.57 62.4756C200.99 63.6193 200.958 63.8666 201.345 64.423C201.925 65.2577 203.955 65.4123 205.276 64.7321C206.726 63.9903 207.983 61.95 207.983 60.3426C207.983 59.1988 207.854 58.9515 207.145 58.7041C206.694 58.5187 206.308 58.426 206.275 58.426C206.242 58.4569 205.888 58.5496 205.469 58.6115Z" fill="#A31E23"/>
<path d="M273.041 71.9968C271.333 72.8624 269.465 75.0263 269.593 76.0154C269.722 77.1283 271.526 77.2828 272.655 76.2627C273.525 75.4899 274.62 73.6352 275.04 72.2441C275.329 71.1931 274.781 71.1003 273.041 71.9968Z" fill="#A31E23"/>
<path d="M161.741 119.324C160.324 120.53 158.971 123.282 158.069 126.682C157.038 130.607 157.198 132.586 158.52 132.586C160.614 132.586 164.449 125.105 164.48 120.963C164.48 118.18 163.676 117.686 161.741 119.324Z" fill="#A31E23"/>
<path d="M266.597 120.066C264.857 123.559 264.373 126.435 264.889 129.556C265.308 131.844 266.726 131.163 268.595 127.856C269.562 126.125 269.691 125.693 269.691 123.312C269.691 121.086 269.562 120.498 268.917 119.354C268.465 118.644 267.983 118.057 267.854 118.057C267.692 118.057 267.112 118.954 266.597 120.066Z" fill="#A31E23"/>
<path d="M337.166 129.433C334.202 131.256 332.945 133.853 334.813 134.317C336.297 134.688 338.261 132.772 339.261 129.958C339.712 128.66 339.712 128.568 339.164 128.568C338.874 128.568 337.972 128.968 337.166 129.433Z" fill="#A31E23"/>
<path d="M195.383 117.037C194.674 117.655 193.708 118.861 193.288 119.696C192.515 121.117 192.515 121.24 192.999 121.766C194.448 123.312 197.156 122.57 198.67 120.252C199.669 118.768 199.895 116.913 199.217 116.264C198.413 115.491 196.769 115.831 195.383 117.037Z" fill="#A31E23"/>
<path d="M312.772 177.471C311.226 181.119 310.968 182.078 311.001 184.364C311.033 186.745 311.484 188.229 312.192 188.229C312.87 188.229 314.287 186.466 315.222 184.55C316.382 182.139 316.382 179.017 315.286 176.946C314.835 176.111 314.32 175.4 314.094 175.338C313.9 175.276 313.321 176.234 312.772 177.471Z" fill="#A31E23"/>
<path d="M162.516 173.175C161.42 173.885 159.551 176.915 159.133 178.708C158.971 179.48 159.035 179.573 159.712 179.573C163.192 179.573 167.059 176.668 167.059 174.102C167.059 172.371 164.545 171.845 162.516 173.175Z" fill="#A31E23"/>
<path d="M248.003 173.7C247.101 174.225 244.395 177.718 244.395 178.337C244.395 178.429 244.75 178.862 245.201 179.264C247.392 181.212 251.806 178.027 251.548 174.659C251.42 173.02 249.905 172.587 248.003 173.7Z" fill="#A31E23"/>
<path d="M199.508 224.644C198.67 225.51 198.735 229.127 199.604 229.962C200.442 230.765 201.377 230.734 201.989 229.9C202.569 229.096 202.698 225.633 202.183 224.675C201.732 223.902 200.217 223.902 199.508 224.644Z" fill="#A31E23"/>
<path d="M290.829 224.521C290.571 224.798 290.475 225.912 290.539 227.519C290.635 230.054 290.668 230.116 291.57 230.425C292.343 230.672 292.569 230.611 293.085 229.993C293.761 229.188 293.954 225.758 293.374 224.675C292.956 223.965 291.377 223.872 290.829 224.521Z" fill="#A31E23"/>
<path d="M180.141 227.644C179.4 228.385 179.464 230.178 180.27 230.425C181.592 230.827 182.783 229.467 182.461 227.89C182.332 227.149 180.819 226.993 180.141 227.644Z" fill="#A31E23"/>
<path d="M220.775 224.644C220.034 225.417 220.034 228.911 220.743 229.9C221.323 230.734 222.515 230.796 223.224 230.023C224.029 229.188 223.998 225.293 223.192 224.614C222.418 223.933 221.42 223.965 220.775 224.644Z" fill="#A31E23"/>
<path d="M236.403 224.49C235.92 225.046 235.565 226.716 235.791 227.334C235.985 227.735 236.113 227.735 237.144 227.272C238.273 226.746 238.755 225.912 238.53 224.799C238.401 224.119 236.919 223.872 236.403 224.49Z" fill="#A31E23"/>
<path d="M248.971 224.49C248.487 225.046 248.133 226.716 248.358 227.334C248.552 227.735 248.681 227.735 249.712 227.272C250.84 226.746 251.323 225.912 251.097 224.799C250.969 224.119 249.487 223.872 248.971 224.49Z" fill="#A31E23"/>
<path d="M265.404 224.458C264.921 225.046 264.566 227.365 264.921 227.581C265.082 227.674 265.663 227.551 266.243 227.272C267.274 226.777 267.757 225.881 267.532 224.799C267.403 224.119 265.921 223.872 265.404 224.458Z" fill="#A31E23"/>
<path d="M283.031 224.768C282.418 225.85 282.58 229.281 283.257 229.992C284.642 231.476 285.963 230.178 285.963 227.334C285.963 226.128 285.77 225.2 285.448 224.768C284.803 223.872 283.515 223.872 283.031 224.768Z" fill="#A31E23"/>
<path d="M304.008 224.551C303.524 225.139 303.202 227.365 303.589 227.581C303.75 227.674 304.363 227.488 304.91 227.179C305.941 226.561 306.489 225.417 306.134 224.551C305.909 223.965 304.523 223.965 304.008 224.551Z" fill="#A31E23"/>
<path d="M322.44 224.614C321.989 225.448 321.667 227.118 321.86 227.458C322.215 227.983 323.986 227.148 324.502 226.221C324.857 225.541 324.888 225.17 324.631 224.707C324.212 223.933 322.826 223.902 322.44 224.614Z" fill="#A31E23"/>
<path d="M336.103 227.674C335.813 227.921 335.588 228.632 335.588 229.188C335.588 230.456 336.522 230.888 337.681 230.147C338.326 229.746 338.487 229.374 338.487 228.416C338.487 227.241 338.423 227.179 337.553 227.179C337.037 227.179 336.361 227.395 336.103 227.674Z" fill="#A31E23"/>
</g>
<defs>
<clipPath id="clip0_9:33">
<rect width="478" height="455" fill="white"/>
</clipPath>
</defs>
</svg>
