<svg width="36" height="33" viewBox="0 0 36 33" fill="none" xmlns="http://www.w3.org/2000/svg">
<path d="M14.0468 3.46405L0.361551 6.33299L0.33212 19.4336L0.3125 32.5342H17.9219H35.5312V19.3792V6.22422H33.1768H30.8223V3.40287V0.581512L29.2821 0.588312H27.7321L14.0468 3.46405ZM29.4489 3.74279V6.22422L17.5589 6.21742C11.0155 6.21062 5.72775 6.19703 5.80623 6.17663C5.88471 6.16303 11.1626 5.05489 17.5295 3.71559C23.8963 2.3763 29.184 1.27495 29.2821 1.26816C29.4391 1.26136 29.4489 1.42452 29.4489 3.74279ZM34.2363 19.3928L34.2069 31.6164L17.9513 31.6368L1.68593 31.6504V19.4132V7.176H17.9709H34.2559L34.2363 19.3928Z" fill="white"/>
<path d="M5.70813 12.7847V15.1302H9.09266H12.4772V12.7847V10.4393H9.09266H5.70813V12.7847ZM11.1038 12.8187V14.2464H9.09266H7.08156V12.8187V11.3911H9.09266H11.1038V12.8187Z" fill="white"/>
<path d="M15.9108 10.9156V11.391H23.3666H30.8223V10.9156V10.4401H23.3666H15.9108V10.9156Z" fill="white"/>
<path d="M16.107 16.5583V17.0338H23.4647H30.8223V16.5583V16.0829H23.4647H16.107V16.5583Z" fill="white"/>
<path d="M5.70813 20.3309V22.6764H9.09266H12.4772V20.3309V17.9855H9.09266H5.70813V20.3309ZM11.1038 20.3309V21.7246H9.09266H7.08156V20.3309V18.9372H9.09266H11.1038V20.3309Z" fill="white"/>
<path d="M16.107 22.2009V22.6764H23.4647H30.8223V22.2009V21.7255H23.4647H16.107V22.2009Z" fill="white"/>
<path d="M5.02141 27.8437V28.3192H17.9219H30.8223V27.8437V27.3682H17.9219H5.02141V27.8437Z" fill="white"/>
</svg>
