<svg width="36" height="32" viewBox="0 0 36 32" fill="none" xmlns="http://www.w3.org/2000/svg">
<path d="M3.3735 0.0711212C2.75443 0.170984 1.94962 0.576683 1.45436 1.03231C0.93158 1.50042 0.505103 2.2182 0.388165 2.82986C0.333136 3.08577 0.3125 7.54219 0.3125 17.204C0.3125 31.1163 0.3125 31.21 0.450073 31.4534C0.539496 31.6157 0.683948 31.7467 0.862793 31.8279C1.13106 31.9527 1.22736 31.9527 17.9219 31.9527C34.6164 31.9527 34.7127 31.9527 34.981 31.8279C35.1598 31.7467 35.3043 31.6157 35.3937 31.4534C35.5312 31.21 35.5312 31.1163 35.5312 17.204C35.5312 7.54219 35.5106 3.08577 35.4556 2.82986C35.263 1.86243 34.4651 0.882515 33.4814 0.408161C32.5528 -0.0287437 33.5777 -0.00377655 17.8875 0.00246429C9.36482 0.00870514 3.57986 0.0336723 3.3735 0.0711212ZM32.4702 2.03719C32.7935 2.19323 33.1237 2.49906 33.3026 2.8049C33.4195 3.00463 33.4333 3.21684 33.4539 5.09553L33.4745 7.17395H17.9219H2.36922L2.38986 5.09553C2.41049 3.21684 2.42425 3.00463 2.54119 2.8049C2.78882 2.38048 3.20842 2.05592 3.68304 1.92485C3.77935 1.89988 10.2315 1.88116 18.0251 1.8874L32.1951 1.89988L32.4702 2.03719ZM33.4677 19.5633V30.0802H17.9219H2.3761V19.5633V9.0464H17.9219H33.4677V19.5633Z" fill="white"/>
<path d="M4.91433 3.75986C4.26773 4.15306 4.30901 4.96445 4.99687 5.33269C5.22387 5.45752 5.35456 5.45752 11.0432 5.45752C16.7319 5.45752 16.8626 5.45752 17.0896 5.33269C17.7774 4.96445 17.8187 4.15306 17.1721 3.75986L16.9382 3.6163H11.0432H5.1482L4.91433 3.75986Z" fill="white"/>
<path d="M25.6879 3.75989C25.4196 3.92217 25.2133 4.25297 25.2133 4.52135C25.2133 4.78974 25.4196 5.12054 25.6879 5.28282C26.1763 5.58241 26.8917 5.40765 27.153 4.92705C27.497 4.31538 27.0086 3.61633 26.2451 3.61633C26.0249 3.61633 25.8461 3.66002 25.6879 3.75989Z" fill="white"/>
<path d="M29.8151 3.75989C29.5468 3.92217 29.3405 4.25297 29.3405 4.52135C29.3405 4.78974 29.5468 5.12054 29.8151 5.28282C30.3035 5.58241 31.0189 5.40765 31.2802 4.92705C31.6242 4.31538 31.1358 3.61633 30.3723 3.61633C30.1521 3.61633 29.9733 3.66002 29.8151 3.75989Z" fill="white"/>
<path d="M9.37858 10.4196C7.51446 10.7067 5.93237 12.0361 5.49213 13.6776L5.38207 14.1021H5.10693C4.49473 14.1021 3.95819 14.5452 3.95819 15.0445C3.96507 15.5376 4.46721 15.9745 5.03814 15.9745H5.33392V16.6486C5.33392 17.3913 5.45086 17.9156 5.71225 18.3151C5.96676 18.7145 6.43451 19.0953 6.91602 19.3075L7.36313 19.501L9.97702 19.5197C12.2195 19.5384 12.6459 19.5259 13.0036 19.4385C13.8497 19.2326 14.5445 18.6271 14.8196 17.8657C14.9365 17.5536 14.9641 17.3102 14.9641 16.7235V15.9745H15.2598C15.8789 15.9745 16.3398 15.5751 16.3398 15.0383C16.3398 14.5015 15.872 14.1021 15.2392 14.1021H14.9297L14.8127 13.6589C14.6064 12.885 14.2555 12.3295 13.5539 11.6929C13.0243 11.206 12.8385 11.0812 12.2814 10.8378C11.3115 10.4071 10.3485 10.2698 9.37858 10.4196ZM11.2702 12.4668C11.9718 12.7601 12.5015 13.2657 12.7285 13.8524L12.8248 14.1021H10.1834C8.1129 14.1021 7.5351 14.0833 7.5351 14.0209C7.5351 13.8274 7.90654 13.2595 8.2092 12.9848C8.80077 12.4481 9.46112 12.2171 10.3003 12.2546C10.713 12.2733 10.94 12.3232 11.2702 12.4668ZM12.9005 16.6361C12.9005 17.279 12.8936 17.2977 12.701 17.4787L12.5015 17.6597H10.1559H7.81712L7.62452 17.5099C7.43879 17.3664 7.43192 17.3352 7.41128 16.6673L7.38376 15.9745H10.1421H12.9005V16.6361Z" fill="white"/>
<path d="M20.0474 12.317C19.4421 12.6915 19.4833 13.5403 20.1231 13.8836C20.3569 14.0084 20.4808 14.0084 25.2821 14.0271C28.742 14.0396 30.3035 14.0271 30.558 13.9772C31.5141 13.7899 31.7067 12.6602 30.8538 12.2608C30.6818 12.1797 29.9114 12.1672 25.4747 12.1672H20.295L20.0474 12.317Z" fill="white"/>
<path d="M20.0474 16.0619C19.4421 16.4364 19.4833 17.2852 20.1231 17.6285C20.3569 17.7533 20.4808 17.7533 25.2821 17.772C28.742 17.7845 30.3035 17.772 30.558 17.7221C31.5141 17.5349 31.7067 16.4052 30.8538 16.0057C30.6818 15.9246 29.9114 15.9121 25.4747 15.9121H20.295L20.0474 16.0619Z" fill="white"/>
<path d="M7.98222 20.899C7.82401 20.9614 7.64516 21.0862 7.57638 21.1798C7.50759 21.2797 7.07424 22.7964 6.59961 24.5752C5.95301 27.0094 5.76041 27.852 5.78793 28.0205C5.84983 28.3139 6.26255 28.6821 6.59273 28.7383C6.79221 28.7758 7.57638 28.626 10.1971 28.058C12.0475 27.6585 13.6846 27.2903 13.8428 27.2341C14.3931 27.0531 14.6545 26.5787 14.4826 26.0669C14.345 25.6176 13.8084 24.6564 13.4026 24.0946C12.3914 22.7153 10.5067 21.3921 8.82142 20.8803C8.4087 20.7554 8.31927 20.7554 7.98222 20.899ZM10.3622 23.8138C10.8644 24.1883 11.2358 24.5627 11.738 25.2243C11.9787 25.5427 12.0544 25.6862 11.9925 25.7174C11.8343 25.7923 8.29176 26.5413 8.25737 26.5101C8.23673 26.4914 8.42245 25.7174 8.67009 24.7812C8.91772 23.8512 9.1172 23.0773 9.1172 23.0585C9.1172 22.9961 9.90137 23.4705 10.3622 23.8138Z" fill="white"/>
<path d="M20.2194 22.0537C19.8685 22.1972 19.614 22.5468 19.614 22.9088C19.614 23.252 19.7516 23.4705 20.123 23.6952C20.3432 23.8387 20.3844 23.8387 22.3861 23.8387C24.663 23.8387 24.7524 23.8263 25.055 23.4081C25.3852 22.9649 25.1926 22.3158 24.663 22.0787C24.4497 21.9788 24.1952 21.9663 22.4274 21.9663C20.9003 21.9726 20.3844 21.9913 20.2194 22.0537Z" fill="white"/>
<path d="M27.9647 22.0787C27.6208 22.2347 27.4144 22.5468 27.4144 22.9026C27.4144 23.2583 27.6208 23.5704 27.9647 23.7264C28.3087 23.8825 30.4686 23.8887 30.8262 23.7389C31.5829 23.4144 31.576 22.422 30.8194 22.0912C30.5717 21.9788 30.3929 21.9663 29.368 21.9663C28.3981 21.9663 28.1642 21.9851 27.9647 22.0787Z" fill="white"/>
<path d="M20.2194 25.7986C19.8685 25.9421 19.614 26.2916 19.614 26.6536C19.614 26.9969 19.7516 27.2154 20.1231 27.4401L20.35 27.5836H25.4678C30.0558 27.5836 30.6199 27.5711 30.8263 27.4838C31.5829 27.1592 31.576 26.1668 30.8194 25.836C30.5442 25.7174 30.3998 25.7112 25.4815 25.7112C21.3818 25.7174 20.3913 25.7299 20.2194 25.7986Z" fill="white"/>
</svg>
