<svg width="36" height="35" viewBox="0 0 36 35" fill="none" xmlns="http://www.w3.org/2000/svg">
<path d="M16.6837 1.13475C15.5831 1.2578 15.1016 1.33299 14.4138 1.48338C8.22296 2.83006 3.40102 7.49901 1.8946 13.6172C1.5369 15.0596 1.45436 15.8183 1.45436 17.5C1.45436 19.5781 1.69511 21.0547 2.34171 22.8935C4.38467 28.7041 9.35106 32.7715 15.5969 33.7422C16.6768 33.9131 19.16 33.9131 20.24 33.749C23.865 33.1816 27.0705 31.582 29.5812 29.0869C32.1469 26.5371 33.7978 23.208 34.3068 19.5508C34.4375 18.5869 34.4169 16.1533 34.2656 15.1894C33.7634 11.9765 32.4909 9.19432 30.4204 6.79491C27.8478 3.8076 24.3465 1.90038 20.2813 1.26463C19.6415 1.16209 17.1996 1.07323 16.6837 1.13475ZM20.1918 2.35839C26.2794 3.28124 31.2665 7.7246 32.8073 13.6035C33.1925 15.0664 33.2957 15.8935 33.2888 17.5342C33.2888 19.1406 33.1994 19.8584 32.8142 21.3691C32.1607 23.8984 30.8606 26.2021 29.0034 28.1162C27.1324 30.0439 24.8418 31.4316 22.3311 32.1631C20.6665 32.6484 19.7241 32.7783 17.8875 32.7715C16.1747 32.7646 15.3149 32.6553 13.774 32.2383C8.64256 30.8301 4.50849 26.7217 3.09148 21.6221C2.66501 20.0771 2.55495 19.2363 2.55495 17.5342C2.54807 15.7432 2.67876 14.7998 3.14651 13.1933C4.6323 8.06639 8.91771 3.95116 14.1249 2.67284C14.8471 2.48827 15.9064 2.3037 16.6493 2.2285C17.2203 2.16698 19.4971 2.25585 20.1918 2.35839Z" fill="white"/>
<path d="M16.7869 3.32908C16.5117 3.37009 16.271 3.60251 16.271 3.83494C16.271 4.3408 16.4842 4.4365 17.461 4.38181C18.1351 4.34763 18.2245 4.32712 18.3415 4.17673C18.5203 3.95798 18.5066 3.65037 18.3002 3.45212C18.1489 3.2949 18.087 3.28122 17.5642 3.28806C17.2478 3.2949 16.9038 3.3154 16.7869 3.32908Z" fill="white"/>
<path d="M13.4507 3.999C8.58753 5.60544 4.92808 9.67282 3.9238 14.5947C3.73807 15.497 3.61426 16.5908 3.61426 17.2744C3.61426 17.6504 3.64177 17.7324 3.78622 17.8759C3.99946 18.0947 4.32276 18.1015 4.536 17.8896C4.67357 17.7529 4.69421 17.6504 4.73548 16.8847C4.90745 13.5625 6.24879 10.5547 8.59441 8.23044C10.2315 6.61032 12.0062 5.57126 14.2968 4.88767C14.6339 4.78513 14.9572 4.64157 15.0328 4.55954C15.3424 4.23825 15.0672 3.69138 14.6064 3.69138C14.4825 3.69822 13.9598 3.83493 13.4507 3.999Z" fill="white"/>
<path d="M17.2753 7.72461C16.8419 7.83398 16.2228 8.20312 15.9202 8.52441C15.7689 8.68848 15.5419 9.03027 15.4249 9.2832C15.2254 9.7002 15.2048 9.80273 15.2048 10.3975C15.2048 11.0127 15.2186 11.0742 15.4593 11.5664C15.7689 12.1885 16.1678 12.5713 16.8075 12.8721C17.2271 13.0703 17.3303 13.0908 17.9219 13.0908C18.5134 13.0908 18.6166 13.0703 19.0362 12.8721C19.6759 12.5713 20.0749 12.1885 20.3844 11.5664C20.6252 11.0742 20.639 11.0127 20.639 10.3906C20.639 9.76855 20.6252 9.70703 20.3844 9.21484C19.9167 8.28516 19.0913 7.73145 18.0732 7.68359C17.7843 7.66992 17.4266 7.69043 17.2753 7.72461ZM18.4309 8.83203C19.0225 9.00977 19.5728 9.76172 19.5728 10.3906C19.5728 11.2383 18.7748 12.0312 17.9219 12.0312C17.0689 12.0312 16.271 11.2383 16.271 10.3906C16.271 9.95996 16.4292 9.61133 16.7869 9.2627C17.2684 8.77734 17.7843 8.64746 18.4309 8.83203Z" fill="white"/>
<path d="M14.6545 14.2803C14.0286 14.4375 13.4645 14.8955 13.1756 15.4834C13.038 15.7637 13.0105 15.9277 13.0105 16.4062C13.0105 17.042 13.1275 17.3838 13.5127 17.8486C13.7672 18.1494 14.4138 18.498 14.8402 18.5596L15.1635 18.6074L15.1842 22.4834L15.2048 26.3525L15.4249 26.8105C15.7276 27.4463 16.1128 27.8428 16.7387 28.1504C17.2271 28.3896 17.3028 28.4033 17.8806 28.4033C18.6923 28.3965 19.1463 28.2256 19.7103 27.7061C20.1643 27.2959 20.4807 26.7354 20.6046 26.1611C20.6527 25.9082 20.6733 24.3018 20.6596 21.0478L20.639 16.3037L20.4188 15.8457C20.1162 15.21 19.731 14.8135 19.105 14.5059L18.5822 14.2529L16.725 14.2393C15.7001 14.2324 14.7715 14.2529 14.6545 14.2803ZM18.4309 15.3945C18.6097 15.4492 18.8436 15.6064 19.0569 15.8252C19.277 16.0371 19.4352 16.2695 19.4902 16.4473C19.5934 16.8027 19.6072 25.6758 19.504 26.0449C19.1463 27.3164 17.6605 27.7539 16.7663 26.8447C16.2572 26.332 16.271 26.4551 16.271 21.8955V17.835L16.099 17.6709C15.9546 17.5205 15.872 17.5 15.4456 17.5C14.8746 17.5 14.5788 17.3906 14.3243 17.0967C13.8703 16.5566 14.0767 15.6885 14.7233 15.4082C15.0053 15.2852 18.0182 15.2783 18.4309 15.3945Z" fill="white"/>
</svg>
