<svg width="78" height="78" viewBox="0 0 78 78" fill="none" xmlns="http://www.w3.org/2000/svg">
<path d="M34.1258 0.228615C25.1071 1.38642 17.2766 5.31689 10.8934 11.8981C4.92154 18.0528 1.25005 25.7614 0.214113 34.2774C-0.0601054 36.6388 -0.0601054 41.3614 0.229348 43.7228C0.762551 47.9731 1.82896 51.6599 3.77896 55.9255C4.4645 57.4489 5.62232 59.3837 5.98794 59.6427C6.68872 60.1302 7.52661 59.8103 7.77036 58.9724C7.89224 58.5458 7.81607 58.3325 7.28286 57.3118C4.8606 52.8177 3.64185 49.4204 2.86489 45.0177C2.48403 42.7935 2.31646 37.3243 2.59068 35.0544C3.55044 26.7212 6.94771 19.5153 12.7215 13.5739C18.7239 7.38877 25.9145 3.79346 34.4915 2.65088C36.6547 2.37666 41.3469 2.37666 43.5102 2.65088C50.1067 3.53447 55.7891 5.83486 61.0602 9.78056C62.736 11.045 66.4227 14.6251 67.6719 16.2247C70.6579 20.0333 73.0496 24.7255 74.2684 29.1892C75.2891 32.8911 75.4871 34.4907 75.4871 39.0001C75.4871 43.5095 75.2891 45.1091 74.2684 48.811C73.0496 53.2747 70.6579 57.9669 67.6719 61.7755C66.4227 63.3751 62.736 66.9552 61.0602 68.2196C55.652 72.272 49.6954 74.6333 42.9465 75.4103C40.7985 75.6692 35.1618 75.5321 33.2879 75.197C26.9047 74.0239 21.8012 71.8606 17.0329 68.2958C15.5551 67.1837 12.1883 63.9845 10.6344 62.1868C10.0403 61.5165 9.85747 61.3946 9.40044 61.3946C8.63872 61.3946 8.16646 61.8364 8.18169 62.522C8.19693 63.2075 9.14146 64.411 11.5333 66.7419C14.0469 69.2251 15.0981 70.063 17.9165 71.9063C22.3954 74.8161 27.5141 76.7509 33.0899 77.6497C35.5731 78.0458 42.4743 78.0458 44.8661 77.6497C53.3211 76.2329 60.1766 72.8356 66.1028 67.1075C71.45 61.9431 75.0911 55.6817 76.8582 48.6282C77.7571 45.0329 77.9246 43.5247 77.9246 39.0001C77.9246 34.4755 77.7571 32.9673 76.8582 29.372C73.3696 15.4935 62.2332 4.41807 48.37 1.05127C45.2926 0.304787 43.6321 0.121971 39.6102 0.0610352C36.9442 0.0305634 35.2227 0.0762711 34.1258 0.228615Z" fill="white"/>
<path d="M27.2848 19.2107C26.1879 19.424 24.7254 20.201 23.8571 21.0236C22.2727 22.5318 21.5262 24.6494 21.709 27.1935C22.3946 36.776 26.4926 45.5662 33.3328 52.1322C37.1567 55.7732 40.95 58.2107 46.0078 60.2521C49.6793 61.7146 52.8176 61.2424 54.9656 58.881C56.291 57.4033 56.9918 55.1181 57.2203 51.401C57.3117 49.9537 57.2965 49.8318 56.9004 48.9178C56.3672 47.7599 55.316 46.7545 54.143 46.3279C53.686 46.1451 53.2442 46.008 53.168 46.008C53.0918 46.008 52.4977 45.7947 51.8426 45.5357C50.8981 45.1549 50.4867 45.0787 49.8621 45.1244C49.1461 45.1853 48.9024 45.3224 46.8 46.8916C45.5508 47.8361 44.4082 48.5978 44.2559 48.5978C43.7379 48.5978 41.5137 46.8459 39.5028 44.8349C38.3754 43.7381 37.3395 42.7935 37.1871 42.7326C36.7758 42.6107 36.1664 42.8849 35.877 43.3267C35.4047 44.0428 35.6789 44.5303 37.766 46.6021C40.7977 49.6338 42.8239 51.0353 44.2102 51.0353C45.2766 51.0353 45.8403 50.7459 48.0645 49.0549L50.0602 47.5467L51.8731 48.156C54.5239 49.0549 54.9504 49.5424 54.7828 51.5228C54.6457 53.2443 54.2801 55.1943 53.9754 55.8646C53.0156 57.9822 50.8524 59.0486 48.5977 58.5002C46.5563 58.0127 42.7629 56.1693 40.0664 54.3717C30.8039 48.1713 25.1063 38.4517 24.1465 27.224C23.9789 25.2892 24.4512 23.8267 25.5785 22.806C26.9953 21.5263 27.9703 21.3435 31.1239 21.7853C32.4035 21.9681 33.5918 22.2119 33.7746 22.3185C33.9574 22.4404 34.2774 22.7756 34.5059 23.0498C34.8563 23.522 34.902 23.7506 35.0086 25.5939L35.1153 27.6201L33.0586 29.174C30.7582 30.926 30.5754 31.0935 30.2403 31.8857C29.8899 32.7541 29.9508 33.79 30.4688 35.222C31.0934 36.9131 32.5406 39.899 32.9367 40.3256C33.409 40.8283 34.3078 40.8131 34.7192 40.2799C34.902 40.0513 35.0391 39.7314 35.0391 39.5638C35.0391 39.3963 34.7039 38.6041 34.2926 37.7967C33.2871 35.8162 32.4188 33.5615 32.4797 33.074C32.5102 32.7693 32.9977 32.3123 34.7192 31.0021C35.9379 30.0881 37.0653 29.1283 37.2328 28.8998C37.5223 28.5189 37.5528 28.2904 37.5071 26.9193C37.4309 24.4361 37.2176 22.7908 36.8977 22.1357C36.5321 21.4654 35.4656 20.399 34.8106 20.0638C34.2621 19.7896 33.2567 19.5916 30.9563 19.2717C29.0824 19.0279 28.3055 19.0127 27.2848 19.2107Z" fill="white"/>
</svg>
