<svg width="478" height="455" viewBox="0 0 478 455" fill="none" xmlns="http://www.w3.org/2000/svg">
<g clip-path="url(#clip0_9:33)">
<path d="M387.113 19.9871H107.718V262.184H387.113V19.9871Z" fill="white"/>
<path d="M117.832 0.309778C107.038 1.51537 99.9806 6.52325 96.855 15.1788C94.986 20.3722 94.8571 22.1961 95.0827 36.7561C95.2115 43.9896 95.4372 55.1182 95.5983 61.4863C95.7594 67.8543 96.1138 82.1051 96.4038 93.1719C96.6617 104.208 96.9516 115.275 97.0483 117.747C97.1449 120.221 97.435 130.638 97.6927 140.932C97.9506 151.226 98.305 164.488 98.4984 170.454C98.6917 176.389 99.0462 188.352 99.3039 197.04C100.851 248.292 101.012 251.538 102.011 255.341C104.46 264.552 110.84 270.859 120.088 273.27C122.472 273.919 123.568 273.982 128.466 273.982C131.56 273.982 138.229 273.796 143.289 273.61C148.348 273.394 163.332 273.24 176.834 273.24C199.808 273.24 201.452 273.27 205.061 273.857C218.08 275.991 228.971 282.729 236.156 293.177C238.573 296.64 239.637 298.649 241.634 303.472C244.599 310.706 244.857 310.767 251.108 305.451C270.184 289.221 287.778 279.854 309.4 274.475C322.966 271.075 333.729 270.179 360.153 270.148C373.976 270.148 376.619 269.931 380.937 268.54C388.638 266.068 394.244 260.689 396.823 253.301C397.177 252.28 397.692 250.271 397.983 248.818C398.563 245.82 399.562 227.951 400.271 208.322C400.56 200.934 401.044 187.147 401.399 177.718C401.753 168.29 402.333 152.834 402.688 143.405C404.041 107.392 404.653 90.7299 405.265 73.5423C405.587 63.7739 406.071 53.2017 406.264 50.0485C406.78 42.2894 406.522 30.2644 405.749 27.1731C403.59 18.2701 396.565 11.4075 387.382 9.2745C383.224 8.3162 369.079 7.6052 340.174 6.92512C308.08 6.18321 284.879 5.56495 280.561 5.37949C278.337 5.28675 268.347 4.91579 258.326 4.60666C248.305 4.26662 232.451 3.71019 223.042 3.37015C213.665 3.03011 199.873 2.56641 192.43 2.2882C184.986 2.04089 174.997 1.70085 170.196 1.51537C158.047 1.05168 122.021 -0.0302642 121.055 0.000648735C120.604 0.0315615 119.153 0.155213 117.832 0.309778ZM225.652 36.1687C226.812 36.5087 228.165 37.807 228.649 39.0126C230.002 42.444 227.005 46.6481 223.171 46.6481C219.014 46.6481 216.565 41.702 218.917 38.0544C220.432 35.6431 222.236 35.1485 225.652 36.1687ZM167.972 37.0961C170.969 38.178 174.448 40.8983 176.543 43.8041C178.091 45.968 179.991 50.1413 180.894 53.3871C181.667 56.0765 181.763 56.973 181.763 61.95C181.796 66.896 181.699 67.7925 181.055 69.9873C178.187 79.4775 169.358 87.9167 158.756 91.3171C155.888 92.2445 151.731 92.801 149.798 92.5228C143.74 91.6571 142.194 82.878 145.255 66.4323C147.542 54.1909 151.409 43.0004 154.535 39.7855C156.017 38.2089 158.434 36.8487 160.432 36.4468C162.365 36.0759 165.942 36.385 167.972 37.0961ZM255.684 49.183C257.102 50.0176 257.811 51.4087 257.811 53.4489C257.811 55.5819 256.973 57.4058 253.525 62.5991C252.075 64.763 251.011 66.6487 251.141 66.8343C251.27 67.0506 252.237 68.318 253.267 69.6782C256.038 73.2332 257.682 76.6336 257.682 78.7047C257.682 80.5595 257.199 81.6414 255.845 82.878C254.105 84.4545 251.495 84.8254 249.369 83.7745C248.014 83.1253 245.663 80.8377 244.309 78.8593C243.826 78.1484 243.342 77.561 243.213 77.561C243.117 77.561 242.44 78.5193 241.731 79.663C239.959 82.5071 237.575 84.8254 235.867 85.2891C232.097 86.3712 228.681 83.589 229.1 79.7867C229.325 77.8391 231.195 74.0987 234.352 69.4C235.48 67.6998 236.415 66.1541 236.415 65.9686C236.415 65.7523 235.641 64.0211 234.674 62.0736C232.515 57.7149 231.259 54.3454 231.259 53.0161C231.259 51.7178 232.257 50.4813 233.483 50.2031C235.094 49.863 236.608 50.7904 239.927 54.0981L243.02 57.1894L244.599 54.9946C249.014 48.812 252.172 47.1737 255.684 49.183ZM205.931 50.6977C208.863 51.7796 210.636 53.7581 211.473 56.8802C212.118 59.2296 211.924 61.9191 211.022 63.9593C210.185 65.845 207.736 68.1017 205.222 69.2763C202.676 70.4819 198.842 70.8528 197.167 70.0182L196.136 69.4927V71.5948C196.167 75.088 197.682 77.2519 200.099 77.2519C200.55 77.2519 202.065 76.4171 203.707 75.2425C207.317 72.6458 208.703 72.6149 208.703 75.088C208.703 77.6847 205.48 81.8578 202.354 83.2799C200.388 84.1763 196.651 84.269 193.912 83.4653C189.82 82.2597 186.501 78.4884 185.308 73.666C184.664 71.0693 184.857 65.7213 185.662 62.8774C187.016 58.2404 190.303 53.7581 193.944 51.656C197.327 49.7394 202.225 49.3376 205.931 50.6977ZM224.524 50.4504C227.456 52.3361 227.876 54.3763 227.843 65.6595C227.811 74.1606 227.779 74.346 226.941 76.8808C224.975 82.6925 220.27 84.5164 216.597 80.8377C215.856 80.1267 215.018 78.8284 214.663 77.8701C212.892 73.2332 214.954 57.1585 217.918 52.2743C219.433 49.7703 222.269 48.9974 224.524 50.4504ZM278.692 50.7595C281.753 52.1197 283.719 54.5928 284.943 58.5496C286.006 62.1354 285.104 71.6875 283.331 75.5208C279.207 84.3927 267.445 88.906 261.323 83.929C259.003 82.0434 258.359 78.6119 259.615 74.686C261.291 69.4617 265.803 65.6286 271.119 64.8867C272.312 64.7321 273.439 64.5776 273.601 64.5776C273.761 64.5776 273.794 63.3719 273.729 61.8882C273.601 59.446 273.503 59.1678 272.698 58.4878C271.055 57.1276 268.347 57.9004 266.963 60.0952C266.189 61.3626 265.512 61.7954 264.191 61.7954C262.742 61.7954 262.387 61.1772 262.58 58.8587C263.031 53.4798 268.347 49.523 274.664 49.863C276.242 49.9558 277.564 50.2341 278.692 50.7595ZM169.165 93.852C170.26 94.3775 171.904 96.5414 172.741 98.5199C175.705 105.723 174.9 118.212 170.776 128.877C168.23 135.523 164.911 139.449 160.046 141.674C158.209 142.509 157.596 142.632 155.212 142.632C152.956 142.632 152.215 142.478 150.925 141.86C148.928 140.902 146.35 138.274 145.351 136.172C144.385 134.163 143.611 130.421 143.611 127.918C143.611 121.086 148.606 112.585 154.115 109.988C156.983 108.628 160.046 108.567 162.59 109.772L164.331 110.576L164.105 107.454C163.976 105.723 163.654 102.848 163.429 101.086C162.785 96.8197 162.816 96.3869 163.687 95.1503C165.04 93.1719 166.877 92.7392 169.165 93.852ZM293.289 93.9447C294.61 94.7175 295.673 96.6032 295.706 98.118C295.706 99.4782 294.32 102.106 293.16 102.879C290.711 104.548 288.165 104.362 286.265 102.322C284.202 100.127 283.977 97.9325 285.588 95.274C286.78 93.2647 287.456 92.9556 289.97 93.1101C291.452 93.2029 292.451 93.4501 293.289 93.9447ZM318.101 107.021C320.969 107.825 323.192 111.194 322.097 113.08C321.613 113.883 321.42 114.007 318.165 115.429C316.715 116.078 316.135 116.542 315.491 117.624C314.202 119.726 314.492 120.747 317.328 124.425C318.648 126.094 320.163 128.382 320.678 129.495C321.549 131.319 321.646 131.814 321.646 134.749C321.646 137.779 321.582 138.151 320.614 140.098C318.714 143.962 315.136 146.837 311.012 147.888C305.308 149.309 299.379 147.579 297.22 143.869C296.415 142.478 296.35 142.107 296.447 139.851C296.673 134.997 299.734 131.565 304.213 131.133C307.049 130.854 307.596 132.153 306.339 136.048C305.985 137.1 305.695 138.242 305.695 138.521C305.695 139.356 306.758 139.202 307.693 138.212C309.014 136.883 309.562 135.523 309.562 133.698C309.562 131.875 309.497 131.751 306.339 128.536C302.247 124.363 300.539 121.21 300.539 117.81C300.539 115.089 301.474 113.203 303.955 110.854C307.983 107.052 313.203 105.661 318.101 107.021ZM243.246 107.917C245.244 108.968 246.501 110.854 246.661 113.049C246.79 114.749 246.726 114.904 245.921 115.522C245.405 115.924 244.567 116.202 243.891 116.202C240.99 116.202 238.315 117.871 236.802 120.654C235.996 122.107 235.931 122.54 235.931 125.693C235.931 128.721 236.027 129.247 236.608 130.021C237.446 131.102 238.67 131.256 240.958 130.607C243.117 129.989 243.375 129.989 244.148 130.731C246.179 132.679 242.956 137.965 238.928 139.263C236.64 139.974 232.677 139.727 230.163 138.644C228.069 137.749 225.233 135.182 224.202 133.266C221.592 128.382 222.236 120.993 225.781 115.244C229.293 109.556 233.965 106.743 239.379 107.052C241.183 107.145 242.247 107.361 243.246 107.917ZM267.059 107.485C271.377 107.886 273.697 109.494 275.695 113.574C277.048 116.295 277.499 118.459 277.435 121.921C277.339 127.98 274.503 134.224 270.056 138.119C265.448 142.169 259.745 143.22 254.943 140.963C248.756 138.026 246.597 130.329 249.175 120.561C250.882 114.131 254.814 108.907 259.197 107.361C260.421 106.928 260.711 106.928 267.059 107.485ZM291.484 107.856C294.256 109.741 295.126 115.336 294.481 127.021C294.127 133.575 293.514 135.739 291.42 138.026C288.133 141.581 283.202 140.128 281.302 134.997C280.529 132.926 280.4 128.01 281.012 123.312C282.269 113.729 284.17 108.505 286.78 107.361C288.133 106.774 290.26 106.99 291.484 107.856ZM342.913 108.01C343.815 108.381 345.072 109.123 345.685 109.648C348.069 111.627 349.841 116.171 349.841 120.221C349.841 123.374 348.939 129.618 348.198 131.565C344.428 141.365 331.441 146.713 325.416 140.963C323.966 139.541 323.353 138.026 323.353 135.832C323.353 129 329.25 122.601 335.984 122.137L338.241 121.982V120.252C338.208 116.851 337.564 115.522 335.695 115.058C334.502 114.78 332.279 115.986 331.248 117.469C329.959 119.324 328.573 119.757 327.316 118.644C326.64 118.057 326.608 117.779 326.769 116.388C327.575 110.607 333.052 106.619 339.529 107.145C340.496 107.237 342.042 107.608 342.913 108.01ZM197.907 108.134C201.001 109.463 202.612 111.534 203.256 115.089C203.933 118.922 202.709 122.477 199.906 124.672C196.361 127.454 191.591 128.505 188.337 127.177C187.821 126.991 187.757 127.177 187.757 128.753C187.757 131.256 188.241 132.709 189.401 133.637C191.076 134.997 192.462 134.719 195.169 132.555C197.231 130.947 198.906 130.205 199.615 130.638C200.357 131.07 200.324 133.606 199.519 135.151C198.584 137.037 195.942 139.572 194.008 140.5C192.397 141.242 192.042 141.303 188.981 141.179C186.146 141.056 185.405 140.932 183.923 140.19C179.153 137.81 176.479 132.895 176.479 126.403C176.479 117.593 181.441 109.927 188.563 107.639C190.625 106.99 195.91 107.268 197.907 108.134ZM363.987 132.802C364.438 133.142 365.147 134.007 365.565 134.749C368.208 139.727 362.699 150.206 357.381 150.206C355.512 150.206 354.997 149.958 354.513 148.877C354.029 147.764 354.417 146.62 355.351 146.342C355.931 146.156 358.219 143.9 358.219 143.467C358.219 143.344 357.8 142.972 357.252 142.695C354.224 140.963 353.611 135.677 356.189 133.451C357.994 131.875 362.15 131.535 363.987 132.802ZM215.372 147.115C218.047 148.66 218.337 152.525 216.629 163.653C216.018 167.734 215.405 171.567 215.276 172.155C215.05 173.206 215.083 173.206 217.982 170.578C219.626 169.094 221.463 167.672 222.043 167.394C224.62 166.22 227.07 167.208 227.07 169.434C227.07 171.32 226.328 172.464 223.171 175.462C221.559 176.946 219.69 178.831 218.982 179.636L217.693 181.088L220.786 185.571C224.782 191.382 227.392 196.173 227.392 197.75C227.392 199.233 226.393 200.223 224.491 200.626C221.752 201.212 219.079 199.728 214.212 194.906L211.506 192.247L210.12 194.937C208.412 198.338 206.866 200.068 204.997 200.78C200.905 202.263 197.489 199.759 196.425 194.442C195.459 189.466 197.263 179.759 201.807 165.786C206.866 150.051 210.926 144.488 215.372 147.115ZM342.301 147.084C344.395 148.321 345.201 151.876 344.879 158.707C344.588 164.983 343.557 174.596 341.817 186.807C341.173 191.352 338.756 193.608 334.793 193.391C332.312 193.268 330.507 192.186 329.089 189.991C327.8 187.982 327.833 186.591 329.508 177.41C332.923 158.398 333.891 154.225 335.727 150.453C337.467 146.806 339.787 145.63 342.301 147.084ZM189.98 150.979C194.008 152.958 193.654 158.614 189.336 160.716C186.339 162.2 183.149 160.655 181.989 157.223C181.248 155.09 182.44 151.968 184.502 150.7C185.502 150.083 188.498 150.237 189.98 150.979ZM188.563 165.076C189.787 165.755 190.786 167.455 191.302 169.681C192.333 174.194 191.946 188.415 190.689 191.752C189.336 195.463 187.306 197.194 184.309 197.194C182.021 197.194 180.41 196.019 178.993 193.268L177.929 191.166L177.962 186.066C178.026 176.915 180.217 167.92 183.02 165.415C184.502 164.086 186.63 163.932 188.563 165.076ZM313.01 164.704C315.265 164.89 316.328 165.168 317.392 165.755C321.355 167.981 323.74 172.896 323.74 178.801C323.74 185.91 319.776 193.515 314.202 197.04C311.495 198.77 308.982 199.45 305.823 199.296C301.409 199.079 298.057 196.947 296.06 193.113C294.674 190.485 294.32 188.352 294.513 184.21C294.836 177.873 296.704 172.68 300.152 168.569C302.762 165.476 305.823 163.962 308.756 164.271C309.466 164.364 311.366 164.55 313.01 164.704ZM168.552 165.446C173.386 167.579 176.156 172.557 175.738 178.336C175.223 185.415 170.678 191.073 164.169 192.742C161.721 193.361 158.144 193.298 156.243 192.587L154.664 192.031L154.31 194.845C153.988 197.441 153.278 204.953 152.795 211.475C152.602 213.793 152.473 214.258 151.764 214.937C149.25 217.349 144.74 216.205 142.903 212.681C142.032 211.042 141.999 210.857 141.999 205.695C141.999 195.215 142.903 188.631 145.255 181.645C148.155 173.05 151.571 167.734 155.308 166.002C158.82 164.364 165.491 164.117 168.552 165.446ZM248.724 165.044C251.334 165.817 253.17 167.301 254.363 169.62C255.136 171.103 255.265 171.752 255.265 174.009C255.265 177.502 254.782 178.862 252.784 180.964C249.4 184.519 244.148 185.941 240.217 184.364C239.701 184.18 239.637 184.364 239.637 185.973C239.637 189.094 240.894 191.382 242.795 191.722C243.955 191.938 244.793 191.568 247.274 189.743C249.82 187.858 250.722 187.487 251.592 187.92C252.462 188.384 252.397 190.454 251.399 192.494C250.464 194.412 247.887 196.884 245.792 197.873C243.762 198.833 239.346 198.833 236.737 197.873C228.585 194.845 225.877 183.159 231.001 173.082C232.161 170.732 236.156 166.745 238.187 165.817C241.505 164.302 245.341 164.024 248.724 165.044ZM286.716 165.137C292.323 167.981 294.127 180.161 290.517 191.103C288.52 197.131 285.716 199.791 282.107 198.987C280.336 198.615 279.401 197.781 278.821 195.989C277.661 192.557 277.854 189.342 279.819 180.346C281.269 173.576 281.463 171.845 280.754 171.845C279.432 171.845 276.049 178.059 271.248 189.373C269.637 193.175 268.058 196.792 267.703 197.41C265.351 201.831 259.905 201.243 257.489 196.328C256.747 194.875 256.586 194.04 256.489 191.475C256.36 188.817 256.489 187.642 257.489 183.066C258.746 177.317 260.485 171.165 261.581 168.785C262.999 165.632 265.899 164.209 268.187 165.601C269.604 166.466 270.153 167.888 270.41 171.443L270.635 174.596L271.764 172.401C273.278 169.557 276.178 166.559 278.692 165.353C281.302 164.117 284.524 164.024 286.716 165.137ZM335.791 196.947C338.434 197.719 340.818 200.872 340.818 203.561C340.818 204.891 339.433 207.519 338.337 208.261C334.696 210.733 329.218 209.033 327.8 205.014C327.091 203.036 327.156 201.954 328.058 200.1C329.444 197.224 332.44 195.989 335.791 196.947ZM276.211 219.76C276.984 220.379 276.436 220.688 274.858 220.472C273.632 220.316 273.31 220.379 272.956 220.842C272.183 221.831 272.441 222.728 273.665 223.686C274.309 224.149 275.405 225.077 276.114 225.726C277.371 226.839 277.402 226.932 277.273 228.477C277.144 229.714 276.919 230.239 276.242 230.795C275.276 231.6 273.407 231.754 272.021 231.136C270.99 230.704 270.893 229.807 271.957 230.085C273.923 230.641 274.309 230.611 275.18 229.961C275.791 229.497 276.049 229.034 276.049 228.292C276.049 226.993 275.405 226.19 273.632 225.2C271.119 223.779 270.507 221.614 272.183 220.007C273.052 219.172 273.343 219.079 274.471 219.235C275.18 219.328 275.953 219.574 276.211 219.76ZM168.81 221.986L168.907 224.551H170.678H172.451L172.548 221.986C172.644 219.698 172.709 219.451 173.289 219.451C173.901 219.451 173.901 219.637 173.837 225.386C173.74 230.456 173.675 231.353 173.257 231.353C172.87 231.353 172.741 230.765 172.613 228.57L172.451 225.788H170.678H168.907L168.745 228.57C168.616 230.765 168.488 231.353 168.101 231.353C167.682 231.353 167.617 230.456 167.521 225.386C167.457 219.637 167.457 219.451 168.068 219.451C168.648 219.451 168.714 219.698 168.81 221.986ZM196.458 221.43V223.439L198.198 223.253C199.937 223.067 199.97 223.098 200.614 224.119C201.581 225.665 201.549 228.879 200.55 230.302C199.744 231.446 198.133 231.878 197.231 231.167C196.876 230.888 196.683 230.888 196.296 231.198C196.007 231.414 195.749 231.537 195.652 231.446C195.556 231.353 195.394 221.121 195.491 219.667C195.491 219.544 195.716 219.451 195.974 219.451C196.361 219.451 196.458 219.884 196.458 221.43ZM287.778 220.131C287.876 220.533 287.972 221.398 287.972 222.109V223.377L289.519 223.223C290.775 223.13 291.13 223.223 291.677 223.779C292.225 224.365 292.323 224.891 292.323 227.179C292.323 229.653 292.258 229.992 291.548 230.704C290.711 231.569 289.648 231.723 288.552 231.167C288.101 230.92 287.811 230.92 287.553 231.167C287.36 231.353 287.07 231.507 286.941 231.507C286.812 231.507 286.683 228.786 286.683 225.479C286.683 220.563 286.78 219.451 287.134 219.451C287.36 219.451 287.65 219.76 287.778 220.131ZM207.092 220.78C207.092 221.305 205.866 222.418 205.609 222.14C205.351 221.893 206.35 220.379 206.77 220.379C206.963 220.379 207.092 220.563 207.092 220.78ZM180.572 223.995C180.99 224.614 181.152 225.602 181.248 227.983C181.345 231.167 181.087 231.909 180.25 231.228C179.991 231.044 179.669 231.044 179.379 231.198C178.477 231.754 176.865 231.537 176.35 230.827C174.932 228.911 176.414 226.251 178.896 226.251C179.895 226.251 180.12 225.881 179.701 224.86C179.379 224.057 179.282 224.026 177.929 224.181C176.801 224.335 176.479 224.274 176.479 223.965C176.479 223.377 176.962 223.223 178.638 223.191C179.798 223.16 180.088 223.284 180.572 223.995ZM184.6 223.5C184.696 223.779 184.889 223.779 185.405 223.5C186.308 223.037 187.854 223.067 188.337 223.532C188.659 223.84 188.885 223.84 189.369 223.532C190.367 222.944 192.204 223.067 192.591 223.748C192.977 224.49 193.042 231.507 192.623 231.507C191.915 231.507 191.656 230.456 191.56 227.458L191.463 224.242L190.593 224.149C189.143 223.995 188.692 225.077 188.756 228.385C188.788 229.961 188.723 231.321 188.595 231.414C188.079 231.909 187.821 230.827 187.693 227.89C187.564 224.335 187.306 223.809 185.92 224.274C185.018 224.551 185.018 224.583 184.857 227.86C184.76 229.653 184.6 231.228 184.471 231.353C183.794 232.002 183.569 230.888 183.569 227.148C183.569 223.902 183.665 223.16 184.02 223.16C184.277 223.16 184.535 223.316 184.6 223.5ZM204.513 226.684C204.642 229.467 204.771 230.116 205.255 230.395C205.673 230.641 206.028 230.611 206.704 230.27C207.574 229.807 207.574 229.714 207.672 226.437C207.736 223.5 207.832 223.13 208.316 223.223C208.799 223.316 208.863 223.809 208.96 227.148C209.056 231.044 208.831 231.939 207.961 231.26C207.639 230.981 207.285 230.981 206.543 231.26C205.222 231.723 203.902 231.353 203.547 230.395C203.353 229.961 203.225 228.137 203.225 226.376C203.225 223.439 203.289 223.13 203.804 223.223C204.288 223.316 204.384 223.809 204.513 226.684ZM212.344 223.532C212.473 223.84 212.57 223.84 212.924 223.532C213.536 222.975 215.469 223.037 215.469 223.624C215.469 223.933 215.147 224.088 214.567 224.088C212.826 224.088 212.601 224.551 212.504 228.107C212.44 230.734 212.311 231.353 211.924 231.353C211.538 231.353 211.442 230.641 211.344 227.241C211.28 223.84 211.344 223.16 211.731 223.16C211.989 223.16 212.247 223.346 212.344 223.532ZM220.786 223.47C220.947 223.716 221.141 223.686 221.43 223.47C222.365 222.728 222.558 223.5 222.558 228.353C222.558 234.072 222.204 235.155 220.206 235.649C218.917 235.958 217.08 235.432 217.08 234.722C217.08 234.197 217.531 234.165 218.369 234.598C219.884 235.371 221.27 234.134 221.27 231.939C221.27 230.981 221.205 230.888 220.657 231.198C219.53 231.754 218.208 231.569 217.371 230.704C216.694 229.992 216.597 229.653 216.597 227.334C216.597 225.046 216.694 224.675 217.371 223.965C217.951 223.377 218.498 223.16 219.368 223.16C220.045 223.16 220.69 223.316 220.786 223.47ZM225.781 226.067C225.781 227.674 225.91 229.343 226.103 229.776C226.457 230.704 227.359 230.827 228.327 230.023C228.907 229.56 229.003 229.095 229.067 226.407C229.164 223.902 229.261 223.316 229.647 223.316C230.034 223.316 230.131 223.995 230.227 227.148C230.324 231.012 230.098 231.939 229.261 231.26C228.971 231.044 228.649 231.044 228.359 231.198C227.618 231.662 225.877 231.569 225.33 231.012C225.04 230.765 224.815 230.239 224.815 229.869C224.782 226.87 224.75 223.593 224.782 223.377C224.815 223.253 225.04 223.16 225.297 223.16C225.684 223.16 225.781 223.686 225.781 226.067ZM236.802 223.686C238.187 224.891 236.898 227.828 234.771 228.261C233.612 228.509 233.321 229.034 233.837 229.93C234.223 230.672 235.029 230.765 236.253 230.209C237.349 229.744 237.704 230.178 236.769 230.92C235.867 231.63 234.256 231.693 233.288 231.044C231.677 229.961 231.517 225.355 233.031 223.902C233.965 223.006 235.899 222.913 236.802 223.686ZM240.443 223.47C240.572 223.686 240.829 223.686 241.248 223.47C242.183 223.006 243.504 223.098 243.504 223.624C243.504 223.902 243.213 224.088 242.731 224.088C242.311 224.088 241.667 224.335 241.28 224.614C240.7 225.107 240.603 225.572 240.539 228.261C240.443 230.765 240.346 231.353 239.959 231.353C239.572 231.353 239.476 230.641 239.379 227.241C239.315 223.809 239.379 223.16 239.766 223.16C240.023 223.16 240.346 223.316 240.443 223.47ZM249.433 223.84C250.625 225.479 249.465 227.674 247.081 228.385L245.759 228.756L246.243 229.653C246.79 230.704 247.789 230.858 248.885 230.116C249.884 229.436 250.271 230.178 249.304 230.951C248.498 231.569 247.016 231.693 246.017 231.167C244.116 230.178 243.955 224.891 245.856 223.624C246.919 222.913 248.853 223.006 249.433 223.84ZM256.007 223.84C256.103 224.274 255.878 224.365 254.718 224.304C253.461 224.242 253.332 224.304 253.235 225.016C253.17 225.665 253.396 225.942 254.427 226.499C256.715 227.735 257.392 229.621 256.071 230.888C255.233 231.693 253.203 231.723 252.172 230.92C251.108 230.116 251.624 229.776 253.17 230.27C254.202 230.579 254.524 230.611 254.943 230.27C255.78 229.59 255.523 228.446 254.396 227.86C252.01 226.653 251.173 224.83 252.397 223.624C253.139 222.944 255.845 223.098 256.007 223.84ZM265.803 223.686C267.188 224.891 266.028 227.55 263.773 228.261C262.516 228.663 262.258 229.343 263.031 230.116C263.547 230.611 263.966 230.611 265.674 230.116C266.705 229.807 266.608 230.672 265.577 231.136C263.45 232.063 261.871 231.29 261.227 229.002C260.679 227.055 261.452 223.809 262.58 223.377C263.482 223.037 265.222 223.191 265.803 223.686ZM283.815 223.965C284.428 224.614 284.588 225.139 284.685 226.963C284.782 228.911 284.717 229.343 284.041 230.27C283.397 231.167 283.042 231.383 281.946 231.446C280.818 231.537 280.529 231.414 279.787 230.579C279.046 229.744 278.95 229.312 278.95 227.458C278.95 225.293 279.497 223.686 280.303 223.377C281.463 222.913 283.042 223.191 283.815 223.965ZM295.544 223.47C295.673 223.686 295.931 223.686 296.35 223.47C297.284 223.006 298.606 223.098 298.606 223.624C298.606 223.933 298.283 224.088 297.704 224.088C296.124 224.088 295.738 224.83 295.642 228.261C295.577 230.765 295.448 231.353 295.062 231.353C294.674 231.353 294.578 230.641 294.481 227.241C294.416 223.809 294.481 223.16 294.867 223.16C295.125 223.16 295.448 223.316 295.544 223.47ZM304.406 223.779C305.212 224.551 305.212 225.509 304.439 226.746C303.89 227.581 303.278 227.951 301.442 228.539C300.991 228.663 300.925 228.848 301.151 229.405C301.571 230.518 302.279 230.765 303.6 230.302C305.05 229.807 305.47 230.116 304.439 230.92C303.6 231.569 302.118 231.693 301.12 231.167C299.314 230.239 299.057 225.541 300.732 223.748C301.506 222.944 303.568 222.975 304.406 223.779ZM308.111 223.47C308.24 223.686 308.498 223.686 308.917 223.47C309.755 223.037 311.27 223.067 311.753 223.532C312.075 223.84 312.301 223.84 312.785 223.532C313.589 223.067 315.426 223.037 315.942 223.532C316.426 223.995 316.49 231.507 316.006 231.507C315.395 231.507 315.104 230.146 315.071 227.365C315.04 225.881 314.975 224.521 314.846 224.365C314.589 223.933 313.236 224.026 312.849 224.49C312.656 224.706 312.43 226.344 312.397 228.137C312.332 230.734 312.204 231.353 311.817 231.353C311.43 231.353 311.334 230.795 311.27 228.416C311.141 224.583 311.012 224.088 310.11 224.088C308.562 224.088 308.305 224.614 308.209 228.107C308.144 230.734 308.015 231.353 307.629 231.353C307.242 231.353 307.145 230.641 307.049 227.241C306.984 223.809 307.049 223.16 307.435 223.16C307.693 223.16 308.015 223.316 308.111 223.47ZM322.935 223.779C324.255 225.17 322.966 227.797 320.678 228.353C319.551 228.663 319.294 229.374 320.067 230.116C320.582 230.611 321.001 230.611 322.709 230.116C323.224 229.93 323.417 230.023 323.417 230.363C323.417 231.012 322.419 231.507 321.098 231.507C319.1 231.476 318.133 230.116 318.165 227.302C318.165 225.448 318.841 223.686 319.616 223.377C320.647 222.975 322.386 223.191 322.935 223.779ZM329.347 223.346C329.637 223.439 329.862 223.748 329.862 223.995C329.862 224.335 329.573 224.397 328.413 224.211C327.22 224.057 326.93 224.119 326.769 224.551C326.447 225.325 326.962 225.974 328.509 226.809C332.086 228.725 329.895 232.774 326.156 231.136C325.125 230.672 325.029 229.807 326.092 230.116C327.962 230.672 328.509 230.641 328.895 229.992C329.411 229.034 329.024 228.23 327.736 227.643C325.448 226.592 324.803 225.293 325.867 223.84C326.221 223.346 326.672 223.16 327.607 223.16C328.284 223.16 329.057 223.253 329.347 223.346ZM336.468 223.779C336.952 224.304 337.081 225.046 337.177 227.797C337.306 231.167 337.081 231.939 336.21 231.228C335.953 231.044 335.631 231.044 335.34 231.198C334.438 231.754 332.827 231.537 332.312 230.827C330.894 228.911 332.376 226.251 334.857 226.251C335.856 226.251 336.082 225.881 335.662 224.86C335.34 224.057 335.244 224.026 333.891 224.181C332.763 224.335 332.44 224.274 332.44 223.965C332.44 222.975 335.598 222.851 336.468 223.779ZM343.332 223.532C344.041 224.211 343.75 224.397 342.204 224.304C340.851 224.242 340.658 224.335 340.56 224.923C340.496 225.355 340.754 225.788 341.302 226.158C343.686 227.735 344.041 228.137 344.041 229.219C344.041 230.827 343.042 231.63 341.269 231.414C339.691 231.26 338.659 230.672 339.174 230.178C339.401 229.961 339.82 229.992 340.464 230.239C343.01 231.26 343.912 228.848 341.431 227.612C339.272 226.561 338.595 224.953 339.755 223.716C340.367 223.067 342.719 222.944 343.332 223.532Z" fill="#A31E23"/>
<path d="M163.933 45.7828C162.87 46.8648 162.612 47.7921 161.903 52.9237C160.292 64.6087 159.518 75.3973 160.26 75.3973C161.968 75.3973 166.253 68.7819 168.638 62.4448C171.635 54.562 170.088 46.3702 165.415 45.2572C164.836 45.1337 164.449 45.2572 163.933 45.7828Z" fill="#A31E23"/>
<path d="M205.469 58.6115C204.471 58.7969 202.408 60.8371 201.57 62.4756C200.99 63.6193 200.958 63.8666 201.345 64.423C201.925 65.2577 203.955 65.4123 205.276 64.7321C206.726 63.9903 207.983 61.95 207.983 60.3426C207.983 59.1988 207.854 58.9515 207.145 58.7041C206.694 58.5187 206.308 58.426 206.275 58.426C206.242 58.4569 205.888 58.5496 205.469 58.6115Z" fill="#A31E23"/>
<path d="M273.041 71.9968C271.333 72.8624 269.465 75.0263 269.593 76.0154C269.722 77.1283 271.526 77.2828 272.655 76.2627C273.525 75.4899 274.62 73.6352 275.04 72.2441C275.329 71.1931 274.781 71.1003 273.041 71.9968Z" fill="#A31E23"/>
<path d="M161.741 119.324C160.324 120.53 158.971 123.282 158.069 126.682C157.038 130.607 157.198 132.586 158.52 132.586C160.614 132.586 164.449 125.105 164.48 120.963C164.48 118.18 163.676 117.686 161.741 119.324Z" fill="#A31E23"/>
<path d="M266.597 120.066C264.857 123.559 264.373 126.435 264.889 129.556C265.308 131.844 266.726 131.163 268.595 127.856C269.562 126.125 269.691 125.693 269.691 123.312C269.691 121.086 269.562 120.498 268.917 119.354C268.465 118.644 267.983 118.057 267.854 118.057C267.692 118.057 267.112 118.954 266.597 120.066Z" fill="#A31E23"/>
<path d="M337.166 129.433C334.202 131.256 332.945 133.853 334.813 134.317C336.297 134.688 338.261 132.772 339.261 129.958C339.712 128.66 339.712 128.568 339.164 128.568C338.874 128.568 337.972 128.968 337.166 129.433Z" fill="#A31E23"/>
<path d="M195.383 117.037C194.674 117.655 193.708 118.861 193.288 119.696C192.515 121.117 192.515 121.24 192.999 121.766C194.448 123.312 197.156 122.57 198.67 120.252C199.669 118.768 199.895 116.913 199.217 116.264C198.413 115.491 196.769 115.831 195.383 117.037Z" fill="#A31E23"/>
<path d="M312.772 177.471C311.226 181.119 310.968 182.078 311.001 184.364C311.033 186.745 311.484 188.229 312.192 188.229C312.87 188.229 314.287 186.466 315.222 184.55C316.382 182.139 316.382 179.017 315.286 176.946C314.835 176.111 314.32 175.4 314.094 175.338C313.9 175.276 313.321 176.234 312.772 177.471Z" fill="#A31E23"/>
<path d="M162.516 173.175C161.42 173.885 159.551 176.915 159.133 178.708C158.971 179.48 159.035 179.573 159.712 179.573C163.192 179.573 167.059 176.668 167.059 174.102C167.059 172.371 164.545 171.845 162.516 173.175Z" fill="#A31E23"/>
<path d="M248.003 173.7C247.101 174.225 244.395 177.718 244.395 178.337C244.395 178.429 244.75 178.862 245.201 179.264C247.392 181.212 251.806 178.027 251.548 174.659C251.42 173.02 249.905 172.587 248.003 173.7Z" fill="#A31E23"/>
<path d="M199.508 224.644C198.67 225.51 198.735 229.127 199.604 229.962C200.442 230.765 201.377 230.734 201.989 229.9C202.569 229.096 202.698 225.633 202.183 224.675C201.732 223.902 200.217 223.902 199.508 224.644Z" fill="#A31E23"/>
<path d="M290.829 224.521C290.571 224.798 290.475 225.912 290.539 227.519C290.635 230.054 290.668 230.116 291.57 230.425C292.343 230.672 292.569 230.611 293.085 229.993C293.761 229.188 293.954 225.758 293.374 224.675C292.956 223.965 291.377 223.872 290.829 224.521Z" fill="#A31E23"/>
<path d="M180.141 227.644C179.4 228.385 179.464 230.178 180.27 230.425C181.592 230.827 182.783 229.467 182.461 227.89C182.332 227.149 180.819 226.993 180.141 227.644Z" fill="#A31E23"/>
<path d="M220.775 224.644C220.034 225.417 220.034 228.911 220.743 229.9C221.323 230.734 222.515 230.796 223.224 230.023C224.029 229.188 223.998 225.293 223.192 224.614C222.418 223.933 221.42 223.965 220.775 224.644Z" fill="#A31E23"/>
<path d="M236.403 224.49C235.92 225.046 235.565 226.716 235.791 227.334C235.985 227.735 236.113 227.735 237.144 227.272C238.273 226.746 238.755 225.912 238.53 224.799C238.401 224.119 236.919 223.872 236.403 224.49Z" fill="#A31E23"/>
<path d="M248.971 224.49C248.487 225.046 248.133 226.716 248.358 227.334C248.552 227.735 248.681 227.735 249.712 227.272C250.84 226.746 251.323 225.912 251.097 224.799C250.969 224.119 249.487 223.872 248.971 224.49Z" fill="#A31E23"/>
<path d="M265.404 224.458C264.921 225.046 264.566 227.365 264.921 227.581C265.082 227.674 265.663 227.551 266.243 227.272C267.274 226.777 267.757 225.881 267.532 224.799C267.403 224.119 265.921 223.872 265.404 224.458Z" fill="#A31E23"/>
<path d="M283.031 224.768C282.418 225.85 282.58 229.281 283.257 229.992C284.642 231.476 285.963 230.178 285.963 227.334C285.963 226.128 285.77 225.2 285.448 224.768C284.803 223.872 283.515 223.872 283.031 224.768Z" fill="#A31E23"/>
<path d="M304.008 224.551C303.524 225.139 303.202 227.365 303.589 227.581C303.75 227.674 304.363 227.488 304.91 227.179C305.941 226.561 306.489 225.417 306.134 224.551C305.909 223.965 304.523 223.965 304.008 224.551Z" fill="#A31E23"/>
<path d="M322.44 224.614C321.989 225.448 321.667 227.118 321.86 227.458C322.215 227.983 323.986 227.148 324.502 226.221C324.857 225.541 324.888 225.17 324.631 224.707C324.212 223.933 322.826 223.902 322.44 224.614Z" fill="#A31E23"/>
<path d="M336.103 227.674C335.813 227.921 335.588 228.632 335.588 229.188C335.588 230.456 336.522 230.888 337.681 230.147C338.326 229.746 338.487 229.374 338.487 228.416C338.487 227.241 338.423 227.179 337.553 227.179C337.037 227.179 336.361 227.395 336.103 227.674Z" fill="#A31E23"/>
</g>
<defs>
<clipPath id="clip0_9:33">
<rect width="478" height="455" fill="white"/>
</clipPath>
</defs>
</svg>
